<?xml version="1.0" encoding="UTF-8" standalone="no"?>
<svg
   width="21"
   height="16"
   viewBox="0 0 21 16"
   fill="none"
   version="1.1"
   id="svg1"
   sodipodi:docname="burger-search.svg"
   inkscape:version="1.4.2 (f4327f4, 2025-05-13)"
   xmlns:inkscape="http://www.inkscape.org/namespaces/inkscape"
   xmlns:sodipodi="http://sodipodi.sourceforge.net/DTD/sodipodi-0.dtd"
   xmlns="http://www.w3.org/2000/svg"
   xmlns:svg="http://www.w3.org/2000/svg">
  <defs
     id="defs1" />
  <sodipodi:namedview
     id="namedview1"
     pagecolor="#ffffff"
     bordercolor="#000000"
     borderopacity="0.25"
     inkscape:showpageshadow="2"
     inkscape:pageopacity="0.0"
     inkscape:pagecheckerboard="0"
     inkscape:deskcolor="#d1d1d1"
     inkscape:zoom="72.9375"
     inkscape:cx="10.495287"
     inkscape:cy="8"
     inkscape:window-width="3440"
     inkscape:window-height="1369"
     inkscape:window-x="-8"
     inkscape:window-y="-8"
     inkscape:window-maximized="1"
     inkscape:current-layer="svg1" />
  <path
     style="baseline-shift:baseline;display:inline;overflow:visible;vector-effect:none;fill:#e76d00;stroke-linecap:round;stroke-linejoin:round;enable-background:accumulate;stop-color:#000000;stop-opacity:1;opacity:1"
     d="m 1.5,0 a 1,1 0 0 0 -1,1 1,1 0 0 0 1,1 h 16 a 1,1 0 0 0 1,-1 1,1 0 0 0 -1,-1 z m 12,4 C 12.174275,4 10.902216,4.5274214 9.9648438,5.4648437 9.0274067,6.4022558 8.5,7.674297 8.5,9 c 0,1.325725 0.5273823,2.597782 1.4648438,3.535156 C 10.902229,13.472666 12.174293,14 13.5,14 c 0.998883,0 1.918458,-0.381132 2.736328,-0.929687 a 1,1 0 0 0 0.05664,0.136718 l 2.5,2.5 a 1,1 0 0 0 1.414062,0 1,1 0 0 0 0,-1.414062 l -2.5,-2.5 a 1,1 0 0 0 -0.175781,0 C 18.104568,10.963245 18.5,10.022267 18.5,9 18.5,7.6743159 17.972642,6.4022668 17.035156,5.4648437 16.097784,4.5274214 14.825725,4 13.5,4 Z m -12,2 a 1,1 0 0 0 -1,1 1,1 0 0 0 1,1 h 4 a 1,1 0 0 0 1,-1 1,1 0 0 0 -1,-1 z m 12,0 c 0.796075,0 1.558266,0.3160486 2.121094,0.8789062 C 16.184008,7.4417832 16.5,8.2039441 16.5,9 c 0,0.7960934 -0.316016,1.558279 -0.878906,2.121094 C 15.058279,11.683984 14.296093,12 13.5,12 12.703907,12 11.941721,11.683984 11.378906,11.121094 10.816028,10.558268 10.5,9.7960745 10.5,9 10.5,8.203963 10.816003,7.4417942 11.378906,6.8789062 11.941734,6.3160486 12.703925,6 13.5,6 Z m -12,6 a 1,1 0 0 0 -1,1 1,1 0 0 0 1,1 h 4 a 1,1 0 0 0 1,-1 1,1 0 0 0 -1,-1 z"
     id="path1" />
</svg>
