<svg width="21" height="20" viewBox="0 0 21 20" fill="none" xmlns="http://www.w3.org/2000/svg">
<path d="M10.9246 7.61905H12.8095V4.7619H15.6369V2.85714H12.8095V0H10.9246V2.85714H8.09722V4.7619H10.9246V7.61905ZM6.15476 16.1905C5.11806 16.1905 4.27927 17.0476 4.27927 18.0952C4.27927 19.1429 5.11806 20 6.15476 20C7.19147 20 8.03968 19.1429 8.03968 18.0952C8.03968 17.0476 7.19147 16.1905 6.15476 16.1905ZM16.5794 16.1905C15.5427 16.1905 14.7039 17.0476 14.7039 18.0952C14.7039 19.1429 15.5427 20 16.5794 20C17.6161 20 18.4643 19.1429 18.4643 18.0952C18.4643 17.0476 17.6161 16.1905 16.5794 16.1905ZM6.31498 13.0952L6.34325 12.981L7.19147 11.4286H15.2128C15.9196 11.4286 16.5417 11.0381 16.8621 10.4476L20.5 3.77143L18.8601 2.85714H18.8507L17.814 4.7619L15.2128 9.52381H7.59673L7.47421 9.26667L5.36309 4.7619L4.46776 2.85714L3.58185 0.952381H0.5V2.85714H2.38492L5.77778 10.0857L4.50546 12.419C4.35466 12.6857 4.26984 13 4.26984 13.3333C4.26984 14.381 5.11806 15.2381 6.15476 15.2381H18.4643V13.3333H6.5506C6.42808 13.3333 6.31498 13.2286 6.31498 13.0952Z" fill="white"/>
</svg>
