<?xml version="1.0" encoding="UTF-8" standalone="no"?>
<svg
   width="18"
   height="18"
   viewBox="0 0 18 18"
   fill="none"
   version="1.1"
   id="svg1"
   sodipodi:docname="clip.svg"
   inkscape:version="1.4.2 (f4327f4, 2025-05-13)"
   xmlns:inkscape="http://www.inkscape.org/namespaces/inkscape"
   xmlns:sodipodi="http://sodipodi.sourceforge.net/DTD/sodipodi-0.dtd"
   xmlns="http://www.w3.org/2000/svg"
   xmlns:svg="http://www.w3.org/2000/svg">
  <defs
     id="defs1" />
  <sodipodi:namedview
     id="namedview1"
     pagecolor="#ffffff"
     bordercolor="#000000"
     borderopacity="0.25"
     inkscape:showpageshadow="2"
     inkscape:pageopacity="0.0"
     inkscape:pagecheckerboard="0"
     inkscape:deskcolor="#d1d1d1"
     inkscape:zoom="64.833333"
     inkscape:cx="9"
     inkscape:cy="9"
     inkscape:window-width="3440"
     inkscape:window-height="1369"
     inkscape:window-x="-8"
     inkscape:window-y="-8"
     inkscape:window-maximized="1"
     inkscape:current-layer="svg1" />
  <path
     style="baseline-shift:baseline;display:inline;overflow:visible;vector-effect:none;fill:#999999;stroke-linecap:round;stroke-linejoin:round;enable-background:accumulate;stop-color:#000000;stop-opacity:1;opacity:1"
     d="M 9.3632813,0.28515625 C 9.0912939,0.34106065 8.8380605,0.4624963 8.625,0.640625 8.4119344,0.81877604 8.2457644,1.0469116 8.1425781,1.3046875 L 6.9511719,4.2851562 c -0.00876,0.021901 -0.022622,0.041755 -0.039063,0.058594 -0.016444,0.016843 -0.034976,0.029788 -0.056641,0.039063 a 0.750075,0.750075 0 0 0 -0.00195,0 L 1.9667969,6.4785156 C 1.7145747,6.5864843 1.4924987,6.7552066 1.3203125,6.96875 1.1481132,7.1823321 1.0305383,7.4337599 0.97851563,7.703125 0.92648486,7.9725319 0.94121288,8.2513758 1.0214844,8.5136719 1.1017808,8.7759904 1.2455818,9.0148781 1.4394531,9.2089844 L 4.5839844,12.353516 0.46875,16.46875 a 0.75,0.75 0 0 0 0,1.0625 0.75,0.75 0 0 0 1.0625,0 l 4.1152344,-4.115234 3.1445312,3.144531 c 0.1941639,0.193947 0.4332893,0.337654 0.6953125,0.417969 0.2621906,0.08019 0.5410909,0.09502 0.8105469,0.04297 0.269304,-0.05205 0.520748,-0.169558 0.734375,-0.341797 0.213632,-0.172243 0.382296,-0.394507 0.490234,-0.646484 l 2.095704,-4.886719 a 0.750075,0.750075 0 0 0 0,-0.002 c 0.0091,-0.02135 0.02206,-0.04005 0.03906,-0.05664 0.01681,-0.01643 0.03712,-0.03049 0.05859,-0.03906 L 16.695312,9.8574219 C 16.953123,9.7542436 17.181217,9.5880312 17.359375,9.375 17.537729,9.1617345 17.658931,8.9082218 17.714844,8.6367188 17.770667,8.3647577 17.759371,8.0824156 17.679687,7.8164062 17.600024,7.5504627 17.456034,7.307868 17.259766,7.1113281 a 0.750075,0.750075 0 0 0 -0.002,0 l -6.36914,-6.3691406 a 0.750075,0.750075 0 0 0 0,-0.001953 C 10.69211,0.5438713 10.449603,0.39998526 10.183594,0.3203125 9.917573,0.24064541 9.6353009,0.22925615 9.3632813,0.28515625 Z M 9.6660156,1.7539062 c 0.02906,-0.00597 0.059471,-0.0046 0.087891,0.00391 0.02847,0.00853 0.053381,0.024105 0.074219,0.044922 l 6.369141,6.3691406 c 0.02093,0.02096 0.03638,0.045722 0.04492,0.074219 0.0085,0.028431 0.0099,0.058772 0.0039,0.087891 -0.0061,0.029557 -0.01826,0.057544 -0.03711,0.080078 -0.01904,0.022769 -0.04468,0.03974 -0.07227,0.050781 L 13.158203,9.65625 c -0.204818,0.081819 -0.391291,0.2037965 -0.548828,0.357422 -0.157801,0.154009 -0.28422,0.337766 -0.371094,0.541016 l -2.095703,4.888671 c -0.01166,0.02722 -0.02997,0.05 -0.05273,0.06836 -0.02277,0.01836 -0.04943,0.03156 -0.07813,0.03711 -0.028744,0.0056 -0.057768,0.0028 -0.085938,-0.0059 v 0.002 C 9.8974445,15.536236 9.8722386,15.520653 9.8515625,15.5 L 6.1757812,11.824219 2.5,8.1484375 c -0.020709,-0.020734 -0.034385,-0.046177 -0.042969,-0.074219 -0.00859,-0.028064 -0.011409,-0.057205 -0.00586,-0.085938 0.00556,-0.028775 0.018729,-0.055327 0.037109,-0.078125 0.018414,-0.022837 0.041421,-0.041203 0.068359,-0.052734 L 7.4453125,5.7617187 C 7.6481284,5.6748932 7.8321921,5.548502 7.9863281,5.390625 8.1404878,5.2327242 8.261829,5.0466355 8.34375,4.8417969 L 9.5351563,1.8632812 c 0.011034,-0.027564 0.028047,-0.053257 0.050781,-0.072266 0.02274,-0.019011 0.051006,-0.031134 0.080078,-0.037109 z"
     id="path1" />
</svg>
