<?xml version="1.0" encoding="UTF-8" standalone="no"?>
<svg
   width="24"
   height="24"
   viewBox="0 0 24 24"
   version="1.1"
   id="svg2"
   sodipodi:docname="clock.svg"
   inkscape:version="1.4.2 (f4327f4, 2025-05-13)"
   xmlns:inkscape="http://www.inkscape.org/namespaces/inkscape"
   xmlns:sodipodi="http://sodipodi.sourceforge.net/DTD/sodipodi-0.dtd"
   xmlns="http://www.w3.org/2000/svg"
   xmlns:svg="http://www.w3.org/2000/svg">
  <defs
     id="defs2" />
  <sodipodi:namedview
     id="namedview2"
     pagecolor="#ffffff"
     bordercolor="#000000"
     borderopacity="0.25"
     inkscape:showpageshadow="2"
     inkscape:pageopacity="0.0"
     inkscape:pagecheckerboard="0"
     inkscape:deskcolor="#d1d1d1"
     inkscape:zoom="48.625"
     inkscape:cx="12"
     inkscape:cy="12"
     inkscape:window-width="3440"
     inkscape:window-height="1369"
     inkscape:window-x="-8"
     inkscape:window-y="-8"
     inkscape:window-maximized="1"
     inkscape:current-layer="svg2" />
  <path
     style="baseline-shift:baseline;display:inline;overflow:visible;vector-effect:none;stroke-linecap:round;stroke-linejoin:round;enable-background:accumulate;stop-color:#000000;stop-opacity:1;opacity:1"
     d="M 12,2 C 6.4889982,2 2,6.4889941 2,12 2,17.511006 6.4889982,22 12,22 17.511002,22 22,17.511006 22,12 22,6.4889941 17.511002,2 12,2 Z m 0,2 c 4.430123,0 8,3.5698737 8,8 0,4.430126 -3.569877,8 -8,8 C 7.5698765,20 4,16.430126 4,12 4,7.5698737 7.5698765,4 12,4 Z"
     id="path1" />
  <path
     style="baseline-shift:baseline;display:inline;overflow:visible;vector-effect:none;stroke-linecap:round;stroke-linejoin:round;enable-background:accumulate;stop-color:#000000;stop-opacity:1;opacity:1"
     d="m 12,6 a 1,1 0 0 0 -1,1 v 5 a 1.0001,1.0001 0 0 0 0.292969,0.707031 l 3,3 a 1,1 0 0 0 1.414062,0 1,1 0 0 0 0,-1.414062 L 13,11.585938 V 7 A 1,1 0 0 0 12,6 Z"
     id="path2" />
</svg>
