<svg width="30" height="30" viewBox="0 0 30 30" fill="none" xmlns="http://www.w3.org/2000/svg">
<path d="M4.39337 4.39349C-1.46446 10.2513 -1.46446 19.7489 4.39337 25.6067C10.2515 31.4649 19.7487 31.4645 25.6066 25.6067C31.4647 19.7485 31.4647 10.2517 25.6066 4.39349C19.7487 -1.46433 10.2515 -1.46466 4.39337 4.39349ZM24.3016 24.3018C19.1843 29.4191 10.8365 29.3982 5.71915 24.2808C0.6018 19.1635 0.6018 10.8366 5.71915 5.71928C10.8365 0.601924 19.1634 0.601945 24.2807 5.71928C29.398 10.8366 29.419 19.1844 24.3016 24.3018ZM18.9774 9.6968L15 13.6743L11.0225 9.6968C10.6566 9.33087 10.0626 9.33087 9.69667 9.6968C9.33074 10.0627 9.33074 10.6567 9.69667 11.0226L13.6741 15.0001L9.69667 18.9776C9.33074 19.3435 9.33074 19.9375 9.69667 20.3034C10.0626 20.6693 10.6566 20.6693 11.0225 20.3034L15 16.3259L18.9774 20.3034C19.3434 20.6693 19.9373 20.6693 20.3033 20.3034C20.6692 19.9375 20.6692 19.3435 20.3033 18.9776L16.3258 15.0001L20.3033 11.0226C20.6692 10.6567 20.6692 10.0627 20.3033 9.6968C19.9373 9.33087 19.3434 9.33087 18.9774 9.6968Z" fill="white"/>
</svg>
