<?xml version="1.0" encoding="UTF-8" standalone="no"?>
<svg
   width="34"
   height="26"
   viewBox="0 0 34 26"
   fill="none"
   version="1.1"
   id="svg1"
   sodipodi:docname="credit-card.svg"
   inkscape:version="1.4.2 (f4327f4, 2025-05-13)"
   xmlns:inkscape="http://www.inkscape.org/namespaces/inkscape"
   xmlns:sodipodi="http://sodipodi.sourceforge.net/DTD/sodipodi-0.dtd"
   xmlns="http://www.w3.org/2000/svg"
   xmlns:svg="http://www.w3.org/2000/svg">
  <defs
     id="defs1" />
  <sodipodi:namedview
     id="namedview1"
     pagecolor="#ffffff"
     bordercolor="#000000"
     borderopacity="0.25"
     inkscape:showpageshadow="2"
     inkscape:pageopacity="0.0"
     inkscape:pagecheckerboard="0"
     inkscape:deskcolor="#d1d1d1"
     inkscape:zoom="44.884615"
     inkscape:cx="17.010283"
     inkscape:cy="13"
     inkscape:window-width="3440"
     inkscape:window-height="1369"
     inkscape:window-x="-8"
     inkscape:window-y="-8"
     inkscape:window-maximized="1"
     inkscape:current-layer="svg1" />
  <path
     style="baseline-shift:baseline;display:inline;overflow:visible;vector-effect:none;fill:#000000;stroke-linejoin:round;enable-background:accumulate;stop-color:#000000;stop-opacity:1;opacity:1"
     d="M 4.578125,0 C 2.0604202,0 1.40623e-4,2.049625 0,4.5488281 v 2.25 a 1.0001,1.0001 0 0 0 1,1 1.0001,1.0001 0 0 0 -1,1 V 21.451172 C 1.4062175e-4,23.950404 2.0604337,26 4.578125,26 H 29.423828 C 31.941454,26 33.999872,23.950424 34,21.451172 V 8.7988281 a 1.0001,1.0001 0 0 0 -1,-1 1.0001,1.0001 0 0 0 1,-1 v -2.25 C 33.999872,2.0496052 31.941467,0 29.423828,0 Z m 0,2 H 29.423828 C 30.867322,2 31.998882,3.1390341 32,4.5488281 v 1.25 H 2 V 4.5507812 4.5488281 C 2.0011256,3.1390143 3.1345173,2 4.578125,2 Z M 2,9.7988281 H 32 V 21.449219 C 31.999928,22.859967 30.868002,24 29.423828,24 H 4.578125 C 3.1345038,24 2.0011256,22.861037 2,21.451172 Z m 4.5371094,4.7773439 c -1.0923862,3.96e-4 -1.9980469,0.907078 -1.9980469,2 v 1.625 c 1.979e-4,1.092786 0.9055414,1.999604 1.9980469,2 a 1.0001,1.0001 0 0 0 0.00195,0 h 3.9218755 a 1.0001,1.0001 0 0 0 0.002,0 c 1.092506,-3.96e-4 1.997849,-0.907275 1.998047,-2 v -1.625 c 0,-1.092946 -0.905662,-1.999604 -1.998047,-2 a 1.0001,1.0001 0 0 0 -0.002,0 H 6.5390625 a 1.0001,1.0001 0 0 0 -0.00195,0 z m 0.00195,2 h 3.9218755 v 1.625 H 6.5390625 Z"
     id="path1" />
</svg>
