<svg width="25" height="22" viewBox="0 0 25 22" fill="none" xmlns="http://www.w3.org/2000/svg">
<path d="M12.3068 6.94737L15.9091 10.6063V10.4211C15.9091 9.49977 15.5499 8.61623 14.9106 7.96479C14.2713 7.31334 13.4041 6.94737 12.5 6.94737H12.3068ZM7.42045 7.87368L9.18182 9.66842C9.125 9.91158 9.09091 10.1547 9.09091 10.4211C9.09091 11.3423 9.45008 12.2259 10.0894 12.8773C10.7287 13.5288 11.5959 13.8947 12.5 13.8947C12.75 13.8947 13 13.86 13.2386 13.8021L15 15.5968C14.2386 15.9789 13.3977 16.2105 12.5 16.2105C10.9931 16.2105 9.5479 15.6006 8.48235 14.5148C7.4168 13.4291 6.81818 11.9565 6.81818 10.4211C6.81818 9.50632 7.04545 8.64947 7.42045 7.87368ZM1.13636 1.47053L4.23864 4.63158C2.36364 6.13684 0.886364 8.10526 0 10.4211C1.96591 15.5042 6.81818 19.1053 12.5 19.1053C14.2614 19.1053 15.9432 18.7579 17.4773 18.1326L17.9659 18.6189L21.2841 22L22.7273 20.5295L2.57955 0M12.5 4.63158C14.0069 4.63158 15.4521 5.24154 16.5177 6.32728C17.5832 7.41301 18.1818 8.88559 18.1818 10.4211C18.1818 11.1621 18.0341 11.88 17.7727 12.5284L21.1023 15.9211C22.8068 14.4737 24.1705 12.5747 25 10.4211C23.0341 5.33789 18.1818 1.73684 12.5 1.73684C10.9091 1.73684 9.38636 2.02632 7.95455 2.54737L10.4205 5.03684C11.0682 4.7821 11.7614 4.63158 12.5 4.63158Z" fill="#999999"/>
</svg>
