<svg width="26" height="18" viewBox="0 0 26 18" fill="none" xmlns="http://www.w3.org/2000/svg">
<path d="M13 11.9165C14.7949 11.9165 16.25 10.4614 16.25 8.6665C16.25 6.87158 14.7949 5.4165 13 5.4165C11.2051 5.4165 9.75 6.87158 9.75 8.6665C9.75 10.4614 11.2051 11.9165 13 11.9165Z" fill="black"/>
<path d="M25.545 7.23667C24.0067 5.04833 19.7167 0 13 0C6.28333 0 1.99333 5.04833 0.455 7.23667C-0.151667 8.10333 -0.151667 9.25167 0.455 10.0967C1.99333 12.285 6.28333 17.3333 13 17.3333C19.7167 17.3333 24.0067 12.285 25.545 10.0967C26.1517 9.25167 26.1517 8.08167 25.545 7.23667ZM13 14.0833C11.5634 14.0833 10.1857 13.5126 9.16984 12.4968C8.15402 11.481 7.58333 10.1033 7.58333 8.66667C7.58333 7.23008 8.15402 5.85233 9.16984 4.8365C10.1857 3.82068 11.5634 3.25 13 3.25C14.4366 3.25 15.8143 3.82068 16.8302 4.8365C17.846 5.85233 18.4167 7.23008 18.4167 8.66667C18.4167 10.1033 17.846 11.481 16.8302 12.4968C15.8143 13.5126 14.4366 14.0833 13 14.0833Z" fill="black"/>
</svg>
