<?xml version="1.0" encoding="UTF-8" standalone="no"?>
<svg
   width="22"
   height="22"
   viewBox="0 0 22 22"
   fill="none"
   version="1.1"
   id="svg1"
   sodipodi:docname="filter.svg"
   inkscape:version="1.4.2 (f4327f4, 2025-05-13)"
   xmlns:inkscape="http://www.inkscape.org/namespaces/inkscape"
   xmlns:sodipodi="http://sodipodi.sourceforge.net/DTD/sodipodi-0.dtd"
   xmlns="http://www.w3.org/2000/svg"
   xmlns:svg="http://www.w3.org/2000/svg">
  <defs
     id="defs1" />
  <sodipodi:namedview
     id="namedview1"
     pagecolor="#ffffff"
     bordercolor="#000000"
     borderopacity="0.25"
     inkscape:showpageshadow="2"
     inkscape:pageopacity="0.0"
     inkscape:pagecheckerboard="0"
     inkscape:deskcolor="#d1d1d1"
     inkscape:zoom="53.045455"
     inkscape:cx="11"
     inkscape:cy="11"
     inkscape:window-width="3440"
     inkscape:window-height="1369"
     inkscape:window-x="-8"
     inkscape:window-y="-8"
     inkscape:window-maximized="1"
     inkscape:current-layer="svg1" />
  <path
     style="baseline-shift:baseline;display:inline;overflow:visible;vector-effect:none;fill:#ffffff;stroke-linecap:round;stroke-linejoin:round;enable-background:accumulate;stop-color:#000000;stop-opacity:1;opacity:1"
     d="M 4.75,0 C 2.1384912,0 0,2.1384912 0,4.75 0,7.3615088 2.1384912,9.5 4.75,9.5 7.0074243,9.5 8.8220677,7.8700803 9.296875,5.75 H 19.75 a 1,1 0 0 0 1,-1 1,1 0 0 0 -1,-1 H 9.296875 C 8.8220677,1.6299197 7.0074243,0 4.75,0 Z m 0,2 C 6.2806312,2 7.5,3.2193688 7.5,4.75 7.5,6.2806312 6.2806312,7.5 4.75,7.5 3.2193688,7.5 2,6.2806312 2,4.75 2,3.2193688 3.2193688,2 4.75,2 Z m 12.5,10.5 c -2.257435,0 -4.07207,1.629914 -4.546875,3.75 H 2.25 a 1,1 0 0 0 -1,1 1,1 0 0 0 1,1 H 12.703125 C 13.17793,20.370086 14.992565,22 17.25,22 19.861521,22 22,19.861521 22,17.25 22,14.638479 19.861521,12.5 17.25,12.5 Z m 0,2 c 1.530679,0 2.75,1.219321 2.75,2.75 0,1.530679 -1.219321,2.75 -2.75,2.75 -1.530679,0 -2.75,-1.219321 -2.75,-2.75 0,-1.530679 1.219321,-2.75 2.75,-2.75 z"
     id="path1" />
</svg>
