<?xml version="1.0" encoding="UTF-8" standalone="no"?>
<svg
   width="24"
   height="25"
   viewBox="0 0 24 25"
   fill="none"
   version="1.1"
   id="svg1"
   sodipodi:docname="info.svg"
   inkscape:version="1.4.2 (f4327f4, 2025-05-13)"
   xmlns:inkscape="http://www.inkscape.org/namespaces/inkscape"
   xmlns:sodipodi="http://sodipodi.sourceforge.net/DTD/sodipodi-0.dtd"
   xmlns="http://www.w3.org/2000/svg"
   xmlns:svg="http://www.w3.org/2000/svg">
  <defs
     id="defs1" />
  <sodipodi:namedview
     id="namedview1"
     pagecolor="#ffffff"
     bordercolor="#000000"
     borderopacity="0.25"
     inkscape:showpageshadow="2"
     inkscape:pageopacity="0.0"
     inkscape:pagecheckerboard="0"
     inkscape:deskcolor="#d1d1d1"
     inkscape:zoom="46.68"
     inkscape:cx="12.007284"
     inkscape:cy="12.5"
     inkscape:window-width="3440"
     inkscape:window-height="1369"
     inkscape:window-x="-8"
     inkscape:window-y="-8"
     inkscape:window-maximized="1"
     inkscape:current-layer="svg1" />
  <path
     style="baseline-shift:baseline;display:inline;overflow:visible;vector-effect:none;fill:#999999;enable-background:accumulate;stop-color:#000000;stop-opacity:1;opacity:1"
     d="m 12,0.5 c -6.6307028,0 -12,5.3692972 -12,12 0,6.630703 5.3692972,12 12,12 6.630703,0 12,-5.369297 12,-12 0,-6.6307028 -5.369297,-12 -12,-12 z m 0,2 c 5.557297,0 10,4.4427028 10,10 0,5.557297 -4.442703,10 -10,10 -5.5572972,0 -10,-4.442703 -10,-10 0,-5.5572972 4.4427028,-10 10,-10 z"
     id="rect1" />
  <path
     d="M10.7769 7.43V5.27H13.2249V7.43H10.7769ZM10.7769 18.5V8.78H13.2249V18.5H10.7769Z"
     fill="#999999"
     id="path1" />
</svg>
