<svg width="33" height="26" viewBox="0 0 33 26" fill="none" xmlns="http://www.w3.org/2000/svg">
<path d="M3.66667 2.78571C3.1625 2.78571 2.75 3.20357 2.75 3.71429V22.2857C2.75 22.7964 3.1625 23.2143 3.66667 23.2143H29.3333C29.8375 23.2143 30.25 22.7964 30.25 22.2857V3.71429C30.25 3.20357 29.8375 2.78571 29.3333 2.78571H3.66667ZM0 3.71429C0 1.66563 1.64427 0 3.66667 0H29.3333C31.3557 0 33 1.66563 33 3.71429V22.2857C33 24.3344 31.3557 26 29.3333 26H3.66667C1.64427 26 0 24.3344 0 22.2857V3.71429ZM5.5 7.42857C5.5 6.93603 5.69315 6.46366 6.03697 6.11537C6.38079 5.76709 6.8471 5.57143 7.33333 5.57143C7.81956 5.57143 8.28588 5.76709 8.6297 6.11537C8.97351 6.46366 9.16667 6.93603 9.16667 7.42857C9.16667 7.92112 8.97351 8.39349 8.6297 8.74177C8.28588 9.09005 7.81956 9.28572 7.33333 9.28572C6.8471 9.28572 6.38079 9.09005 6.03697 8.74177C5.69315 8.39349 5.5 7.92112 5.5 7.42857ZM11.4583 7.42857C11.4583 6.6567 12.0714 6.03571 12.8333 6.03571H25.6667C26.4286 6.03571 27.0417 6.6567 27.0417 7.42857C27.0417 8.20045 26.4286 8.82143 25.6667 8.82143H12.8333C12.0714 8.82143 11.4583 8.20045 11.4583 7.42857ZM11.4583 13C11.4583 12.2281 12.0714 11.6071 12.8333 11.6071H25.6667C26.4286 11.6071 27.0417 12.2281 27.0417 13C27.0417 13.7719 26.4286 14.3929 25.6667 14.3929H12.8333C12.0714 14.3929 11.4583 13.7719 11.4583 13ZM11.4583 18.5714C11.4583 17.7996 12.0714 17.1786 12.8333 17.1786H25.6667C26.4286 17.1786 27.0417 17.7996 27.0417 18.5714C27.0417 19.3433 26.4286 19.9643 25.6667 19.9643H12.8333C12.0714 19.9643 11.4583 19.3433 11.4583 18.5714ZM7.33333 14.8571C6.8471 14.8571 6.38079 14.6615 6.03697 14.3132C5.69315 13.9649 5.5 13.4925 5.5 13C5.5 12.5075 5.69315 12.0351 6.03697 11.6868C6.38079 11.3385 6.8471 11.1429 7.33333 11.1429C7.81956 11.1429 8.28588 11.3385 8.6297 11.6868C8.97351 12.0351 9.16667 12.5075 9.16667 13C9.16667 13.4925 8.97351 13.9649 8.6297 14.3132C8.28588 14.6615 7.81956 14.8571 7.33333 14.8571ZM5.5 18.5714C5.5 18.0789 5.69315 17.6065 6.03697 17.2582C6.38079 16.91 6.8471 16.7143 7.33333 16.7143C7.81956 16.7143 8.28588 16.91 8.6297 17.2582C8.97351 17.6065 9.16667 18.0789 9.16667 18.5714C9.16667 19.064 8.97351 19.5363 8.6297 19.8846C8.28588 20.2329 7.81956 20.4286 7.33333 20.4286C6.8471 20.4286 6.38079 20.2329 6.03697 19.8846C5.69315 19.5363 5.5 19.064 5.5 18.5714Z" fill="black"/>
</svg>
