<svg width="40" height="38" viewBox="0 0 40 38" fill="none" xmlns="http://www.w3.org/2000/svg">
<path d="M0 37.5V7.9H9.36364L12.7273 4.2H23.6364V7.9H14.3182L11 11.6H3.63636V33.8H32.7273V17.15H36.3636V37.5H0ZM32.7273 11.6V7.9H29.0909V4.2H32.7273V0.5H36.3636V4.2H40V7.9H36.3636V11.6H32.7273ZM18.1818 30.025C20.4545 30.025 22.3867 29.2159 23.9782 27.5978C25.5697 25.9797 26.3649 24.0137 26.3636 21.7C26.3624 19.3863 25.5673 17.4209 23.9782 15.8041C22.3891 14.1872 20.457 13.3775 18.1818 13.375C15.9067 13.3725 13.9752 14.1822 12.3873 15.8041C10.7994 17.4259 10.0036 19.3912 10 21.7C9.99636 24.0088 10.7921 25.9747 12.3873 27.5978C13.9824 29.2209 15.9139 30.0299 18.1818 30.025ZM18.1818 26.325C16.9091 26.325 15.8333 25.8779 14.9545 24.9837C14.0758 24.0896 13.6364 22.995 13.6364 21.7C13.6364 20.405 14.0758 19.3104 14.9545 18.4163C15.8333 17.5221 16.9091 17.075 18.1818 17.075C19.4545 17.075 20.5303 17.5221 21.4091 18.4163C22.2879 19.3104 22.7273 20.405 22.7273 21.7C22.7273 22.995 22.2879 24.0896 21.4091 24.9837C20.5303 25.8779 19.4545 26.325 18.1818 26.325Z" fill="#CCCCCC"/>
</svg>
