<svg width="22" height="28" viewBox="0 0 22 28" fill="none" xmlns="http://www.w3.org/2000/svg">
<path d="M1.29306 17.2083C0.57892 17.2083 0 16.6294 0 15.9153C0 15.2011 0.578921 14.6222 1.29306 14.6222H13.2077C13.4262 14.6222 13.6897 14.6093 13.9982 14.5833C14.3068 14.5574 14.6217 14.512 14.943 14.4472C16.3313 14.1361 17.3661 13.4491 18.0473 12.3861C18.7415 11.3102 19.0885 10.0917 19.0885 8.73056C19.0885 7.84907 18.9407 7 18.6451 6.18333C18.3494 5.36667 17.8931 4.66667 17.2761 4.08333C16.6591 3.5 15.8814 3.10463 14.943 2.89722C14.6345 2.81944 14.3196 2.77407 13.9982 2.76111C13.6769 2.74815 13.4134 2.74167 13.2077 2.74167H5.14812V0H13.2848C13.5034 0 13.7797 0.0129628 14.1139 0.0388884C14.461 0.051852 14.8402 0.0907411 15.2515 0.155556C16.6912 0.388889 17.9124 0.900926 18.915 1.69167C19.9305 2.46944 20.6953 3.46111 21.2095 4.66667C21.7365 5.87222 22 7.20741 22 8.67222C22 10.85 21.4216 12.6972 20.2647 14.2139C19.1207 15.7306 17.4496 16.6769 15.2515 17.0528C14.8402 17.1046 14.461 17.1435 14.1139 17.1694C13.7797 17.1954 13.5034 17.2083 13.2848 17.2083H1.29306ZM1.225 23.2556C0.548451 23.2556 0 22.7071 0 22.0306C0 21.354 0.548451 20.8056 1.225 20.8056H13.6795C14.356 20.8056 14.9045 21.354 14.9045 22.0306C14.9045 22.7071 14.356 23.2556 13.6795 23.2556H1.225ZM4.36722 28C3.58454 28 2.95004 27.3655 2.95004 26.5828V0H5.7844V26.5828C5.7844 27.3655 5.14991 28 4.36722 28Z" fill="black"/>
</svg>
