<svg width="14" height="14" viewBox="0 0 14 14" fill="none" xmlns="http://www.w3.org/2000/svg">
<path fill-rule="evenodd" clip-rule="evenodd" d="M12.5498 0.0957783C12.722 0.0109717 12.9104 -0.0182775 13.0954 0.0110747C13.2805 0.0404268 13.4555 0.127308 13.6021 0.262674C13.7488 0.39804 13.8617 0.576943 13.9293 0.780762C13.9968 0.984581 14.0165 1.20587 13.9861 1.42158L12.4063 12.6387C12.2531 13.7207 11.2389 14.3412 10.3912 13.8023C9.6821 13.3514 8.62891 12.6567 7.68158 11.9318C7.20792 11.5689 5.75699 10.407 5.93531 9.58024C6.08855 8.87331 8.52651 6.21681 9.91963 4.63743C10.4664 4.01693 10.2171 3.65898 9.57135 4.22974C7.96787 5.64686 5.39338 7.80191 4.54219 8.40855C3.7913 8.94343 3.39983 9.03476 2.93174 8.94343C2.07776 8.7771 1.28577 8.51944 0.639364 8.20552C-0.234122 7.78152 -0.191632 6.37581 0.638667 5.96649L12.5498 0.0957783Z" fill="black"/>
</svg>
