<svg xmlns="http://www.w3.org/2000/svg" width="16" height="16" viewBox="0 0 16 16" fill="none">
    <path
        d="M15.3143 4.98329H0.685714C0.503852 4.98329 0.329437 4.91108 0.200841 4.78255C0.0722446 4.65402 0 4.47969 0 4.29792C0 4.11615 0.0722446 3.94182 0.200841 3.81329C0.329437 3.68476 0.503852 3.61255 0.685714 3.61255H15.3143C15.4961 3.61255 15.6706 3.68476 15.7992 3.81329C15.9278 3.94182 16 4.11615 16 4.29792C16 4.47969 15.9278 4.65402 15.7992 4.78255C15.6706 4.91108 15.4961 4.98329 15.3143 4.98329Z"
        fill="black" />
    <path
        d="M12.0594 15.9949H3.94057C3.65083 16.0147 3.36003 15.9768 3.08504 15.8834C2.81006 15.7901 2.55635 15.6431 2.33863 15.451C2.12091 15.2589 1.94351 15.0255 1.81672 14.7643C1.68993 14.5032 1.61626 14.2195 1.6 13.9296V4.34361C1.6 4.16184 1.67224 3.98752 1.80084 3.85898C1.92944 3.73045 2.10385 3.65824 2.28571 3.65824C2.46758 3.65824 2.64199 3.73045 2.77059 3.85898C2.89918 3.98752 2.97143 4.16184 2.97143 4.34361V13.9296C2.97143 14.3043 3.40114 14.6241 3.88571 14.6241H12.0046C12.5166 14.6241 12.9189 14.3043 12.9189 13.9296V4.34361C12.9189 4.1473 12.9969 3.95903 13.1358 3.82021C13.2746 3.6814 13.463 3.60341 13.6594 3.60341C13.8558 3.60341 14.0442 3.6814 14.1831 3.82021C14.322 3.95903 14.4 4.1473 14.4 4.34361V13.9296C14.3837 14.2195 14.3101 14.5032 14.1833 14.7643C14.0565 15.0255 13.8791 15.2589 13.6614 15.451C13.4437 15.6431 13.1899 15.7901 12.915 15.8834C12.64 15.9768 12.3492 16.0147 12.0594 15.9949ZM12.1691 4.11516C12.0788 4.11639 11.989 4.0995 11.9053 4.06549C11.8215 4.03148 11.7455 3.98104 11.6815 3.91716C11.6176 3.85327 11.5671 3.77722 11.5331 3.69351C11.4991 3.60981 11.4822 3.52013 11.4834 3.42979V2.06819C11.4834 1.69352 11.0446 1.37368 10.5691 1.37368H5.45829C4.95543 1.37368 4.544 1.69352 4.544 2.06819V3.42979C4.544 3.61156 4.47176 3.78589 4.34316 3.91442C4.21456 4.04295 4.04015 4.11516 3.85829 4.11516C3.67642 4.11516 3.50201 4.04295 3.37341 3.91442C3.24482 3.78589 3.17257 3.61156 3.17257 3.42979V2.06819C3.20797 1.49368 3.467 0.955847 3.89421 0.569848C4.32141 0.183849 4.88284 -0.0196418 5.45829 0.0029422H10.5417C11.1218 -0.0270429 11.6902 0.173114 12.1234 0.559875C12.5566 0.946635 12.8195 1.48871 12.8549 2.06819V3.42979C12.8561 3.52056 12.8392 3.61066 12.8053 3.69487C12.7714 3.77908 12.7211 3.85572 12.6573 3.92034C12.5935 3.98495 12.5175 4.03625 12.4337 4.07126C12.3499 4.10628 12.26 4.1243 12.1691 4.1243V4.11516Z"
        fill="black" />
    <path
        d="M6.37257 12.568C6.19145 12.5657 6.0184 12.4927 5.89032 12.3647C5.76223 12.2367 5.68923 12.0637 5.68686 11.8827V7.74304C5.68686 7.56127 5.7591 7.38695 5.8877 7.25841C6.01629 7.12988 6.19071 7.05767 6.37257 7.05767C6.55443 7.05767 6.72885 7.12988 6.85744 7.25841C6.98604 7.38695 7.05829 7.56127 7.05829 7.74304V11.8735C7.0595 11.9643 7.04265 12.0544 7.00874 12.1386C6.97482 12.2228 6.9245 12.2995 6.86071 12.3641C6.79691 12.4287 6.72091 12.48 6.63711 12.515C6.55332 12.55 6.4634 12.5681 6.37257 12.568ZM9.62743 12.568C9.44557 12.568 9.27115 12.4958 9.14256 12.3673C9.01396 12.2388 8.94171 12.0644 8.94171 11.8827V7.74304C8.94171 7.56127 9.01396 7.38695 9.14256 7.25841C9.27115 7.12988 9.44557 7.05767 9.62743 7.05767C9.80929 7.05767 9.98371 7.12988 10.1123 7.25841C10.2409 7.38695 10.3131 7.56127 10.3131 7.74304V11.8735C10.3132 12.0562 10.2412 12.2314 10.1129 12.3614C9.98453 12.4914 9.81013 12.5656 9.62743 12.568Z"
        fill="black" />
</svg>