<svg width="23" height="22" viewBox="0 0 23 22" fill="none" xmlns="http://www.w3.org/2000/svg">
<path d="M1.5 18.5H0.5H1.5ZM6.5 13.5V12.5V13.5ZM16.5 13.5V12.5V13.5ZM1.5 18.5H2.5C2.5 17.4391 2.92143 16.4217 3.67157 15.6716L2.96447 14.9645L2.25736 14.2574C1.13214 15.3826 0.5 16.9087 0.5 18.5H1.5ZM2.96447 14.9645L3.67157 15.6716C4.42172 14.9214 5.43913 14.5 6.5 14.5V13.5V12.5C4.9087 12.5 3.38258 13.1321 2.25736 14.2574L2.96447 14.9645ZM6.5 13.5V14.5H16.5V13.5V12.5H6.5V13.5ZM16.5 13.5V14.5C17.5609 14.5 18.5783 14.9214 19.3284 15.6716L20.0355 14.9645L20.7426 14.2574C19.6174 13.1321 18.0913 12.5 16.5 12.5V13.5ZM20.0355 14.9645L19.3284 15.6716C20.0786 16.4217 20.5 17.4391 20.5 18.5H21.5H22.5C22.5 16.9087 21.8679 15.3826 20.7426 14.2574L20.0355 14.9645ZM21.5 18.5H20.5C20.5 18.8978 20.342 19.2794 20.0607 19.5607L20.7678 20.2678L21.4749 20.9749C22.1313 20.3185 22.5 19.4283 22.5 18.5H21.5ZM20.7678 20.2678L20.0607 19.5607C19.7794 19.842 19.3978 20 19 20V21V22C19.9283 22 20.8185 21.6313 21.4749 20.9749L20.7678 20.2678ZM19 21V20H4V21V22H19V21ZM4 21V20C3.60218 20 3.22064 19.842 2.93934 19.5607L2.23223 20.2678L1.52513 20.9749C2.1815 21.6313 3.07174 22 4 22V21ZM2.23223 20.2678L2.93934 19.5607C2.65804 19.2794 2.5 18.8978 2.5 18.5H1.5H0.5C0.5 19.4283 0.868749 20.3185 1.52513 20.9749L2.23223 20.2678ZM15.25 4.75H14.25C14.25 6.26878 13.0188 7.5 11.5 7.5V8.5V9.5C14.1234 9.5 16.25 7.37335 16.25 4.75H15.25ZM11.5 8.5V7.5C9.98122 7.5 8.75 6.26878 8.75 4.75H7.75H6.75C6.75 7.37335 8.87665 9.5 11.5 9.5V8.5ZM7.75 4.75H8.75C8.75 3.23122 9.98122 2 11.5 2V1V0C8.87665 0 6.75 2.12665 6.75 4.75H7.75ZM11.5 1V2C13.0188 2 14.25 3.23122 14.25 4.75H15.25H16.25C16.25 2.12665 14.1234 0 11.5 0V1Z" fill="black"/>
</svg>
