<svg width="200" height="24" viewBox="0 0 200 24" fill="none" xmlns="http://www.w3.org/2000/svg">
<path d="M10.5991 0.5L0 23.5H4.50368L6.83572 18.1731H18.6193L20.9637 23.5H25.5414L14.9053 0.5H10.5991ZM8.31638 14.8244L12.7213 4.7544L17.151 14.8124H8.30404L8.31638 14.8244Z" fill="#AAAAAA"/>
<path d="M24.924 4.11088H32.8332V23.5H37.2629V4.11088H45.1721V0.5H24.924V4.11088Z" fill="#AAAAAA"/>
<path d="M97.7977 0.5L88.8273 15.742L79.7213 0.5H76.2047V23.5H80.2765V8.46062L87.8279 20.8663H89.7281L97.2794 8.25803L97.3041 23.5H101.339L101.314 0.5H97.7977Z" fill="#AAAAAA"/>
<path d="M123.71 1.94197C121.748 0.976684 119.477 0.5 116.886 0.5H107.731V23.5H116.886C119.477 23.5 121.748 23.0233 123.71 22.058C125.659 21.0927 127.189 19.758 128.275 18.0301C129.361 16.314 129.916 14.3 129.916 12C129.916 9.7 129.373 7.66218 128.275 5.95803C127.189 4.25389 125.659 2.91917 123.71 1.95389V1.94197ZM124.376 16.1352C123.66 17.315 122.649 18.2326 121.341 18.8881C120.033 19.5435 118.478 19.8772 116.689 19.8772H112.173V4.11088H116.689C118.49 4.11088 120.033 4.44456 121.341 5.1C122.649 5.75544 123.66 6.67306 124.376 7.84093C125.092 9.00881 125.449 10.4031 125.449 12C125.449 13.5969 125.092 14.9554 124.376 16.1352Z" fill="#AAAAAA"/>
<path d="M141.97 0.5L131.371 23.5H135.875L138.207 18.1731H149.978L152.323 23.5H156.901L146.277 0.5H141.97ZM139.688 14.8244L144.093 4.76632L148.522 14.8244H139.688Z" fill="#AAAAAA"/>
<path d="M175.989 0.5H155.729V4.11088H163.638V23.5H168.08V4.11088H175.989V0.5Z" fill="#AAAAAA"/>
<path d="M200 23.5L189.364 0.5H185.058L174.459 23.5H178.962L181.294 18.1731H193.066L195.41 23.5H200ZM182.775 14.8244L187.18 4.76632L191.61 14.8244H182.775Z" fill="#AAAAAA"/>
<path d="M61.2499 0.547668L60.9538 0.5V4.28964L61.1636 4.32539C64.9269 5.06425 67.6661 8.29378 67.6661 12C67.6661 15.7062 64.9269 18.9358 61.1636 19.6746L60.9538 19.7104V23.4881L61.2499 23.4523C67.1232 22.642 71.5406 17.7202 71.5406 12C71.5406 6.27979 67.1232 1.35803 61.2499 0.547668Z" fill="#AAAAAA"/>
<path d="M47.5168 12C47.5168 17.7202 51.9465 22.642 57.8074 23.4523L58.1035 23.4881V19.7104L57.8938 19.6746C54.1304 18.9358 51.3912 15.7062 51.3912 12C51.3912 8.29378 54.1304 5.06425 57.8938 4.32539L58.1035 4.28964V0.5L57.8074 0.547668C51.9341 1.35803 47.5168 6.29171 47.5168 12Z" fill="#AAAAAA"/>
<path d="M59.5345 6.88733C56.6102 6.88733 54.2412 9.17541 54.2412 11.9878C54.2412 14.8003 56.6226 17.0884 59.5345 17.0884C62.4465 17.0884 64.8279 14.8003 64.8279 11.9878C64.8279 9.17541 62.4465 6.88733 59.5345 6.88733Z" fill="#AAAAAA"/>
</svg>
