<svg width="200" height="70" viewBox="0 0 200 70" fill="none" xmlns="http://www.w3.org/2000/svg">
    <path d="M71.9036 45.7662H81.2329V48.7855H76.7949V70H71.9036V45.7662Z" fill="#AAAAAA" />
    <path
        d="M86.764 60.9024L87.6023 48.7855H87.883L88.7213 60.9024H86.764ZM81.3473 70H86.1363L86.5895 63.5641H88.8958L89.351 70H94.1381L91.5871 45.7662H83.8982L81.3473 70Z"
        fill="#AAAAAA" />
    <path
        d="M101.143 61.5182V66.0868C101.143 66.7026 101.624 66.8814 101.905 66.8814C102.366 66.8814 102.687 66.504 102.687 66.0868V60.4455C102.687 59.6907 102.547 58.8564 100.722 58.8564H98.7366V56.1947H100.802C102.186 56.1947 102.687 55.8768 102.687 54.3871V49.58C102.687 49.1629 102.366 48.7855 101.905 48.7855C101.624 48.7855 101.143 48.9444 101.143 49.58V53.5329H96.2498V50.0965C96.2498 48.4081 96.4503 45.7662 99.8797 45.7662H103.931C107.36 45.7662 107.581 48.4081 107.581 50.0965V53.9699C107.581 56.6118 105.716 57.3269 104.252 57.2673V57.5057C107.541 57.4262 107.581 59.9291 107.581 60.7832V65.6697C107.581 67.378 107.36 70 103.931 70H99.8797C96.4503 70 96.2498 67.378 96.2498 65.6697V61.5182H101.143Z"
        fill="#AAAAAA" />
    <path d="M110.789 45.7662H122.12V70H117.227V48.7855H115.683V70H110.789V45.7662Z" fill="#AAAAAA" />
    <path
        d="M130.222 59.0948V48.7855H130.864C131.385 48.7855 131.766 49.2225 131.766 49.9972V57.8831C131.766 58.6578 131.385 59.0948 130.864 59.0948H130.222ZM125.329 70H130.222V61.7565H133.03C136.439 61.7565 136.66 59.1345 136.66 57.4262V50.0965C136.66 48.4081 136.439 45.7662 133.03 45.7662H125.329V70Z"
        fill="#AAAAAA" />
    <path
        d="M146.306 66.0868C146.306 66.504 145.985 66.8814 145.524 66.8814C145.243 66.8814 144.762 66.7026 144.762 66.0868V49.58C144.762 48.9444 145.243 48.7855 145.524 48.7855C145.985 48.7855 146.306 49.1629 146.306 49.58V66.0868ZM139.868 65.6697C139.868 67.378 140.089 70 143.498 70H147.569C150.979 70 151.199 67.378 151.199 65.6697V50.0965C151.199 48.4081 150.979 45.7662 147.569 45.7662H143.498C140.089 45.7662 139.868 48.4081 139.868 50.0965V65.6697Z"
        fill="#AAAAAA" />
    <path
        d="M167.123 45.7662H173.5V70H168.607V54.8042H168.426L165.899 70H161.989L159.482 54.8042H159.301V70H154.408V45.7662H160.765L163.954 62.8093L167.123 45.7662Z"
        fill="#AAAAAA" />
    <path
        d="M65.5623 12.6334C64.0642 6.13791 60.31 0.854144 59.7926 0C58.9744 1.21169 55.9802 5.87968 54.4581 11.0443C52.7956 16.8246 52.5509 21.9495 53.1244 26.975C53.694 32.0204 55.8458 37.2049 55.8458 37.2049C56.989 39.9063 58.7016 42.8263 59.8167 44.2565C61.4511 42.151 65.2073 35.874 66.3785 27.6901C67.0303 23.1215 67.0584 19.1288 65.5623 12.6334ZM59.7926 42.6277C59.0566 41.2571 57.9135 38.6549 57.8052 34.6027C57.7771 30.7094 59.3554 27.3524 59.8167 26.6572C60.2278 27.3524 61.5875 30.2724 61.7499 34.265C61.8602 38.1583 60.5527 41.2372 59.7926 42.6277ZM65.1271 23.6578C65.071 26.1407 64.7721 28.7628 64.3911 30.332C64.5275 27.6305 64.2006 23.8365 63.5749 20.857C62.9492 17.8973 61.1784 12.9313 59.7645 10.647C58.459 12.832 56.8506 17.1226 56.0083 20.8371C55.162 24.5516 55.1379 29.0607 55.1379 30.4115C54.9133 29.2792 54.3518 25.2071 54.5102 21.1351C54.6426 17.7781 55.4367 14.3019 55.8719 12.7128C57.5324 7.4092 59.4116 4.01248 59.7645 3.47615C60.1175 4.01248 62.4839 8.20374 63.7113 12.5936C64.9326 16.9835 65.1793 21.1947 65.1271 23.6578Z"
        fill="#AAAAAA" />
    <path
        d="M50.9445 45.7662V53.3343C50.9545 53.3343 50.9626 53.3144 50.9726 53.3144C53.6559 50.6527 58.0077 50.6527 60.693 53.3144C63.3763 55.9563 63.3763 60.2667 60.693 62.9285C60.681 62.9484 60.669 62.9483 60.6569 62.9682C60.6429 62.9682 60.6289 62.9881 60.6168 63.0079C57.9396 65.63 54.442 66.941 50.9445 66.941C47.431 66.941 43.9174 65.63 41.2381 62.9682C36.5132 58.3002 35.9537 51.0499 39.5555 45.7662C40.0408 45.0511 40.6004 44.3757 41.2381 43.7401C43.9174 41.0783 47.431 39.7673 50.9445 39.7673V21.5721C37.4438 21.5721 26.5 32.3978 26.5 45.7662C26.5 59.1345 37.4438 69.9801 50.9445 69.9801C57.9837 69.9801 64.3249 67.0204 68.7851 62.3127V45.7662H50.9445Z"
        fill="#AAAAAA" />
</svg>