<svg width="200" height="40" viewBox="0 0 200 40" fill="none" xmlns="http://www.w3.org/2000/svg">
<path d="M192.067 16.6206C190.813 14.4197 189.069 12.5344 186.97 11.1094C184.871 9.68431 182.472 8.75746 179.957 8.39996C177.442 8.04246 174.879 8.26383 172.463 9.04708C170.048 9.83032 167.844 11.1546 166.023 12.9182L165.906 13.0319C164.884 2.75158 158.074 1.03346 152.959 1.56827C149.754 1.95859 146.757 3.35378 144.401 5.55225L144.738 11.8848C146.38 10.0555 149.175 8.60096 151.792 8.28058C154.028 8.00413 156.904 8.32192 158.325 10.3992C159.521 12.1457 160.05 15.0291 157.83 18.5299C155.397 22.3666 151.162 25.1053 143.594 28.1979V36.171H163.564C163.279 35.7912 163.069 35.4709 162.895 35.1944C162.846 35.1195 162.796 35.0394 162.744 34.9567C161.772 33.4202 161.058 31.7359 160.631 29.9703H153.493C158.463 26.8699 160.211 24.3999 160.211 24.3999C160.47 21.1523 161.642 18.3568 162.967 16.9306C161.1 20.3642 160.511 24.3446 161.303 28.169C162.096 31.9934 164.219 35.416 167.299 37.8323L171.334 32.74C171.189 32.6263 171.046 32.51 170.906 32.3886C169.361 31.0335 168.267 29.2417 167.77 27.2517C167.273 25.2617 167.397 23.1681 168.124 21.2498C168.852 19.3315 170.149 17.6796 171.843 16.5143C173.537 15.3489 175.547 14.7254 177.605 14.7268C178.289 14.7256 178.971 14.7949 179.641 14.9335H179.677C181.404 15.2973 183.005 16.1029 184.324 17.2708C185.643 18.4388 186.634 19.9288 187.199 21.5941L193.374 19.5272C193.035 18.5177 192.598 17.544 192.067 16.6206Z" fill="#AAAAAA"/>
<path d="M177.605 25.113C176.774 25.113 176.143 25.3481 175.715 25.8184C175.287 26.286 175.074 26.9629 175.074 27.8414V33.4815C175.074 34.3599 175.287 35.0316 175.715 35.507C176.142 35.9824 176.773 36.2098 177.605 36.2098C178.438 36.2098 179.068 35.9747 179.496 35.507C179.924 35.0394 180.136 34.3599 180.136 33.4815V32.0372H178.531V33.5874C178.562 33.8817 178.476 34.1764 178.292 34.409C178.112 34.5577 177.886 34.6391 177.652 34.6391C177.418 34.6391 177.191 34.5577 177.011 34.409C176.826 34.177 176.741 33.8819 176.773 33.5874V27.7328C176.742 27.4353 176.828 27.1374 177.011 26.9009C177.189 26.7478 177.417 26.6636 177.652 26.6636C177.887 26.6636 178.114 26.7478 178.292 26.9009C178.475 27.1379 178.561 27.4354 178.531 27.7328V28.8955H180.136V27.8414C180.136 26.9629 179.921 26.2912 179.496 25.8184C179.07 25.3456 178.433 25.113 177.605 25.113Z" fill="#AAAAAA"/>
<path d="M191.268 29.8876H189.338V25.237H187.642V36.0858H189.338V31.4378H191.268V36.0858H192.995V25.237H191.268V29.8876Z" fill="#AAAAAA"/>
<path d="M195.511 25.237V36.0858H197.207V26.7872H200V25.237H195.511Z" fill="#AAAAAA"/>
<path d="M180.951 26.7872H182.725V36.0884H184.423V26.7872H186.197V25.2396H180.951V26.7872Z" fill="#AAAAAA"/>
<path d="M3.07857 19.4781H0.645876V4.05891H7.08034V6.26017H3.07857V19.4781Z" fill="#AAAAAA"/>
<path d="M17.3765 19.4781H14.9101L14.4899 16.6826H11.5048L11.0847 19.4781H8.85169L11.3259 4.05891H14.8868L17.3765 19.4781ZM11.8135 14.5898H14.1476L12.9857 6.78982L11.8135 14.5898Z" fill="#AAAAAA"/>
<path d="M24.838 7.84653C24.838 7.15756 24.7239 6.69164 24.4956 6.44878C24.3774 6.32651 24.2344 6.23077 24.0761 6.16795C23.9177 6.10513 23.7478 6.07667 23.5776 6.08448C23.4093 6.0762 23.2411 6.10217 23.0832 6.16081C22.9254 6.21944 22.7812 6.30952 22.6595 6.42553C22.4312 6.65547 22.3171 7.04818 22.3171 7.60625V9.2572H20.0167V7.75094C20.0167 6.50217 20.3227 5.54364 20.9348 4.87534C21.5468 4.20704 22.4502 3.87375 23.645 3.87547C24.838 3.87547 25.7405 4.20876 26.3526 4.87534C26.9647 5.54192 27.2707 6.50045 27.2707 7.75094V8.14882C27.2707 9.79546 26.7036 10.8522 25.5694 11.319C26.1467 11.5478 26.6163 11.9851 26.8843 12.5436C27.1585 13.1794 27.2904 13.8671 27.2707 14.5588V15.7706C27.2707 17.0193 26.9647 17.9779 26.3526 18.6462C25.7405 19.3145 24.838 19.6503 23.645 19.6538C22.4485 19.6538 21.5451 19.3205 20.9348 18.6539C20.3244 17.9873 20.0184 17.0288 20.0167 15.7783V13.8406H22.3171V15.9333C22.3171 16.4914 22.4312 16.8841 22.6595 17.1115C22.7812 17.2275 22.9254 17.3176 23.0832 17.3762C23.2411 17.4348 23.4093 17.4608 23.5776 17.4525C23.7466 17.4602 23.9155 17.433 24.0735 17.3725C24.2315 17.312 24.3752 17.2196 24.4956 17.1011C24.7239 16.8669 24.838 16.4036 24.838 15.7111V14.4994C24.838 13.7812 24.7126 13.2748 24.4619 12.9802C24.2026 12.6857 23.8058 12.541 23.2456 12.541H22.8695V10.3346H23.3882C23.7783 10.3567 24.1622 10.2302 24.4619 9.98062C24.7213 9.74551 24.8484 9.32179 24.8484 8.7043L24.838 7.84653Z" fill="#AAAAAA"/>
<path d="M37.6187 13.7295V15.7783C37.6187 17.0271 37.3136 17.9856 36.7032 18.6539C36.0929 19.3222 35.1895 19.6555 33.993 19.6538C32.8 19.6538 31.8966 19.3205 31.2828 18.6539C30.669 17.9873 30.3639 17.0288 30.3673 15.7783V7.75094C30.3673 6.50217 30.6725 5.54364 31.2828 4.87534C31.8932 4.20704 32.7966 3.87375 33.993 3.87547C35.186 3.87547 36.0894 4.20876 36.7032 4.87534C37.317 5.54192 37.6222 6.50045 37.6187 7.75094V9.24945H35.3209V7.60625C35.3209 7.04818 35.2068 6.65547 34.9786 6.42553C34.7236 6.20572 34.3977 6.08475 34.0605 6.08475C33.7233 6.08475 33.3973 6.20572 33.1424 6.42553C32.9141 6.65547 32.8 7.04818 32.8 7.60625V15.9333C32.8 16.4914 32.9141 16.879 33.1424 17.1011C33.401 17.3132 33.7255 17.4292 34.0605 17.4292C34.3954 17.4292 34.7199 17.3132 34.9786 17.1011C35.2068 16.879 35.3209 16.4914 35.3209 15.9333V13.7295H37.6187Z" fill="#AAAAAA"/>
<path d="M40.2745 4.05891H47.7956V6.26017H45.2514V19.4781H42.8187V6.26017H40.2771L40.2745 4.05891Z" fill="#AAAAAA"/>
<path d="M54.2482 4.05891C55.4723 4.05891 56.3835 4.38186 56.9818 5.02777C57.58 5.67368 57.8782 6.62102 57.8765 7.86978V9.87469C57.8765 11.1217 57.5783 12.0691 56.9818 12.7167C56.3853 13.3643 55.4741 13.6899 54.2482 13.6933H53.0993V19.4781H50.6666V4.05891H54.2482ZM53.0993 6.26017V11.4817H54.2482C54.4088 11.4923 54.5699 11.4705 54.7218 11.4177C54.8738 11.3648 55.0135 11.2821 55.1326 11.1743C55.3401 10.9676 55.4438 10.5852 55.4438 10.0271V7.70185C55.4438 7.14378 55.3401 6.76398 55.1326 6.55729C55.0139 6.44867 54.8744 6.36518 54.7223 6.31189C54.5703 6.25859 54.409 6.23661 54.2482 6.24725L53.0993 6.26017Z" fill="#AAAAAA"/>
<path d="M60.5297 7.75094C60.5297 6.50217 60.8461 5.54364 61.4789 4.87534C62.1117 4.20704 63.0263 3.87375 64.2228 3.87547C65.4158 3.87547 66.3296 4.20876 66.9641 4.87534C67.5987 5.54192 67.9151 6.50045 67.9133 7.75094V15.7602C67.9133 17.009 67.5969 17.9675 66.9641 18.6358C66.3313 19.3041 65.4175 19.6374 64.2228 19.6357C63.0281 19.6357 62.1134 19.3024 61.4789 18.6358C60.8443 17.9693 60.5279 17.0107 60.5297 15.7602V7.75094ZM62.9624 15.9256C62.9624 16.4837 63.0765 16.8764 63.3047 17.1037C63.5597 17.3235 63.8856 17.4445 64.2228 17.4445C64.56 17.4445 64.8859 17.3235 65.1409 17.1037C65.3665 16.8764 65.4832 16.4837 65.4832 15.9256V7.60625C65.4832 7.04818 65.3665 6.65547 65.1409 6.42553C64.8859 6.20572 64.56 6.08475 64.2228 6.08475C63.8856 6.08475 63.5597 6.20572 63.3047 6.42553C63.0765 6.65547 62.9624 7.04818 62.9624 7.60625V15.9256Z" fill="#AAAAAA"/>
<path d="M73.7305 19.4781H71.2304V4.05891H73.396V13.2877L75.8961 4.05891H78.9461V19.4781H76.7675V8.309L73.7305 19.4781ZM77.8049 1.39258V3.20114H72.4468V1.39258H77.8049Z" fill="#AAAAAA"/>
<path d="M84.9189 19.4781H82.4862V4.05891H90.1603V19.4781H87.6835V6.26017H84.9189V19.4781Z" fill="#AAAAAA"/>
<path d="M97.2795 4.05891C98.5036 4.05891 99.4139 4.38186 100.01 5.02777C100.607 5.67368 100.906 6.62102 100.908 7.86978V9.87469C100.908 11.1217 100.609 12.0691 100.01 12.7167C99.4122 13.3643 98.5019 13.6899 97.2795 13.6933H96.1306V19.4781H93.6979V4.05891H97.2795ZM96.1306 6.26017V11.4817H97.2795C97.4401 11.4923 97.6011 11.4705 97.7531 11.4177C97.905 11.3648 98.0447 11.2821 98.1639 11.1743C98.3713 10.9676 98.4751 10.5852 98.4751 10.0271V7.70185C98.4751 7.14378 98.3713 6.76398 98.1639 6.55729C98.0452 6.44867 97.9056 6.36518 97.7536 6.31189C97.6016 6.25859 97.4403 6.23661 97.2795 6.24725L96.1306 6.26017Z" fill="#AAAAAA"/>
<path d="M103.561 7.75094C103.561 6.50217 103.877 5.54364 104.51 4.87534C105.143 4.20704 106.057 3.87375 107.251 3.87547C108.446 3.87547 109.361 4.20876 109.995 4.87534C110.63 5.54192 110.946 6.50045 110.945 7.75094V15.7602C110.945 17.009 110.628 17.9675 109.995 18.6358C109.363 19.3041 108.448 19.6374 107.251 19.6357C106.058 19.6357 105.145 19.3024 104.51 18.6358C103.876 17.9693 103.559 17.0107 103.561 15.7602V7.75094ZM105.994 15.9256C105.994 16.4837 106.108 16.8764 106.336 17.1037C106.59 17.3238 106.916 17.4451 107.253 17.4451C107.59 17.4451 107.915 17.3238 108.17 17.1037C108.398 16.8764 108.512 16.4837 108.512 15.9256V7.60625C108.512 7.04818 108.398 6.65547 108.17 6.42553C107.915 6.20541 107.59 6.0842 107.253 6.0842C106.916 6.0842 106.59 6.20541 106.336 6.42553C106.108 6.65547 105.994 7.04818 105.994 7.60625V15.9256Z" fill="#AAAAAA"/>
<path d="M119.438 15.0084L121.096 4.05891H124.467V19.4781H122.18V8.4201L120.499 19.4781H118.199L116.383 8.57512V19.4781H114.259V4.05891H117.644L119.438 15.0084Z" fill="#AAAAAA"/>
<path d="M4.92773 32.4377V33.8458C4.92773 34.6966 4.71939 35.3486 4.3027 35.8016C3.88601 36.2546 3.27136 36.4819 2.45873 36.4837C1.64783 36.4837 1.03404 36.2563 0.617347 35.8016C0.200659 35.3469 -0.00509133 34.6949 9.56617e-05 33.8458V28.3762C9.56617e-05 27.527 0.20844 26.8751 0.625128 26.4204C1.04182 25.9656 1.65561 25.7383 2.46651 25.7383C3.28087 25.7383 3.89552 25.9656 4.31048 26.4204C4.72544 26.8751 4.93119 27.527 4.92773 28.3762V29.4096H3.37164V28.2857C3.40106 27.9979 3.3174 27.7099 3.13822 27.4822C3.05523 27.4034 2.95706 27.3421 2.84963 27.3022C2.74219 27.2622 2.62774 27.2444 2.51319 27.2497C2.39861 27.2441 2.28407 27.2618 2.1766 27.3017C2.06912 27.3417 1.97097 27.4031 1.88816 27.4822C1.70899 27.7099 1.62533 27.9979 1.65475 28.2857V33.9517C1.62418 34.2364 1.70811 34.5216 1.88816 34.7449C1.9722 34.8217 2.07073 34.8812 2.17803 34.9197C2.28533 34.9583 2.39926 34.9753 2.51319 34.9696C2.62711 34.9751 2.741 34.9581 2.84828 34.9195C2.95556 34.881 3.0541 34.8216 3.13822 34.7449C3.31828 34.5216 3.40221 34.2364 3.37164 33.9517V32.4506L4.92773 32.4377Z" fill="#AAAAAA"/>
<path d="M6.60573 25.8571H11.7201V27.3582H9.99024V36.3519H8.33559V27.3582H6.60573V25.8571Z" fill="#AAAAAA"/>
<path d="M15.9786 25.8571C16.8111 25.8571 17.431 26.0793 17.8381 26.5185C18.2453 26.9578 18.4476 27.6011 18.4476 28.4511V29.8153C18.4476 30.6653 18.2427 31.3086 17.8381 31.7504C17.4336 32.1922 16.8008 32.4092 15.9786 32.4092H15.2006V36.3519H13.5407V25.8571H15.9786ZM15.2006 27.3582V30.9107H15.9786C16.0881 30.9182 16.198 30.9033 16.3015 30.8668C16.4049 30.8304 16.4998 30.7732 16.5803 30.6989C16.747 30.4766 16.8229 30.1996 16.793 29.9238V28.3503C16.8222 28.0746 16.7462 27.7979 16.5803 27.5752C16.4994 27.5017 16.4043 27.4453 16.3009 27.4093C16.1975 27.3734 16.0879 27.3586 15.9786 27.366L15.2006 27.3582Z" fill="#AAAAAA"/>
<path d="M20.1178 28.3762C20.1178 27.527 20.3331 26.8751 20.7636 26.4204C21.1941 25.9656 21.8166 25.7383 22.6309 25.7383C23.4418 25.7383 24.0634 25.9656 24.4956 26.4204C24.9279 26.8751 25.1432 27.527 25.1414 28.3762V33.8458C25.1414 34.6966 24.9262 35.3486 24.4956 35.8016C24.0651 36.2546 23.4436 36.4819 22.6309 36.4837C21.8166 36.4837 21.1941 36.2563 20.7636 35.8016C20.3331 35.3469 20.1178 34.6949 20.1178 33.8458V28.3762ZM21.7854 33.9388C21.7559 34.2258 21.8396 34.513 22.0189 34.7397C22.1917 34.8898 22.4133 34.9725 22.6426 34.9725C22.8719 34.9725 23.0935 34.8898 23.2663 34.7397C23.4456 34.513 23.5293 34.2258 23.4997 33.9388V28.2728C23.5292 27.985 23.4455 27.697 23.2663 27.4693C23.0935 27.3192 22.8719 27.2365 22.6426 27.2365C22.4133 27.2365 22.1917 27.3192 22.0189 27.4693C21.8397 27.697 21.756 27.985 21.7854 28.2728V33.9388Z" fill="#AAAAAA"/>
<path d="M28.9642 36.3519H27.2629V25.8571H28.7386V32.138L30.4399 25.8571H32.5147V36.3519H31.0261V28.7508L28.9642 36.3519ZM31.7341 24.0434V25.2732H28.1032V24.0434H31.7341Z" fill="#AAAAAA"/>
<path d="M34.3354 25.8571H39.4523V27.3582H37.7225V36.3519H36.0652V27.3582H34.3354V25.8571Z" fill="#AAAAAA"/>
<path d="M43.7108 25.8571C44.5434 25.8571 45.1606 26.0793 45.5678 26.5185C45.975 26.9578 46.1773 27.6011 46.1773 28.4511V29.8153C46.1773 30.6653 45.975 31.3086 45.5678 31.7504C45.1606 32.1922 44.5434 32.4092 43.7108 32.4092H42.9328V36.3519H41.2782V25.8571H43.7108ZM42.9328 27.3582V30.9107H43.7108C43.8203 30.9177 43.9301 30.9026 44.0335 30.8662C44.1369 30.8298 44.2318 30.7729 44.3125 30.6989C44.478 30.4761 44.5531 30.1993 44.5226 29.9238V28.3503C44.5525 28.0749 44.4776 27.7983 44.3125 27.5752C44.2313 27.5022 44.1362 27.4461 44.0329 27.4102C43.9296 27.3742 43.8201 27.3592 43.7108 27.366L42.9328 27.3582Z" fill="#AAAAAA"/>
<path d="M53.3405 36.3519H51.6703L51.3824 34.4477H49.3517L49.0664 36.3519H47.5466L49.2324 25.8571H51.6547L53.3405 36.3519ZM49.5618 33.0242H51.1568L50.3606 27.7173L49.5618 33.0242Z" fill="#AAAAAA"/>
<path d="M56.8158 36.3519H55.1611V25.8571H56.8158V30.3552H58.6961V25.8571H60.3818V36.3519H58.6961V31.8538H56.8158V36.3519Z" fill="#AAAAAA"/>
<path d="M67.4309 32.4377V33.8458C67.4309 34.6958 67.2209 35.3469 66.8059 35.8016C66.391 36.2563 65.7685 36.4837 64.9619 36.4837C64.1554 36.4837 63.5355 36.2563 63.1206 35.8016C62.7056 35.3469 62.5033 34.6829 62.5033 33.8458V28.3762C62.5033 27.527 62.7117 26.8751 63.1283 26.4204C63.545 25.9656 64.1588 25.7383 64.9697 25.7383C65.7841 25.7383 66.3961 25.9656 66.8137 26.4204C67.2312 26.8751 67.4387 27.5262 67.4387 28.3762V29.4096H65.8826V28.2857C65.912 27.9979 65.8284 27.7099 65.6492 27.4822C65.4764 27.3321 65.2548 27.2494 65.0255 27.2494C64.7962 27.2494 64.5746 27.3321 64.4017 27.4822C64.2226 27.7099 64.1389 27.9979 64.1683 28.2857V33.9517C64.1378 34.2364 64.2217 34.5216 64.4017 34.7449C64.5769 34.8901 64.7976 34.9696 65.0255 34.9696C65.2534 34.9696 65.4741 34.8901 65.6492 34.7449C65.8293 34.5216 65.9132 34.2364 65.8826 33.9517V32.4506L67.4309 32.4377Z" fill="#AAAAAA"/>
<path d="M71.2149 36.3519H69.5602V25.8571H71.2149V30.3552H73.0951V25.8571H74.7809V36.3519H73.0951V31.8538H71.2149V36.3519Z" fill="#AAAAAA"/>
<path d="M78.7075 30.2803H80.9794V31.7788H78.7075V34.8534H81.5603V36.3519H77.0528V25.8571H81.5655V27.3582H78.7126L78.7075 30.2803Z" fill="#AAAAAA"/>
<path d="M86.4854 34.5072H85.7073C84.8757 34.5072 84.2558 34.2876 83.8478 33.8483C83.4432 33.4091 83.2383 32.7632 83.2383 31.9132V29.0505C83.2383 28.2005 83.4432 27.5572 83.8478 27.1179C84.2523 26.6787 84.8852 26.4591 85.7073 26.4591H86.4854V25.8571H88.1426V26.4591H88.9206C89.7523 26.4591 90.3721 26.6787 90.7802 27.1179C91.1848 27.5572 91.3896 28.2005 91.3896 29.0505V31.9132C91.3896 32.7632 91.1848 33.4091 90.7802 33.8483C90.3756 34.2876 89.7428 34.5072 88.9206 34.5072H88.1426V36.3519H86.4854V34.5072ZM85.7073 27.9576C85.598 27.9503 85.4884 27.965 85.385 28.001C85.2816 28.0369 85.1865 28.0934 85.1056 28.1669C84.9385 28.389 84.8625 28.6661 84.8929 28.942V32.014C84.8625 32.2898 84.9385 32.567 85.1056 32.789C85.1865 32.8626 85.2816 32.919 85.385 32.955C85.4884 32.9909 85.598 33.0057 85.7073 32.9983H86.4854V27.9576H85.7073ZM88.1452 27.9576V33.0087H88.9232C89.0325 33.016 89.1422 33.0013 89.2456 32.9653C89.349 32.9293 89.444 32.8729 89.5249 32.7994C89.6909 32.5767 89.7668 32.3001 89.7376 32.0243V28.9368C89.7668 28.661 89.6909 28.3844 89.5249 28.1617C89.444 28.0882 89.349 28.0318 89.2456 27.9958C89.1422 27.9598 89.0325 27.9451 88.9232 27.9525L88.1452 27.9576Z" fill="#AAAAAA"/>
<path d="M92.8472 25.8571H97.9616V27.3582H96.2187V36.3519H94.5641V27.3582H92.8472V25.8571Z" fill="#AAAAAA"/>
<path d="M101.426 30.2803H103.698V31.7788H101.426V34.8534H104.279V36.3519H99.7718V25.8571H104.287V27.3582H101.434L101.426 30.2803Z" fill="#AAAAAA"/>
<path d="M107.988 36.3519H106.333V25.8571H110.711V27.3582H107.988V36.3519Z" fill="#AAAAAA"/>
<path d="M117.874 36.3519H116.204L115.929 34.4477H113.899L113.595 36.3519H112.075L113.761 25.8571H116.189L117.874 36.3519ZM114.096 33.0242H115.691L114.892 27.7173L114.096 33.0242Z" fill="#AAAAAA"/>
<path d="M122.823 28.4356C122.823 27.968 122.745 27.6605 122.589 27.4848C122.51 27.3998 122.414 27.3328 122.306 27.2882C122.199 27.2436 122.083 27.2226 121.967 27.2265C121.852 27.2208 121.738 27.2385 121.63 27.2785C121.523 27.3185 121.425 27.3799 121.342 27.459C121.163 27.6867 121.079 27.9747 121.108 28.2625V29.3864H119.552V28.3529C119.552 27.5029 119.762 26.8518 120.177 26.3971C120.592 25.9424 121.215 25.715 122.021 25.715C122.828 25.715 123.448 25.9424 123.865 26.3971C124.283 26.8518 124.488 27.5029 124.488 28.3529V28.6113C124.488 29.7309 124.102 30.45 123.331 30.7686C123.724 30.9236 124.044 31.2208 124.226 31.6006C124.412 32.0334 124.501 32.5018 124.485 32.9725V33.8458C124.485 34.6966 124.278 35.3486 123.863 35.8016C123.448 36.2546 122.833 36.4819 122.019 36.4837C121.208 36.4837 120.593 36.2563 120.175 35.8016C119.76 35.3469 119.55 34.6958 119.55 33.8458V32.5255H121.106V33.9517C121.076 34.2387 121.16 34.526 121.339 34.7526C121.422 34.8317 121.52 34.8931 121.628 34.9331C121.735 34.9731 121.85 34.9908 121.964 34.9851C122.079 34.9904 122.194 34.9717 122.301 34.9303C122.408 34.8889 122.505 34.8258 122.587 34.7449C122.742 34.5847 122.82 34.2695 122.82 33.8018V32.9776C122.852 32.614 122.761 32.2502 122.561 31.9442C122.453 31.8369 122.324 31.7544 122.181 31.7026C122.038 31.6508 121.885 31.631 121.734 31.6445H121.474V30.146H121.819C122.085 30.1623 122.347 30.0763 122.55 29.9057C122.65 29.7858 122.724 29.6471 122.769 29.498C122.813 29.3488 122.827 29.1922 122.81 29.0376L122.823 28.4356Z" fill="#AAAAAA"/>
<path d="M135.145 0H134.32V40H135.145V0Z" fill="#AAAAAA"/>
</svg>
