<svg width="200" height="70" viewBox="0 0 200 70" fill="none" xmlns="http://www.w3.org/2000/svg">
<path d="M40.8522 40.0075C39.8744 41.0832 38.5985 41.8459 37.1858 42.1991C35.7732 42.5524 34.2871 42.4804 32.9155 41.9923C31.5439 41.5041 30.3483 40.6217 29.4797 39.4566C28.6111 38.2915 28.1086 36.8959 28.0356 35.4462C27.9627 33.9965 28.3226 32.5579 29.0698 31.312C29.817 30.066 30.9181 29.0689 32.2338 28.4464C33.5495 27.8239 35.0208 27.6041 36.4619 27.8147C37.9029 28.0253 39.249 28.6569 40.3299 29.6297C41.0499 30.2757 41.6348 31.0571 42.0509 31.929C42.467 32.8009 42.7062 33.7462 42.7547 34.7105C42.8033 35.6748 42.6602 36.6391 42.3337 37.5481C42.0072 38.4571 41.5037 39.2929 40.8522 40.0075Z" fill="#AAAAAA"/>
<path d="M37.3159 9.92605C37.9252 10.5333 38.5019 11.1514 39.0133 11.7695C40.7928 13.8852 42.2585 16.2443 43.3658 18.7748C45.1122 19.0994 46.8902 19.2231 48.6649 19.1435H49.2634C54.1115 18.702 58.6364 16.53 62.0052 13.0275L62.4513 12.572C61.7767 11.7695 61.0912 10.9888 60.3404 10.2405C54.3475 4.28918 46.4059 0.685588 37.967 0.0882715C29.528 -0.509045 21.1551 1.9398 14.3784 6.9873C25.1507 1.76046 32.6261 5.36069 37.3159 9.92605Z" fill="#AAAAAA"/>
<path d="M12.3762 45.5597C12.5939 44.7247 12.8441 43.9222 13.1162 43.174C14.0703 40.5829 15.3892 38.1403 17.0334 35.9193C16.4448 34.2513 15.6634 32.6574 14.7048 31.1696L14.5307 30.8985L14.3675 30.6708C11.5756 26.7457 7.46397 23.9485 2.77907 22.7871L2.15884 22.6028C1.79976 23.5787 1.47333 24.5655 1.19042 25.5849C-0.98976 33.7301 -0.1568 42.3851 3.53713 49.9687C7.23106 57.5524 13.5394 63.5586 21.3097 66.8899C11.3534 60.1666 10.7332 51.8818 12.3762 45.5597Z" fill="#AAAAAA"/>
<path d="M55.9117 49.3226C55.0739 49.5503 54.2469 49.7346 53.4526 49.8756C50.7251 50.3462 47.9441 50.4266 45.1938 50.1142C44.0429 51.4416 43.0498 52.8971 42.2341 54.4518C42.2341 54.5494 42.1362 54.6362 42.0927 54.7337C42.0483 54.8184 42.0084 54.9053 41.973 54.994C39.937 59.3679 39.5507 64.3265 40.8849 68.9612C40.8849 69.1672 41.0046 69.3732 41.0699 69.5793C42.0927 69.3949 43.1264 69.1997 44.1492 68.9286C52.3028 66.7299 59.3932 61.6867 64.1301 54.717C68.867 47.7473 70.9356 39.3143 69.9593 30.9527C69.0888 42.9137 62.2011 47.5767 55.9117 49.3226Z" fill="#AAAAAA"/>
<path d="M14.324 6.9873C9.16534 10.5792 5.13252 15.5533 2.69202 21.334C6.32063 22.0976 9.68216 23.8037 12.4358 26.2794C15.1894 28.7552 17.2373 31.9125 18.3718 35.4313C19.3402 34.8132 22.3216 32.46 24.3238 25.997C26.7503 18.1784 31.3421 12.4093 37.3159 9.89352C37.3159 9.92605 29.7535 -0.798738 14.324 6.9873Z" fill="#AAAAAA"/>
<path d="M38.5454 63.2789C38.5412 58.0396 40.5099 52.9896 44.0622 49.1274L44.1166 49.0515C43.3875 48.2815 40.8522 46.3947 34.3235 47.8695C26.3694 49.6804 17.5339 49.4744 12.3762 45.5597C12.3762 45.5597 6.82686 57.4881 21.3097 66.8683C27.0014 69.5255 33.3319 70.5219 39.5683 69.742C38.8738 67.6581 38.5282 65.4746 38.5454 63.2789Z" fill="#AAAAAA"/>
<path d="M63.3109 13.7432C61.3627 15.9499 58.9658 17.7187 56.2795 18.932C53.5931 20.1454 50.6785 20.7756 47.7291 20.781C46.175 20.7755 44.6255 20.6119 43.1046 20.293H43.0285C42.7238 21.3774 42.4844 24.4679 46.8913 29.196C52.4733 35.2036 56.6843 42.9246 55.9117 49.3334C55.9117 49.3334 68.9691 48.1731 69.9593 30.9635C69.4201 24.7127 67.115 18.7421 63.3109 13.7432Z" fill="#AAAAAA"/>
<path d="M86.2049 43.9764H82.5379V26.9404H88.4246C92.7771 26.9404 95.4321 28.7188 95.4321 32.6335C95.4321 36.5482 92.6465 38.652 88.12 38.652H86.2049V43.9764ZM86.1287 35.4313H88.12C90.2962 35.4313 91.6346 34.5855 91.6346 32.7853C91.6346 30.9852 90.405 30.1611 88.12 30.1611H86.1287V35.4313Z" fill="#AAAAAA"/>
<path d="M98.098 35.4638C98.098 29.7382 101.591 26.6476 106.302 26.6476C111.58 26.6476 114.637 29.9876 114.637 35.4638C114.637 41.5257 111.09 44.2692 106.4 44.2692C101.449 44.2692 98.098 41.222 98.098 35.4638ZM110.753 35.4638C110.753 31.5925 108.968 29.8683 106.302 29.8683C103.887 29.8683 101.95 31.6684 101.95 35.4638C101.95 39.2593 103.93 41.0594 106.498 41.0594C109.066 41.0594 110.753 39.2809 110.753 35.4638Z" fill="#AAAAAA"/>
<path d="M130.937 43.2933C129.51 44.0205 127.914 44.3573 126.313 44.2692C121.09 44.2692 117.608 41.2763 117.608 35.6807C117.608 29.8141 121.046 26.6476 126.639 26.6476C128.13 26.6132 129.612 26.8864 130.992 27.4501L130.187 30.5189C129.223 30.2058 128.218 30.0341 127.205 30.0093C123.832 30.0093 121.536 31.6901 121.536 35.4313C121.536 39.0315 123.712 40.8533 127.183 40.8533C128.223 40.8199 129.248 40.5995 130.208 40.2027L130.937 43.2933Z" fill="#AAAAAA"/>
<path d="M144.343 39.4328H137.085L135.431 43.9764H133.255L139.784 26.9404H141.96L148.358 43.9764H146.062L144.343 39.4328ZM137.749 37.4375H143.614L140.763 29.4237H140.665L137.749 37.4375Z" fill="#AAAAAA"/>
<path d="M155.91 43.9764H153.733V28.9899H148.674V26.9404H160.98V28.9899H155.91V43.9764Z" fill="#AAAAAA"/>
<path d="M163.287 35.4638C163.287 30.0418 166.443 26.7018 170.904 26.7018C175.985 26.7018 178.716 30.3021 178.716 35.4638C178.716 41.2546 175.452 44.2258 170.98 44.2258C166.29 44.2258 163.287 40.8642 163.287 35.4638ZM176.431 35.4638C176.431 30.79 174.331 28.7405 170.991 28.7405C167.988 28.7405 165.67 30.9093 165.67 35.4638C165.67 40.0183 167.911 42.1763 171.285 42.1763C174.451 42.1763 176.431 39.8665 176.431 35.4638Z" fill="#AAAAAA"/>
<path d="M200 43.9764H197.824L196.736 30.6708L192.383 43.9764H190.087L185.8 30.7141L184.712 43.9764H182.536L183.994 26.9404H186.681L191.295 41.5907L195.843 26.9404H198.531L200 43.9764Z" fill="#AAAAAA"/>
</svg>
