<svg width="200" height="32" viewBox="0 0 200 32" fill="none" xmlns="http://www.w3.org/2000/svg">
<path d="M89.4455 9.58504L93.6181 6.36955H79.6447V25.6331H93.6181V22.415H83.6359V17.4982H92.1676V14.2828H83.6359V9.58504H89.4455Z" fill="#AAAAAA"/>
<path d="M69.0875 13.8715H64.2467V9.58504H71.991L76.1662 6.36955H60.2554V25.6331H68.5721C73.2316 25.6331 75.9227 23.4245 75.9227 19.5787C75.9227 15.8905 73.5036 13.8715 69.0875 13.8715ZM68.4219 22.415H64.2467V17.087H68.4219C70.9627 17.087 72.1412 17.971 72.1412 19.7683C72.1412 21.5657 70.8721 22.415 68.4219 22.415Z" fill="#AAAAAA"/>
<path d="M104.932 6.36955H97.34V25.6331H101.331V20.1769H104.963C109.801 20.1769 112.826 17.5303 112.826 13.2732C112.826 9.01619 109.801 6.36955 104.932 6.36955ZM104.841 16.9614H101.303V9.58504H104.841C107.413 9.58504 108.804 10.9097 108.804 13.2732C108.804 15.6368 107.413 16.9614 104.841 16.9614Z" fill="#AAAAAA"/>
<path d="M53.4176 21.4695C52.3609 22.0704 51.1798 22.3856 49.9702 22.3856C46.37 22.3856 43.7696 19.7042 43.7696 16.016C43.7696 12.3278 46.37 9.64647 49.9702 9.64647C51.2704 9.61709 52.5422 10.0578 53.5989 10.8456L56.4739 8.63963L56.2926 8.45001C54.6298 6.90369 52.3893 6.11584 49.8485 6.11584C47.0978 6.11584 44.5855 7.09331 42.7724 8.85862C40.9568 10.688 39.9285 13.2412 39.9881 15.8905C39.957 18.5692 40.9568 21.1544 42.7724 23.0452C44.6761 24.9067 47.217 25.9483 49.82 25.8842C52.6924 25.8842 55.2022 24.8426 56.8961 22.9518L54.3267 20.9648L53.4176 21.4695Z" fill="#AAAAAA"/>
<path d="M160.83 6.4016V25.6625H164.822V17.7813H173.322V25.6625H177.316V6.4016H173.322V14.3148H164.822V6.4016H160.83ZM153.964 25.6625H158.168L150.364 6.4016H146.31L138.356 25.6625H142.379L143.982 21.7847H152.452L153.964 25.6625ZM145.192 18.5692L148.276 10.8456L151.18 18.5692H145.192ZM186.27 17.8775H188.749L194.859 25.6331H200L191.833 15.6688L198.972 6.36955H194.405L188.477 14.6299H186.27V6.36955H182.276V25.6331H186.27V17.8775ZM125.168 13.9035V9.61709H135.603V6.4016H121.174V25.6625H129.493C134.15 25.6625 136.844 23.4565 136.844 19.6107C136.844 15.9226 134.425 13.9035 130.006 13.9035H125.168ZM125.168 17.119H129.343C131.881 17.119 133.062 18.003 133.062 19.8004C133.062 21.5977 131.822 22.4791 129.343 22.4791H125.168V17.119Z" fill="#AAAAAA"/>
<path d="M27.4962 6.24403C28.2214 7.2215 28.8275 8.29244 29.3403 9.42747L15.3669 20.1769L9.49779 16.3312V11.7296L15.3358 15.5433L27.4962 6.24403Z" fill="#AAAAAA"/>
<path d="M3.53803 16.016C3.53803 15.7944 3.53803 15.6074 3.56912 15.3857L0.0310808 15.1961C0.0310808 15.4498 0 15.7329 0 15.984C0 20.3986 1.72499 24.4019 4.50672 27.3023L7.0165 24.685C4.86933 22.4791 3.53803 19.4211 3.53803 16.016Z" fill="#AAAAAA"/>
<path d="M15.3358 3.72025C15.5482 3.72025 15.7295 3.72025 15.9419 3.7523L16.1232 0.0640962C15.8797 0.0640962 15.6078 0.0320488 15.3669 0.0320488C11.1321 0.0320488 7.29105 1.82941 4.50672 4.72976L7.0165 7.34702C9.13518 5.109 12.0982 3.72025 15.3358 3.72025Z" fill="#AAAAAA"/>
<path d="M15.3358 28.3118C15.1234 28.3118 14.9421 28.3118 14.7297 28.2798L14.5484 31.968C14.7919 31.968 15.0638 32 15.3047 32C19.5395 32 23.3832 30.2026 26.1649 27.3023L23.6551 24.685C21.5364 26.9551 18.6019 28.3118 15.3358 28.3118Z" fill="#AAAAAA"/>
<path d="M21.9897 5.8648L24.9838 3.56268C22.3523 1.3567 18.9956 0 15.3358 0V3.6882C17.8171 3.72025 20.1145 4.5081 21.9897 5.8648Z" fill="#AAAAAA"/>
<path d="M30.7027 16.016C30.7027 15.0386 30.612 14.0931 30.4592 13.1477L27.1621 15.7009C27.1621 15.7944 27.1621 15.9225 27.1621 16.016C27.1621 19.6428 25.6495 22.8903 23.2614 25.1284L25.6495 27.8711C28.7368 24.9708 30.7027 20.7137 30.7027 16.016Z" fill="#AAAAAA"/>
<path d="M15.3358 28.3118C11.8573 28.3118 8.74148 26.7361 6.59432 24.2444L3.96281 26.7361C6.77562 29.9836 10.8291 32 15.3358 32L15.3358 28.3118Z" fill="#AAAAAA"/>
<path d="M7.44127 6.90369L5.05064 4.16091C1.93478 7.09331 0 11.3183 0 16.016H3.53803C3.53803 12.4213 5.05064 9.14438 7.44127 6.90369Z" fill="#AAAAAA"/>
</svg>
