<svg width="73" height="100" viewBox="0 0 73 100" fill="none" xmlns="http://www.w3.org/2000/svg">
<path d="M38.9211 74.1258C61.2487 74.7098 63.5987 53.9216 61.4835 38.8559C59.3685 23.7905 73 18.1847 73 18.1847C73 18.1847 49.3801 8.65205 40.5979 23.486C31.8157 38.3197 53.8452 48.0821 38.9211 74.1258Z" fill="url(#paint0_radial_59_1470)"/>
<path d="M63.2018 27.4157C66.5373 20.8431 73 18.1847 73 18.1847C73 18.1847 64.0583 14.5791 55.1329 15.2573C53.9878 15.8618 52.9476 16.579 52.0563 17.3982C51.9542 17.5784 51.8541 17.7614 51.7564 17.9494C53.6841 18.8279 56.3604 17.8416 56.3604 17.8416C56.3604 17.8416 54.6935 19.5571 55.194 20.0353C55.6948 20.514 56.1069 19.7099 57.321 19.4104C58.535 19.1104 57.8002 19.7934 56.5062 20.6393C55.2119 21.4855 54.0063 23.6142 55.0763 22.8231C56.1468 22.0327 57.2856 22.4787 56.5689 23.1319C55.8524 23.7855 55.8024 25.5283 56.4467 24.9925C57.0909 24.4575 58.8517 24.2234 58.0274 25.0792C57.2033 25.9347 56.5365 27.8044 56.5365 27.8044L57.88 28.175C57.88 28.175 58.3038 27.0924 59.3272 25.9369C60.3503 24.7814 60.9636 24.5045 60.9636 24.5045C60.9636 24.5045 59.3901 27.7016 59.7344 29.4226C60.0687 31.0943 61.2227 28.6814 63.2018 27.4157Z" fill="url(#paint1_radial_59_1470)"/>
<path fill-rule="evenodd" clip-rule="evenodd" d="M71.5884 17.6744C66.3765 15.9097 48.0905 10.8313 40.5979 23.486C32.3958 37.3408 51.0656 46.7741 41.4079 69.1779L41.4199 69.1588C51.6467 51.692 39.8397 45.3005 44.2704 30.4482C48.6841 15.6522 71.416 17.6589 71.5884 17.6744Z" fill="#F07C00"/>
<path fill-rule="evenodd" clip-rule="evenodd" d="M38.9211 74.1258C61.2479 74.7083 63.5985 53.9216 61.4835 38.8559C59.3673 23.7912 73 18.1847 73 18.1847C73 18.1847 57.9467 20.4259 57.6408 35.4749C57.3348 50.5241 57.939 70.4353 38.9211 74.1258Z" fill="#F07C00"/>
<path d="M64.7796 17.2266C64.7796 17.2266 58.0405 14.6609 49.8677 17.5227C41.6952 20.3844 41.0646 28.1712 41.0862 27.2792C41.1078 26.3871 48.2645 16.8221 64.7796 17.2266Z" fill="url(#paint2_linear_59_1470)"/>
<path d="M43.312 65.9361C43.312 65.9361 47.5636 60.1586 47.3516 51.8915C47.1691 44.7739 43.879 37.5222 42.2913 34.4974C41.0803 32.1898 40.4901 38.4799 40.6921 38.8844C42.5011 42.5097 48.4499 51.1627 43.312 65.9361Z" fill="url(#paint3_linear_59_1470)"/>
<path fill-rule="evenodd" clip-rule="evenodd" d="M38.9211 74.1258C61.2479 74.7083 63.5985 53.9216 61.4835 38.8559L61.4336 38.4622C60.1574 37.651 58.6837 37.2148 57.0711 37.6308C56.5471 37.7661 56.119 37.7621 55.7732 37.6451C55.0075 42.4406 53.883 45.8091 50.6063 47.1748C44.494 49.7232 46.555 46.5897 44.4409 42.4594C47.3853 38.5333 46.8246 29.1773 46.8246 29.1773C47.8924 27.6593 48.5609 20.2575 48.8318 16.5951C45.5945 17.825 42.6803 19.9692 40.5979 23.486C31.8162 38.3192 53.844 48.0824 38.9211 74.1258ZM58.15 51.0448C58.2645 52.8172 54.8992 53.8867 54.0818 54.1917C53.2642 54.4962 50.8118 58.9196 48.4615 60.3429C46.1105 61.7661 48.0007 68.935 52.3957 67.4104C56.7902 65.885 59.0185 61.6706 58.15 51.0448Z" fill="#D74933"/>
<path d="M50.4069 71.9531C62.0307 66.2983 63.1583 50.7849 61.4835 38.8559C59.3673 23.7912 73 18.1847 73 18.1847C73 18.1847 58.7706 23.4428 59.9488 37.0724C61.0731 50.0814 61.1089 64.8066 50.4069 71.9531Z" fill="url(#paint4_linear_59_1470)"/>
<path d="M13.909 43.8115C13.909 43.8115 11.6661 36.0088 8.62035 32.9566C6.18143 30.5132 -0.447846 29.2534 0.777256 34.1512C0.777256 34.1512 0.280943 34.291 0.0895656 35.3208C-0.101812 36.3505 0.242976 37.3798 0.242976 37.3798C0.242976 37.3798 -0.421425 38.981 0.447096 40.4555C1.31586 41.9303 2.61877 42.4894 2.61877 42.4894C2.61877 42.4894 5.83567 50.2173 10.0256 50.5223C14.2154 50.8275 13.909 43.8115 13.909 43.8115Z" fill="url(#paint5_linear_59_1470)"/>
<path d="M8.49287 39.7947C8.49287 39.7947 5.37633 39.0831 5.27403 36.0324C5.1715 32.9816 8.12284 33.5994 9.31048 34.8122C10.4979 36.0249 11.7374 40.4555 8.49287 39.7947Z" fill="url(#paint6_linear_59_1470)"/>
<path fill-rule="evenodd" clip-rule="evenodd" d="M13.909 43.8115C13.909 43.8115 11.6661 36.0088 8.62035 32.9566C8.16148 32.497 7.55524 32.0808 6.88002 31.7383C6.91243 31.7775 7.81984 32.8926 8.0578 34.0221C7.95407 33.9546 7.30695 33.7852 6.95253 33.8157C6.95253 33.8157 9.52639 35.2334 8.8819 37.3303C8.23717 39.427 6.595 38.5056 6.54986 38.4941C7.18882 39.4122 8.22422 39.9501 9.09298 40.0183C8.37982 41.2268 6.99239 41.7557 6.21559 41.2101C5.43904 40.6646 13.8805 46.085 10.7505 50.4979C14.179 49.9879 13.909 43.8115 13.909 43.8115Z" fill="#D74933"/>
<path d="M13.909 43.8115C13.909 43.8115 11.6661 36.0088 8.62035 32.9566C7.83803 32.1729 6.62649 31.5123 5.37929 31.1365C10.9492 33.3145 13.3422 45.8494 13.6832 46.6412C13.9689 45.1548 13.909 43.8115 13.909 43.8115Z" fill="url(#paint7_linear_59_1470)"/>
<path fill-rule="evenodd" clip-rule="evenodd" d="M1.77278 41.5768C2.99212 42.6869 4.84732 41.7266 5.04686 40.6912C5.25457 39.6147 4.5983 38.679 3.0692 38.9525C3.0692 38.9525 3.47405 39.8481 3.07041 40.7666C2.66676 41.6851 1.81768 41.584 1.77278 41.5768Z" fill="#E94D11"/>
<path d="M8.0578 34.0221C8.54068 34.2027 8.98992 34.4848 9.31048 34.8122C10.4828 36.0094 11.7042 40.341 8.61502 39.8165C9.23646 39.9084 10.0257 39.4135 10.0257 37.7523C10.0257 36.0888 8.11927 34.086 8.0578 34.0221Z" fill="url(#paint8_linear_59_1470)"/>
<path d="M1.92905 35.2695C1.18852 34.5322 0.587481 32.9564 1.46897 31.8885C2.3507 30.8208 4.89262 31.4566 4.89262 31.4566C4.89262 31.4566 0.44486 31.1433 1.92905 35.2695Z" fill="url(#paint9_linear_59_1470)"/>
<path d="M0.975403 34.5707C0.975403 34.5707 0.33979 35.1265 0.492748 36.4486C0.645705 37.7704 1.43523 38.079 1.43523 38.079C1.43523 38.079 1.04311 37.4685 1.04744 36.6297C1.05224 35.7909 1.39705 35.3463 1.39705 35.3463C1.39705 35.3463 1.02631 35.0031 0.975403 34.5707Z" fill="url(#paint10_linear_59_1470)"/>
<path d="M6.28835 38.2332C5.8009 37.4958 5.40542 35.9202 5.98556 34.8522C6.56593 33.7846 8.23886 34.4203 8.23886 34.4203C8.23886 34.4203 5.31153 34.1069 6.28835 38.2332Z" fill="url(#paint11_linear_59_1470)"/>
<path d="M0.653032 37.7579C0.653032 37.7579 0.0873217 38.384 0.395638 39.6789C0.703715 40.9737 1.52443 41.1881 1.52443 41.1881C1.52443 41.1881 1.06295 40.6277 0.968097 39.7942C0.873249 38.9606 1.16331 38.4788 1.16331 38.4788C1.16331 38.4788 0.754604 38.1812 0.653032 37.7579Z" fill="url(#paint12_linear_59_1470)"/>
<path d="M3.12463 42.5824C3.12463 42.5824 5.4454 48.0329 8.51584 49.6241C10.5261 50.666 6.15113 48.8225 4.68351 42.0488C4.68351 42.0488 4.09569 42.6843 3.12463 42.5824Z" fill="url(#paint13_linear_59_1470)"/>
<path fill-rule="evenodd" clip-rule="evenodd" d="M1.21116 38.2462C2.4305 39.3563 4.28567 38.396 4.48521 37.3608C4.69268 36.2843 4.03643 35.3484 2.50733 35.6221C2.50733 35.6221 2.9122 36.5177 2.50879 37.4362C2.10515 38.3545 1.25607 38.2536 1.21116 38.2462Z" fill="#E94D11"/>
<path fill-rule="evenodd" clip-rule="evenodd" d="M1.82319 34.9161C3.04253 36.0262 4.81392 35.0187 5.0975 34.0307C5.40654 32.954 5.00599 31.5735 3.47689 31.8472C3.47689 31.8472 3.75425 32.7934 3.35085 33.7119C2.9472 34.6304 1.86833 34.9233 1.82319 34.9161Z" fill="#E94D11"/>
<path d="M42.4858 4.17295C42.4858 4.17295 35.8064 16.4422 34.5733 22.5258C33.3403 28.6096 25.5164 22.1822 25.5164 22.1822C25.5164 22.1822 29.5382 11.7903 42.4858 4.17295Z" fill="url(#paint14_linear_59_1470)"/>
<path d="M27.93 23.3913C27.0079 22.8343 26.3629 22.3385 26.3629 22.3385C26.3629 22.3385 29.1238 13.2913 39.8535 6.65954C39.8535 6.65954 29.7482 14.3594 28.2313 22.0593C28.1333 22.5559 28.0327 22.9976 27.93 23.3913Z" fill="url(#paint15_linear_59_1470)"/>
<path d="M40.5017 7.99051C38.4287 12.1092 35.3693 18.6031 34.5743 22.5259C34.3284 23.7391 33.82 24.4531 33.1645 24.8216C32.6598 24.8586 32.1966 24.5832 31.7997 23.9064C31.7997 23.9064 36.5639 12.6776 40.5017 7.99051Z" fill="url(#paint16_linear_59_1470)"/>
<path d="M15.7372 34.0076C16.1298 32.4213 19.1093 28.1922 19.1093 28.1922C19.5334 26.2786 20.2021 25.4844 20.8809 24.9031C21.9857 23.9576 29.076 18.1296 38.8382 23.3438C48.6001 28.5583 40.0758 41.4903 38.637 49.9767C37.1984 58.4631 33.8028 61.7881 26.8667 61.2256C19.9305 60.6634 20.4148 57.9649 19.6954 52.4946C18.976 47.0246 21.1421 42.1024 21.1421 42.1024C19.5864 42.5377 18.6144 40.194 17.5802 38.1064C16.733 36.3959 15.6602 35.0361 15.7372 34.0076Z" fill="url(#paint17_linear_59_1470)"/>
<path d="M19.7092 52.6024L19.6954 52.4946C18.976 47.0246 21.1421 42.1024 21.1421 42.1024C20.7714 42.2062 20.4327 42.1507 20.1194 41.9801L22.7072 38.8546C22.7072 38.8546 32.6677 41.9211 30.9275 43.6696C29.1873 45.4181 28.4019 48.388 28.4019 48.388C28.4019 48.388 28.4019 45.0772 27.2853 47.4323C26.1688 49.7871 26.4365 51.721 26.4365 51.721L21.4117 53.4321C21.4117 53.4321 20.5828 53.0436 19.7092 52.6024Z" fill="url(#paint18_linear_59_1470)"/>
<path d="M20.7491 25.5774C22.8889 23.4606 28.9443 18.8036 38.7062 24.0181C39.611 24.5013 40.3611 25.034 40.9784 25.6082C39.9512 25.7511 38.582 25.4996 36.7537 24.5806C31.9448 22.1632 25.7497 22.3665 20.7491 25.5774Z" fill="url(#paint19_linear_59_1470)"/>
<path fill-rule="evenodd" clip-rule="evenodd" d="M32.1386 21.2618C34.1753 21.442 36.425 22.0547 38.8382 23.3438C48.6001 28.5583 40.0758 41.4903 38.637 49.9767C38.0331 53.5388 37.0837 56.1905 35.6735 58.028L27.1621 55.6755C30.2935 52.1129 32.3281 46.5586 29.4543 45.7568C25.8383 44.748 23.847 42.188 23.847 42.188C23.847 42.188 21.949 43.8319 20.5686 43.7071C20.8803 42.6989 21.0854 42.2397 21.0854 42.2397C25.4349 38.6635 29.7425 33.6798 30.8266 27.0795C33.0074 26.5025 33.7962 25.8857 34.5266 24.7101C35.9568 22.4094 32.5163 21.306 32.1386 21.2618Z" fill="#D74933"/>
<path d="M41.7837 25.7599C46.4889 31.8661 39.8875 42.6002 38.637 49.9767C37.925 54.1777 36.7326 57.1132 34.8692 58.9391C34.9424 55.0777 35.53 49.394 37.9103 44.1896C42.0193 35.2058 42.312 30.7767 41.7112 27.8553C41.5686 27.1621 41.6209 26.4471 41.7837 25.7599Z" fill="url(#paint20_linear_59_1470)"/>
<path fill-rule="evenodd" clip-rule="evenodd" d="M43.0218 28.1501C43.5453 29.8222 43.5537 31.6972 43.2638 33.6714C40.5469 34.2346 38.9834 32.4268 38.9834 32.4268L41.6565 27.5144L43.0218 28.1501Z" fill="#8F3523"/>
<path d="M19.2886 35.0766C19.8116 34.9022 20.8938 35.7419 21.1745 35.0525C22.5975 31.5584 28.0158 23.4311 34.0347 28.763C37.0975 31.4763 34.1113 36.3292 34.1113 36.3292C38.204 38.6462 36.9258 44.0623 31.6825 44.1642C28.8147 44.22 25.3178 43.082 23.4504 40.9304C20.5519 44.751 17.0963 42.7787 17.1551 38.456C16.6223 38.404 16.2678 37.941 16.0428 37.2955C17.3902 36.2421 18.8818 35.3045 19.2886 35.0766Z" fill="url(#paint21_linear_59_1470)"/>
<path fill-rule="evenodd" clip-rule="evenodd" d="M24.2267 33.9659C24.2267 33.9659 25.2443 34.1535 25.9414 33.6376C26.6387 33.1214 31.5295 34.6327 32.7131 35.5214C33.8966 36.4103 35.5273 32.6548 34.4998 30.2549C33.4723 27.8549 30.7273 27.6332 30.7273 27.6332C30.7273 27.6332 31.3511 28.744 29.0505 29.2772C26.7501 29.8103 24.718 32.4105 24.2267 33.9659Z" fill="#F8A600"/>
<path fill-rule="evenodd" clip-rule="evenodd" d="M34.008 43.6903C33.3522 43.974 32.5755 44.1468 31.6825 44.1642C28.8147 44.22 25.3178 43.082 23.4504 40.9304C24.4762 39.5265 25.9238 38.9405 25.9238 38.9405C30.4832 42.9692 35.2511 37.5869 29.3856 35.5439C29.3856 35.5439 33.8051 35.9613 34.9238 38.4327C35.7011 40.1497 35.3217 42.2895 34.008 43.6903Z" fill="#FCB900"/>
<path d="M34.1113 36.3292C38.204 38.6462 36.9258 44.0623 31.6825 44.1642C30.3279 44.1907 28.8318 43.9504 27.4346 43.4629C27.5268 43.4843 32.5604 45.058 35.0611 42.0294C37.5617 39.0006 34.1113 36.3292 34.1113 36.3292Z" fill="url(#paint22_linear_59_1470)"/>
<path d="M25.9414 33.6376C25.9414 33.6376 27.1129 30.5612 29.4053 29.6876C31.4824 28.8958 33.4862 30.7684 33.3573 32.8985C32.6153 33.0376 32.2455 33.5545 32.0884 33.7674C30.4126 36.039 27.6359 33.2498 25.9414 33.6376Z" fill="url(#paint23_linear_59_1470)"/>
<path d="M26.2773 33.3916C26.2773 33.3916 27.3511 30.8224 29.4406 30.0888C31.5304 29.3555 33.4072 31.5892 31.8762 33.4882C30.3452 35.3871 27.8215 33.0649 26.2773 33.3916Z" fill="url(#paint24_radial_59_1470)"/>
<path fill-rule="evenodd" clip-rule="evenodd" d="M30.1349 30.3077C31.0726 30.2838 31.8547 31.0629 31.8811 32.0463C31.9075 33.03 31.1686 33.8467 30.2307 33.87C29.293 33.8939 28.5112 33.1145 28.4845 32.1308C28.4581 31.1474 29.1972 30.3308 30.1349 30.3077Z" fill="#00378B"/>
<path d="M30.1383 30.4305C31.0114 30.409 31.7395 31.1338 31.764 32.0495C31.7887 32.9651 31.1005 33.7254 30.2274 33.7471C29.3546 33.7686 28.6265 33.0436 28.6018 32.128C28.5773 31.2123 29.2653 30.4522 30.1383 30.4305Z" fill="url(#paint25_linear_59_1470)"/>
<path fill-rule="evenodd" clip-rule="evenodd" d="M30.1602 31.2227C30.6162 31.2108 30.9963 31.59 31.009 32.0682C31.021 32.5462 30.6628 32.9433 30.2068 32.9547C29.7508 32.9666 29.3707 32.5874 29.3577 32.1092C29.3457 31.631 29.7042 31.2339 30.1602 31.2227Z" fill="#00378B"/>
<path fill-rule="evenodd" clip-rule="evenodd" d="M29.4632 31.1486C29.7206 31.1414 29.935 31.3559 29.9422 31.6256C29.9494 31.8955 29.7468 32.1196 29.4896 32.1261C29.2322 32.1332 29.0178 31.9187 29.0106 31.6491C29.0034 31.3792 29.206 31.155 29.4632 31.1486Z" fill="white"/>
<path fill-rule="evenodd" clip-rule="evenodd" d="M30.4992 30.9621C30.6738 30.9573 30.8193 31.1026 30.8243 31.2857C30.8291 31.4687 30.6918 31.6207 30.5172 31.625C30.3427 31.6298 30.1971 31.4844 30.1923 31.3014C30.1875 31.1184 30.3249 30.9664 30.4992 30.9621Z" fill="white"/>
<path d="M20.7266 39.9588C20.7266 39.9588 22.6276 38.4762 23.3214 37.4283C24.0151 36.3802 24.6058 36.9172 24.6058 36.9172C24.6058 36.9172 24.5033 37.799 23.8352 38.8981C23.1672 39.9973 22.0576 42.56 19.7327 42.33C17.4076 42.0999 17.3361 38.082 17.3361 38.082C17.3361 38.082 17.8752 38.6425 18.0807 38.7831C18.2863 38.9234 20.7266 39.9588 20.7266 39.9588Z" fill="url(#paint26_linear_59_1470)"/>
<path d="M19.5261 28.5182C19.5261 28.5182 17.457 30.6846 16.4883 32.9411C15.5199 35.1979 16.2398 34.7364 16.8471 34.7892C17.4546 34.8419 16.6053 34.3959 19.5261 28.5182Z" fill="url(#paint27_linear_59_1470)"/>
<path d="M18.1554 39.189C18.3228 39.9395 18.6078 41.5599 20.0332 41.5947C22.2125 41.648 24.0141 37.2854 25.3992 36.91C22.9739 36.1724 21.7798 39.5835 18.7598 38.9628C18.8244 38.8869 18.859 38.823 18.859 38.823L17.8752 37.9906L16.5939 38.2073C16.7541 38.3467 16.9404 38.435 17.1551 38.456C17.1575 38.5252 17.1639 38.5996 17.1711 38.6783C17.3102 38.6545 17.4007 38.6296 17.4007 38.6296C17.4007 38.6296 17.7148 39.0642 18.1554 39.189Z" fill="url(#paint28_linear_59_1470)"/>
<path d="M22.6615 39.8469C20.838 39.3317 19.5329 39.9326 18.6586 40.7235C18.9304 41.1969 19.351 41.5778 20.0332 41.5947C20.9819 41.6186 21.8592 40.8039 22.6615 39.8469Z" fill="url(#paint29_linear_59_1470)"/>
<path d="M27.2923 35.9059C27.6698 36.7612 27.3207 37.7308 26.5129 38.0713C25.7051 38.4118 25.9287 37.573 25.5512 36.718C25.174 35.8627 24.9591 35.4651 25.5728 35.0979C26.1873 34.7306 26.9151 35.0506 27.2923 35.9059Z" fill="url(#paint30_linear_59_1470)"/>
<path d="M39.4546 32.6481C37.3026 31.9647 38.4309 28.6476 38.4309 28.6476C37.1554 26.7409 34.6924 25.6618 35.7038 23.2418C37.3931 19.1995 40.646 15.6279 43.1114 11.0339C45.5767 6.4396 46.9499 2.63952 46.9499 2.63952C46.9499 2.63952 47.2441 35.1223 39.4546 32.6481Z" fill="url(#paint31_linear_59_1470)"/>
<path d="M36.053 25.933C35.6921 25.3314 35.8261 24.364 36.1848 23.5056C37.6877 19.9093 40.5819 16.7314 42.7754 12.644C44.969 8.55635 46.1909 5.17534 46.1909 5.17534C46.1909 5.17534 44.1597 13.5472 40.3447 18.5476C36.5296 23.5483 35.6863 24.0606 36.053 25.933Z" fill="url(#paint32_linear_59_1470)"/>
<path d="M38.6 32.0759C41.3655 32.4489 43.7727 27.2982 44.7719 22.5261C45.7994 17.6186 46.9499 2.63952 46.9499 2.63952C46.9499 2.63952 47.2441 35.1223 39.4546 32.6481C39.0764 32.5281 38.7996 32.3265 38.6 32.0759Z" fill="url(#paint33_linear_59_1470)"/>
<path d="M15.0753 35.1534C14.7691 36.5017 15.7373 39.0952 17.5029 38.3485C17.5029 38.3485 18.193 39.5105 20.6545 39.1083C23.116 38.7065 23.9639 37.0193 23.8995 35.8051C23.8354 34.5909 21.8316 34.0289 19.1086 34.6549C17.1135 35.1135 15.6694 32.5379 15.0753 35.1534Z" fill="url(#paint34_linear_59_1470)"/>
<path d="M21.4219 38.9273C23.2946 38.334 23.9567 36.8833 23.8995 35.8051C23.8354 34.5909 21.8316 34.0289 19.1086 34.6549C19.0025 34.6792 18.8987 34.6948 18.7957 34.7034L18.6209 35.1534L17.3888 37.4306C17.3888 37.4306 19.4688 37.3386 20.3551 36.3932C21.2411 35.4474 20.6094 34.668 20.6094 34.668C20.6094 34.668 22.3229 34.3762 22.8648 35.3391C23.4068 36.3018 23.0199 38.2846 21.4219 38.9273Z" fill="url(#paint35_linear_59_1470)"/>
<path fill-rule="evenodd" clip-rule="evenodd" d="M17.4126 35.6645C17.4126 35.6645 16.6434 38.2104 18.859 38.823C21.0746 39.4353 22.8716 37.8115 22.8716 37.8115C22.8716 37.8115 20.765 37.9905 19.866 37.1214C18.9669 36.2525 19.4933 35.2299 19.4933 35.2299L17.4126 35.6645Z" fill="#FFCB00"/>
<path d="M44.9517 9.89856C41.5203 21.8786 35.9243 23.4628 36.053 25.933C36.1397 27.5972 37.4121 28.0787 38.1358 30.5524C40.7313 28.6092 44.3353 17.7717 44.9517 9.89856Z" fill="url(#paint36_radial_59_1470)"/>
<path d="M44.9517 9.89856C42.2508 19.3283 38.2106 22.3165 36.6748 24.3662C36.7488 24.3022 40.0668 21.419 41.9467 18.4616C43.8477 15.471 44.2072 13.912 44.2072 13.912C44.2072 13.912 44.0372 15.3998 43.824 16.9295C44.375 14.5267 44.7795 12.0971 44.9517 9.89856Z" fill="url(#paint37_linear_59_1470)"/>
<path fill-rule="evenodd" clip-rule="evenodd" d="M15.5507 34.6933C15.5507 34.6933 14.9141 36.2311 15.882 37.6935C16.4931 38.6168 17.2975 38.195 17.2975 38.195C17.2975 38.195 15.9363 37.582 16.1802 36.291C16.4242 35 15.5507 34.6933 15.5507 34.6933Z" fill="#FFCB00"/>
<path d="M22.1276 43.6102C22.1276 43.6102 20.1622 49.3658 19.9612 51.9433C19.76 54.5209 18.4424 45.81 22.1276 43.6102Z" fill="url(#paint38_linear_59_1470)"/>
<path d="M15.0753 35.1534C14.802 36.3568 15.544 38.5521 16.9622 38.4788C16.9314 38.4621 15.4568 37.5925 15.5248 35.8307C15.5937 34.0502 17.1305 34.9105 17.1305 34.9105L17.6074 34.5208C16.39 34.0958 15.5075 33.25 15.0753 35.1534Z" fill="url(#paint39_linear_59_1470)"/>
<path d="M16.063 34.3668C15.3818 34.8954 16.2311 36.8403 17.0276 37.3259C17.8238 37.8115 19.8277 36.5336 20.0846 35.5879C20.3415 34.642 17.043 33.6068 16.063 34.3668Z" fill="url(#paint40_linear_59_1470)"/>
<path d="M15.9913 35.8618C16.2179 36.4751 16.6292 37.0832 17.0276 37.3259C17.8238 37.8115 19.8277 36.5336 20.0846 35.5879C20.2167 35.1016 19.4094 34.5922 18.4604 34.3146C18.488 34.3289 19.831 34.8566 19.5863 35.6222C19.3417 36.3877 17.644 37.1215 17.0536 37.0065C16.4629 36.8915 15.9913 35.8618 15.9913 35.8618Z" fill="url(#paint41_linear_59_1470)"/>
<path fill-rule="evenodd" clip-rule="evenodd" d="M18.8765 34.9826C18.6976 35.115 16.0899 35.6133 16.1542 34.7571C16.2183 33.9009 19.3202 34.6535 18.8765 34.9826Z" fill="white"/>
<path fill-rule="evenodd" clip-rule="evenodd" d="M21.9104 39.9826C21.9104 39.9826 20.8412 39.8549 20.0264 40.1162C19.2119 40.3773 18.9562 40.8705 19.4727 41.0099C19.9892 41.149 20.2185 40.3193 21.9104 39.9826Z" fill="white"/>
<path fill-rule="evenodd" clip-rule="evenodd" d="M24.6769 35.546C25.9229 36.9272 25.2518 38.0595 25.2518 38.0595C25.2518 38.0595 26.0046 37.8479 25.9361 37.0153C25.8677 36.1826 24.6769 35.546 24.6769 35.546Z" fill="#F07C00"/>
<path d="M24.6769 35.546C26.4202 36.8349 25.5147 38.0103 25.2518 38.0595C25.2518 38.0595 26.2944 37.913 26.1071 36.8482C25.9198 35.7834 24.6769 35.546 24.6769 35.546Z" fill="url(#paint42_linear_59_1470)"/>
<path d="M46.1265 5.86065C46.4091 4.45388 45.9747 3.08149 45.0498 1.99903C45.1511 1.89833 45.2527 1.79736 45.354 1.69666C45.766 2.07728 46.1623 2.54098 46.4828 3.40604C46.4828 3.40604 46.7097 1.53013 46.7097 0.994391C46.7097 0.45865 46.8442 -0.0783315 47.2409 0.00948714C47.6376 0.0975444 46.8058 3.56974 47.2404 3.17241C47.6748 2.77508 47.9341 2.04795 48.0952 1.13611C48.2566 0.224039 48.5126 1.24445 48.3332 2.22669C48.1536 3.20892 47.1811 5.57047 46.1265 5.86065Z" fill="url(#paint43_linear_59_1470)"/>
<path d="M40.721 6.72908C40.721 6.72908 41.0488 3.90576 41.4805 3.12971C41.9123 2.3539 42.7527 1.93609 42.7527 1.93609C42.7527 1.93609 41.6669 4.04638 41.5989 4.62222C41.5312 5.19781 43.7218 1.51056 43.7218 1.51056C43.7218 1.51056 44.3303 1.32015 44.4364 1.66809C44.5426 2.01602 42.3265 4.64625 42.3265 4.64625C42.6944 4.32289 44.1056 3.41756 44.5443 3.56194C44.6175 3.83637 44.4874 4.21796 44.4874 4.21796C44.4874 4.21796 43.2363 4.42742 40.721 6.72908Z" fill="url(#paint44_linear_59_1470)"/>
<path d="M31.4758 26.4655C32.0235 26.6059 32.0429 28.2004 31.4184 28.0069C30.7936 27.8134 29.8657 27.8461 29.5836 27.9312C29.3015 28.0164 29.0016 26.7565 29.4621 26.5393C29.9227 26.3222 30.8401 26.3023 31.4758 26.4655Z" fill="url(#paint45_linear_59_1470)"/>
<path fill-rule="evenodd" clip-rule="evenodd" d="M31.3071 26.5843C31.3071 26.5843 29.8512 26.4467 29.6042 26.7784C29.3571 27.1103 29.5794 27.6635 29.5794 27.6635C29.5794 27.6635 29.9994 26.9015 31.3071 26.5843Z" fill="white"/>
<path d="M38.736 30.5589C38.736 30.5589 40.8726 30.0695 43.1447 23.8107C44.3789 20.4097 45.7111 8.54458 45.7111 8.54458C45.8323 8.80421 43.7087 24.1126 38.736 30.5589Z" fill="url(#paint46_linear_59_1470)"/>
<path d="M34.0594 73.5535C34.0594 73.5535 34.9904 78.0196 33.53 84.9465C32.0693 91.8732 33.7905 96.1236 35.6085 97.3991C37.4265 98.6744 38.9421 97.0287 38.9421 97.0287C38.9421 97.0287 40.5303 97.4812 41.4288 96.5513C42.3271 95.6213 42.8224 93.989 42.8224 93.989C42.8224 93.989 44.8796 93.8759 45.9229 90.6509C46.966 87.426 48.5671 82.4019 45.7971 80.3239C43.027 78.2458 42.0003 74.8932 42.0003 74.8932L34.0594 73.5535Z" fill="url(#paint47_linear_59_1470)"/>
<path d="M45.291 92.085C45.5218 91.6929 45.7385 91.221 45.9229 90.6509C46.966 87.426 48.5671 82.4019 45.7971 80.3239C44.0949 79.0469 43.0504 77.2885 42.4986 76.1225C42.4986 76.1225 43.145 79.4892 45.4867 81.3066C47.8269 83.1232 46.1437 90.0207 45.291 92.085Z" fill="url(#paint48_linear_59_1470)"/>
<path d="M41.8086 95.7687C41.2165 96.357 37.5981 97.938 36.111 89.6981C36.1086 90.5901 36.3375 94.5755 38.0224 96.0878C39.1961 97.1414 40.881 97.0328 41.8086 95.7687ZM45.0491 92.1426C44.4421 92.67 40.5247 95.2282 39.3813 85.9949C39.3813 85.9949 39.1339 91.5721 41.6915 93.195C42.9992 94.0248 44.1734 93.3466 45.0491 92.1426Z" fill="url(#paint49_linear_59_1470)"/>
<path d="M34.2869 73.1503C34.2869 73.1503 35.3185 78.7967 33.8581 85.7236C33.4467 87.6755 32.0756 97.3746 37.8957 97.3894C34.9934 96.8336 33.5627 92.0893 34.9617 85.1311C36.3604 78.1731 35.6182 73.3748 35.6182 73.3748L34.2869 73.1503Z" fill="url(#paint50_linear_59_1470)"/>
<path fill-rule="evenodd" clip-rule="evenodd" d="M35.9143 97.5875C37.5935 98.4927 38.9421 97.0287 38.9421 97.0287C37.456 96.7447 36.6467 94.7434 36.2313 93.4877C35.8158 92.2322 35.7856 91.2287 35.7856 91.2287C35.7856 91.2287 35.3949 94.1377 35.9959 96.1927C36.1849 96.8398 36.1081 97.283 35.9143 97.5875ZM38.9421 97.0287C38.9517 97.0311 38.9986 97.0432 39.0743 97.0599C39.0339 97.048 38.9889 97.0383 38.9421 97.0287Z" fill="#E3620B"/>
<path fill-rule="evenodd" clip-rule="evenodd" d="M38.9421 97.0287C38.9421 97.0287 40.5303 97.4812 41.4288 96.5513C42.3271 95.6213 42.8224 93.989 42.8224 93.989C39.6329 93.6919 39.0969 89.1966 39.0969 89.1966C38.8311 91.1112 39.0753 91.8577 39.4098 93.8422C39.7438 95.8267 38.9421 97.0287 38.9421 97.0287Z" fill="#E3620B"/>
<path fill-rule="evenodd" clip-rule="evenodd" d="M42.8224 93.989C42.8224 93.989 44.8777 93.8746 45.9217 90.6513C46.9653 87.4256 48.5662 82.4014 45.7978 80.3228C43.0259 78.246 41.9991 74.8943 41.9991 74.8943L39.8255 74.5273C40.057 75.0318 40.3332 75.6422 40.63 76.3197L37.7705 77.1657L37.4382 78.7271C45.1265 77.6038 44.7357 89.5487 42.8224 93.989Z" fill="#E3620B"/>
<path d="M21.6875 75.6337C21.6875 75.6337 21.4238 80.1872 18.2091 86.5022C14.9943 92.8175 15.5499 97.3655 16.9739 99.0653C18.3978 100.765 20.2902 99.5652 20.2902 99.5652C20.2902 99.5652 21.7067 100.411 22.8165 99.7435C23.9264 99.0763 24.8302 97.6271 24.8302 97.6271C24.8302 97.6271 26.8465 98.0468 28.694 95.2001C30.5415 92.3536 33.3965 87.9123 31.2621 85.1926C29.1276 82.4728 29.0088 78.9704 29.0088 78.9704L21.6875 75.6337Z" fill="url(#paint51_linear_59_1470)"/>
<path d="M23.3877 99.0857C22.6625 99.5016 18.7558 100.098 19.4651 91.7564C19.23 92.6171 18.4136 96.5258 19.6474 98.4201C20.5067 99.7398 22.1624 100.068 23.3877 99.0857ZM27.4621 96.4167C26.7384 96.7699 22.2882 98.2332 23.5885 89.0206C23.5885 89.0206 21.8971 94.3442 23.9448 96.5695C24.992 97.7075 26.3026 97.3544 27.4621 96.4167Z" fill="url(#paint52_linear_59_1470)"/>
<path d="M22.0125 75.3031C22.0125 75.3031 21.5382 81.0225 18.3237 87.3378C17.418 89.117 13.5676 98.1333 19.1855 99.6446C16.5269 98.3612 16.3806 93.4104 19.5438 87.0492C22.7071 80.6879 23.2397 75.8624 23.2397 75.8624L22.0125 75.3031Z" fill="url(#paint53_linear_59_1470)"/>
<path fill-rule="evenodd" clip-rule="evenodd" d="M17.219 99.326C18.6052 100.632 20.2902 99.5652 20.2902 99.5652C18.9287 98.9083 18.6671 96.7674 18.593 95.4477C18.5188 94.1281 18.7509 93.1511 18.7509 93.1511C18.7509 93.1511 17.6159 95.8603 17.6613 97.9999C17.6757 98.6736 17.4855 99.0819 17.219 99.326ZM20.2902 99.5652C20.2974 99.57 20.3401 99.5943 20.409 99.6291C20.373 99.6076 20.3332 99.586 20.2902 99.5652Z" fill="#E3620B"/>
<path fill-rule="evenodd" clip-rule="evenodd" d="M20.2902 99.5652C20.2902 99.5652 21.7067 100.411 22.8165 99.7435C23.9264 99.0763 24.8302 97.6271 24.8302 97.6271C21.8267 96.5195 22.4786 92.0397 22.4786 92.0397C21.7232 93.8207 21.765 94.6046 21.5707 96.6075C21.3767 98.6104 20.2902 99.5652 20.2902 99.5652Z" fill="#E3620B"/>
<path fill-rule="evenodd" clip-rule="evenodd" d="M24.8276 97.6275C24.8276 97.6275 26.843 98.0463 28.6907 95.2013C30.5389 92.3539 33.3937 87.9126 31.261 85.1928C29.1244 82.4738 29.0055 78.9721 29.0055 78.9721L27.0017 78.0585C27.0939 78.6055 27.2015 79.266 27.3117 79.9967L24.3294 80.0784L23.5761 82.3046C31.5676 81.8633 27.4615 94.3002 24.8276 97.6275Z" fill="#E3620B"/>
<path d="M27.7102 96.4234C28.0354 96.1038 28.3677 95.7034 28.694 95.2001C30.5415 92.3536 33.3965 87.9123 31.2621 85.1926C29.9505 83.5214 29.3997 81.5548 29.1702 80.2864C29.1702 80.2864 28.9178 83.7047 30.7065 86.0626C32.4939 88.4192 29.0715 94.6486 27.7102 96.4234Z" fill="url(#paint54_linear_59_1470)"/>
<path fill-rule="evenodd" clip-rule="evenodd" d="M8.38434 53.0572C9.20411 49.6951 10.8052 45.6944 13.909 43.8115C13.909 43.8115 17.9385 47.7733 19.6429 47.8905C19.6429 47.8905 20.4546 49.7653 25.3807 50.1146C30.3068 50.464 38.512 47.0298 38.512 47.0298C40.5537 47.1209 43.8547 46.5728 45.531 45.2734C45.531 45.2734 45.8424 48.6833 47.7821 51.1396C49.7216 53.5959 50.7824 53.2754 50.7824 53.2754C48.6127 55.4152 45.2118 57.2167 40.1023 57.5532C40.1023 57.5532 40.4862 59.4248 40.188 61.7546C39.7628 65.0757 32.5545 67.6476 27.9924 68.3198C21.6451 69.2548 15.017 67.255 15.017 67.255C14.2949 63.6417 14.3216 60.8736 15.0338 57.0521C15.0338 57.0521 12.2556 56.024 8.38434 53.0572Z" fill="#009035"/>
<path fill-rule="evenodd" clip-rule="evenodd" d="M40.3001 59.7857C40.3049 60.2229 40.2905 60.7065 40.2446 61.2198C39.4244 61.9489 37.9116 62.5806 37.9116 62.5806L34.487 60.7791C34.487 60.7791 35.9558 52.4919 35.7399 52.4375C35.524 52.3831 37.4899 48.3508 37.4899 48.3508L38.512 47.0298C38.512 47.0298 36.7873 52.2848 37.1449 55.0812C37.5027 57.8778 38.8312 57.8522 38.8312 57.8522C38.8312 57.8522 38.4759 58.7452 40.3001 59.7857Z" fill="#00722C"/>
<path d="M32.2807 49.4378C32.2807 49.4378 29.0611 50.6813 25.3058 50.4164C22.4325 50.2138 20.8787 49.4767 20.8787 49.4767L20.6143 50.5895C20.6143 50.5895 26.0344 52.8312 32.2807 49.4378Z" fill="url(#paint55_linear_59_1470)"/>
<path d="M20.5995 51.7201C20.2165 52.4825 19.5403 58.3108 20.1294 60.1908C21.0413 63.1022 22.6461 54.5959 28.1053 51.5416C28.1053 51.5416 24.4059 52.6858 20.5995 51.7201Z" fill="url(#paint56_linear_59_1470)"/>
<path fill-rule="evenodd" clip-rule="evenodd" d="M18.3667 62.0464L19.21 55.0305L20.1518 50.6272L21.1053 49.1182C21.1053 49.1182 19.5344 55.251 20.3338 59.8858C21.1332 64.5206 18.3667 62.0464 18.3667 62.0464Z" fill="#00722C"/>
<path d="M18.0125 49.2342C18.0125 49.2342 13.4561 58.3907 15.4187 65.5543C17.3812 72.718 20.1985 69.5567 20.1985 69.5567C20.1985 69.5567 13.0033 65.4909 18.0125 49.2342Z" fill="url(#paint57_linear_59_1470)"/>
<path d="M8.99044 52.819C9.22048 51.4203 10.6 48.1161 10.6 48.1161C10.6 48.1161 10.574 50.4294 10.9064 52.1073C11.2387 53.7849 12.2606 54.8529 12.2606 54.8529C12.2606 54.8529 9.9867 53.7594 8.99044 52.819Z" fill="url(#paint58_linear_59_1470)"/>
<path d="M45.6528 48.6751C45.1418 47.9377 45.0909 46.1332 45.0909 46.1332C45.0909 46.1332 41.7945 47.3791 40.1086 47.5316C38.4227 47.6839 39.3933 49.4889 45.6528 48.6751Z" fill="url(#paint59_linear_59_1470)"/>
<path d="M50.7824 53.2754C48.8254 55.1749 43.3132 48.0132 45.531 45.2734C47.7485 42.5334 52.9241 51.1959 50.7824 53.2754Z" fill="url(#paint60_linear_59_1470)"/>
<path d="M49.1621 35.0225C51.2099 32.2469 57.5781 30.0252 57.0967 35.0493C57.0967 35.0493 57.6084 35.1144 57.9511 36.1047C58.2937 37.0948 58.1064 38.1635 58.1064 38.1635C58.1064 38.1635 58.9252 39.8297 58.286 41.4161C57.6468 43.0023 56.5183 43.5667 56.5183 43.5667C56.5183 43.5667 54.4882 51.683 50.3906 52.6013C47.5814 53.2303 45.7166 49.5942 45.4918 47.299C45.1621 43.9351 48.2398 36.2732 49.1621 35.0225Z" fill="url(#paint61_linear_59_1470)"/>
<path fill-rule="evenodd" clip-rule="evenodd" d="M52.4896 35.5705C52.8344 36.4475 53.8943 36.8289 53.8943 36.8289C53.8943 36.8289 53.2428 38.0997 53.6004 39.142C53.9582 40.1842 54.1829 40.0952 54.1829 40.0952C54.1829 40.0952 53.342 40.8963 53.4954 41.8367C53.6489 42.7774 54.6705 44.1248 56.5183 43.5667C56.5183 43.5667 54.4882 51.683 50.3906 52.6013C48.8156 52.9542 47.5383 51.9647 46.6796 50.6246C50.6697 52.3609 52.703 42.4722 52.703 42.4722C52.703 42.4722 52.2178 42.9297 50.7614 42.3706C49.3053 41.8112 49.2799 40.2863 49.2799 40.2863C49.2799 40.2863 49.5385 35.1131 52.4896 35.5705Z" fill="#D74933"/>
<path d="M50.3081 41.7663C50.3081 41.7663 53.2842 40.6038 52.9307 37.5717C52.577 34.5396 49.7506 35.5851 48.7567 36.9592C47.7631 38.3335 47.1978 42.8977 50.3081 41.7663Z" fill="url(#paint62_linear_59_1470)"/>
<path d="M50.3081 41.7663C50.3081 41.7663 53.2842 40.6038 52.9307 37.5717C52.7744 36.2332 52.1362 35.6909 51.3863 35.6191C51.8099 35.9933 52.2486 36.6865 52.2181 37.9474C52.1609 40.3085 50.0469 41.8191 49.9777 41.8683C50.0834 41.8413 50.1924 41.8085 50.3081 41.7663Z" fill="url(#paint63_linear_59_1470)"/>
<path d="M52.5306 32.8103C51.3937 33.6429 50.4291 34.9902 49.624 36.5791L49.7349 36.513C51.4693 35.4778 51.8124 37.0704 51.8124 37.0704C49.3219 36.4156 48.5136 39.2022 48.3676 39.5788C46.9809 43.5545 46.3643 47.9308 46.3989 49.6473C45.2417 47.438 46.3624 43.502 47.4216 40.0704C48.7818 35.663 50.1517 33.9322 52.5306 32.8103Z" fill="url(#paint64_linear_59_1470)"/>
<path d="M53.9534 36.4678C52.9291 36.3771 52.1787 34.7475 52.9334 33.3822C53.6883 32.0167 55.7479 32.4019 55.7479 32.4019C55.7479 32.4019 52.329 32.7276 53.9534 36.4678Z" fill="url(#paint65_linear_59_1470)"/>
<path d="M53.8926 39.2718C54.2317 40.0925 54.97 40.2802 54.97 40.2802C54.97 40.2802 54.5109 39.718 54.4201 38.884C54.3294 38.05 54.6584 36.9632 54.6584 36.9632C53.9015 36.956 53.5533 38.4514 53.8926 39.2718Z" fill="url(#paint66_linear_59_1470)"/>
<path d="M54.4748 40.2631C54.4748 40.2631 53.5458 41.289 53.978 42.3619C54.4102 43.4346 55.271 43.4613 55.271 43.4613C54.5485 42.9017 54.2536 41.624 54.4748 40.2631Z" fill="url(#paint67_linear_59_1470)"/>
<path fill-rule="evenodd" clip-rule="evenodd" d="M48.8965 39.3458C48.8965 39.3458 48.3315 41.2743 49.4584 41.4554C50.5853 41.6368 51.7066 39.0151 51.7066 39.0151C51.7066 39.0151 49.9441 40.2097 48.8965 39.3458Z" fill="#E94D11"/>
<path fill-rule="evenodd" clip-rule="evenodd" d="M55.53 36.7906C56.5517 36.4093 56.8461 35.3925 56.8461 35.3925C57.6402 36.1496 57.9725 37.3316 57.5259 38.3506C57.0973 39.3297 56.1507 40.5275 54.7638 39.5744C54.7638 39.5744 56.667 39.3457 55.53 36.7906Z" fill="#E94D11"/>
<path fill-rule="evenodd" clip-rule="evenodd" d="M56.3366 40.1517C57.4143 39.8141 57.8585 38.9135 57.8585 38.9135C59.1067 40.1396 57.275 44.0981 55.0123 42.8629C55.0123 42.8629 56.6019 42.1971 56.3366 40.1517Z" fill="#E94D11"/>
<path fill-rule="evenodd" clip-rule="evenodd" d="M55.0216 34.1657C54.9955 33.0147 57.0929 32.2885 56.6273 35.2348C56.4749 36.1974 55.3014 36.9092 54.0345 36.0387C54.0345 36.0387 55.0579 35.7483 55.0216 34.1657Z" fill="#E94D11"/>
<path d="M58.0496 37.7538C58.0496 37.7538 58.7724 39.1782 58.5416 40.8184C58.3106 42.4607 57.1765 43.5987 55.8237 43.7748C55.8237 43.7748 57.1765 43.2474 57.6366 41.5316C58.0964 39.8158 57.444 38.7861 57.444 38.7861L58.0496 37.7538Z" fill="url(#paint68_linear_59_1470)"/>
<path d="M57.105 34.9503C58.6365 35.775 58.9246 39.9478 55.9128 40.3115C55.9128 40.3115 57.3247 39.7581 57.4613 38.1723C57.598 36.5868 56.7698 35.7984 56.7698 35.7984L57.105 34.9503Z" fill="url(#paint69_linear_59_1470)"/>
<path d="M55.3754 32.1094C56.9545 32.4034 57.2354 33.5656 57.2114 34.4731C57.1734 35.8806 56.4774 36.7294 55.0311 36.9179C55.0311 36.9179 56.3445 36.2245 56.4492 34.7442C56.5537 33.2642 55.4172 32.1505 55.3754 32.1094Z" fill="url(#paint70_linear_59_1470)"/>
<path d="M56.3678 44.1114C55.8277 45.9463 53.8423 51.8279 50.3906 52.6013C49.8234 52.7283 49.2957 52.6804 48.8111 52.5057C48.8865 52.4962 51.5012 52.1658 53.1633 49.2346C54.4098 47.0365 54.9657 44.9342 55.1708 43.9865C55.5638 44.0973 55.9888 44.1228 56.3678 44.1114Z" fill="url(#paint71_linear_59_1470)"/>
<path d="M18.6431 82.0519C23.0484 83.1644 27.4248 81.6658 29.9696 79.7328C29.8119 78.7017 29.1393 77.4584 29.1393 77.4584C29.1393 77.4584 30.4686 77.4333 31.9052 76.815C31.9052 76.815 32.0352 77.3302 32.4189 79.3953C36.4866 79.1772 41.3149 78.3582 44.1947 74.8889C43.1279 73.2058 40.6303 66.1872 40.4099 59.8266C39.3486 59.4283 37.9604 59.0565 36.3537 58.7654C36.396 55.2741 36.6042 50.6549 38.512 47.0298C37.7429 47.0536 36.1189 46.5613 35.3162 47.5149C33.5378 49.627 32.4285 54.8718 31.9953 58.2401C28.0681 57.9901 23.575 58.2824 19.4586 59.6061C19.5755 56.4 19.6012 52.9515 21.288 48.6369C21.288 48.6369 19.8415 47.2984 19.4295 47.8465C17.4362 50.4971 16.3333 57.9934 16.0786 60.9878C15.5542 61.2546 15.041 61.542 14.543 61.8539C13.3513 72.1945 19.5829 77.1651 18.6431 82.0519Z" fill="url(#paint72_radial_59_1470)"/>
<path d="M34.8795 58.5083C35.1033 55.0755 35.5622 53.3702 36.8761 49.9429C38.1903 46.5158 36.3961 46.9745 36.3421 46.9693C37.115 46.8354 38.0024 47.0455 38.512 47.0298C36.6042 50.6549 36.396 55.2741 36.3537 58.7654C37.9604 59.0565 39.3486 59.4283 40.4099 59.8266C40.6303 66.1872 43.1279 73.2058 44.1947 74.8889C43.0282 76.2945 41.541 77.2657 39.9146 77.9374L39.1309 78.2348C38.9167 73.3991 36.4806 73.7022 36.4806 73.7022C34.6689 75.4323 34.2004 75.8628 31.7872 76.8636C30.444 77.3941 29.1393 77.4584 29.1393 77.4584C29.1393 77.4584 29.8119 78.7017 29.9696 79.7328C28.8197 80.606 27.2945 81.392 25.563 81.8872C26.9862 80.4749 26.3886 78.2396 24.0637 77.5535C21.7388 76.8674 19.3832 74.7199 19.3832 74.7199C29.7435 78.8543 36.7866 70.5371 34.9472 64.5124C33.7017 60.43 29.2621 58.4706 25.2528 58.3907C27.5661 58.1292 29.8647 58.1044 31.9953 58.2401L31.9992 58.2091L31.9969 58.2386L31.9916 58.2842L31.9896 58.2962L31.9848 58.3308L31.9839 58.3427C32.0254 60.7422 34.8048 59.6583 34.8795 58.5083Z" fill="url(#paint73_linear_59_1470)"/>
<path d="M29.1158 80.3208C29.4186 80.1316 29.7045 79.934 29.9696 79.7328C29.8119 78.7017 29.1393 77.4584 29.1393 77.4584L28.8581 77.0829L28.3222 77.376C28.3222 77.376 28.8452 78.0616 29.0766 79.4309C29.1309 79.7524 29.1369 80.0516 29.1158 80.3208Z" fill="url(#paint74_linear_59_1470)"/>
<path d="M20.4225 47.9804C20.8716 48.2526 21.288 48.6369 21.288 48.6369C19.5988 52.9567 19.5759 56.4085 19.4585 59.6175C19.3336 60.7093 19.2195 61.3731 18.2401 61.6669C18.4187 60.4546 18.2888 56.2866 19.3379 53.2764C20.387 50.2665 20.4225 48.0274 20.4225 47.9804Z" fill="url(#paint75_linear_59_1470)"/>
<path fill-rule="evenodd" clip-rule="evenodd" d="M16.6279 60.1403C17.0366 53.404 19.2087 48.3018 19.6635 48.0824C20.1183 47.8629 20.8999 48.6246 20.8999 48.6246C20.8999 48.6246 19.1884 50.1244 16.6279 60.1403Z" fill="white"/>
<path d="M14.4213 65.5857C15.1753 65.3752 16.0667 64.8841 16.9854 63.8527C16.9854 63.8527 18.5493 70.6637 16.1406 73.1052C15.3148 70.9737 14.5757 68.5274 14.4213 65.5857Z" fill="url(#paint76_linear_59_1470)"/>
<path d="M18.1416 78.0287C19.7103 77.9999 21.6099 77.8934 22.7937 77.7736C22.7937 77.7736 24.0438 80.6082 22.7721 80.8852C22.0059 81.0544 20.2441 81.115 18.739 81.111C18.7558 80.1151 18.5152 79.1029 18.1416 78.0287Z" fill="url(#paint77_linear_59_1470)"/>
<path fill-rule="evenodd" clip-rule="evenodd" d="M32.5208 59.1231C32.9297 52.7166 34.6922 49.5143 35.3669 48.1963C36.0417 46.8786 37.6971 47.354 37.6971 47.354C37.6971 47.354 34.8113 49.2824 32.5208 59.1231Z" fill="white"/>
<path d="M43.7769 74.107C42.0298 75.4771 39.4535 76.8251 38.415 76.9605C37.2069 77.1177 36.0464 74.6903 36.0464 74.6903C37.5109 74.4531 40.8724 72.8005 42.7235 71.461C43.0981 72.544 43.4645 73.4501 43.7769 74.107Z" fill="url(#paint78_linear_59_1470)"/>
<path fill-rule="evenodd" clip-rule="evenodd" d="M19.7721 59.9875C23.1912 58.2502 30.7323 58.4621 30.7323 58.4621C30.7323 58.4621 25.2255 59.2193 22.7986 60.3378C20.3717 61.4563 19.7464 62.4534 19.7464 62.4534C19.7464 62.4534 19.1077 61.2332 19.7721 59.9875Z" fill="white"/>
<path fill-rule="evenodd" clip-rule="evenodd" d="M15.0677 62.432C15.0677 62.432 14.2429 68.3555 17.3583 72.2522C20.4736 76.1487 27.2576 75.1803 27.2576 75.1803C27.2576 75.1803 15.456 74.4796 15.0677 62.432Z" fill="white"/>
<path fill-rule="evenodd" clip-rule="evenodd" d="M32.8681 79.0022C32.8299 78.3917 32.3062 76.854 32.3062 76.854C32.3062 76.854 32.8808 76.7268 33.2643 76.5743C33.6475 76.422 35.6379 78.4614 36.3554 78.5321C36.3554 78.5321 35.1932 78.9005 32.8681 79.0022Z" fill="white"/>
<path fill-rule="evenodd" clip-rule="evenodd" d="M17.9071 76.3334C17.9071 76.3334 19.0035 78.6336 19.1951 79.7633C19.3867 80.8928 19.3039 81.7843 19.3039 81.7843C19.3039 81.7843 20.3544 81.9645 21.6766 81.9865C22.9989 82.008 23.8729 81.5908 23.8729 81.5908C23.8729 81.5908 20.7324 81.5264 17.9071 76.3334Z" fill="white"/>
<path d="M24.8821 77.0327C24.8821 77.0327 30.245 77.7214 34.0262 74.4678C37.8074 71.214 37.9477 68.0842 37.9477 68.0842C37.4864 74.9548 31.2554 78.5829 24.8821 77.0327Z" fill="url(#paint79_linear_59_1470)"/>
<path fill-rule="evenodd" clip-rule="evenodd" d="M37.3546 58.9632C37.0318 58.894 36.6983 58.8279 36.3549 58.7654C36.3573 58.8076 36.4349 59.8972 35.8583 60.4578C35.3555 60.9472 37.3399 60.6647 37.3546 58.9632Z" fill="#D9DADB"/>
<path d="M41.8246 68.5374C39.6791 69.6857 36.4588 69.9971 34.3705 68.9853C31.1569 67.4292 31.0364 62.1746 31.0364 62.1746C35.4086 62.355 38.5097 62.1197 40.5489 61.8276C40.7856 64.154 41.2687 66.4853 41.8246 68.5374Z" fill="url(#paint80_linear_59_1470)"/>
<path d="M40.5489 61.8276C40.6262 62.5907 40.7302 63.3547 40.8548 64.1086L40.8885 64.3238L40.8894 64.3286L40.9086 64.4308L40.9278 64.5372L40.9423 64.6257L40.9446 64.6448L40.9639 64.7512L40.9831 64.8584L41.0229 65.0715L41.0421 65.1777C41.076 65.3547 41.1111 65.5308 41.1471 65.7062L41.1663 65.7979L41.1687 65.8098L41.1903 65.9148L41.191 65.9172C41.2712 66.2997 41.356 66.6768 41.4439 67.0483L41.4679 67.15L41.4921 67.251L41.5166 67.3523L41.5903 67.6523L41.5927 67.6618L41.6405 67.8511L41.6662 67.9499L41.691 68.0475L41.762 68.3171L41.7692 68.3415L41.7949 68.4382L41.8216 68.535C39.8096 69.612 36.8518 69.9531 34.7694 69.1562C35.3107 67.6151 35.3969 65.9933 34.944 64.5102C34.6847 63.6604 34.2882 62.902 33.7847 62.2338C36.7423 62.2433 38.9622 62.052 40.5444 61.8255L40.5489 61.8276Z" fill="url(#paint81_linear_59_1470)"/>
<path d="M42.553 76.4519C43.148 76.0023 43.701 75.4841 44.1947 74.8889C43.1279 73.2058 40.6303 66.1872 40.4099 59.8266C40.1311 59.7218 39.8281 59.6199 39.5064 59.5201C39.5616 64.8398 40.7905 71.3417 42.553 76.4519Z" fill="url(#paint82_linear_59_1470)"/>
<defs>
<radialGradient id="paint0_radial_59_1470" cx="0" cy="0" r="1" gradientUnits="userSpaceOnUse" gradientTransform="translate(34.31 46.9999) scale(14.6 20)">
<stop stop-color="#FCB900"/>
<stop offset="1" stop-color="#F07C00"/>
</radialGradient>
<radialGradient id="paint1_radial_59_1470" cx="0" cy="0" r="1" gradientUnits="userSpaceOnUse" gradientTransform="translate(52.56 72) scale(73 100)">
<stop stop-color="#FFCB00"/>
<stop offset="1" stop-color="#F8A600"/>
</radialGradient>
<linearGradient id="paint2_linear_59_1470" x1="3.91601e-05" y1="-0.00021747" x2="3.91601e-05" y2="99.9995" gradientUnits="userSpaceOnUse">
<stop stop-color="#F07C00"/>
<stop offset="1" stop-color="#FFEC00"/>
</linearGradient>
<linearGradient id="paint3_linear_59_1470" x1="0.000113129" y1="0.000209671" x2="0.000113129" y2="99.9999" gradientUnits="userSpaceOnUse">
<stop stop-color="#F07C00"/>
<stop offset="1" stop-color="#FFEC00"/>
</linearGradient>
<linearGradient id="paint4_linear_59_1470" x1="1.30534e-05" y1="2.85091e-05" x2="1.30534e-05" y2="100" gradientUnits="userSpaceOnUse">
<stop stop-color="#F07C00"/>
<stop offset="0.49" stop-color="#9EDBF4"/>
<stop offset="1" stop-color="#D10016"/>
</linearGradient>
<linearGradient id="paint5_linear_59_1470" x1="0" y1="-1.41168e-05" x2="0" y2="100" gradientUnits="userSpaceOnUse">
<stop stop-color="#F07C00"/>
<stop offset="1" stop-color="#D10016"/>
</linearGradient>
<linearGradient id="paint6_linear_59_1470" x1="-0.000228436" y1="5.75427e-05" x2="-0.000228436" y2="100" gradientUnits="userSpaceOnUse">
<stop stop-color="#F8A600"/>
<stop offset="1" stop-color="#F07C00"/>
</linearGradient>
<linearGradient id="paint7_linear_59_1470" x1="-2.39313e-05" y1="-0.000119273" x2="-2.39313e-05" y2="100" gradientUnits="userSpaceOnUse">
<stop stop-color="#F07C00"/>
<stop offset="0.49" stop-color="#9EDBF4"/>
<stop offset="0.74" stop-color="#A49ECA"/>
<stop offset="1" stop-color="#D10016"/>
</linearGradient>
<linearGradient id="paint8_linear_59_1470" x1="-0.000106603" y1="0.000179153" x2="-0.000106603" y2="100" gradientUnits="userSpaceOnUse">
<stop stop-color="#F07C00"/>
<stop offset="0.49" stop-color="#9EDBF4"/>
<stop offset="0.74" stop-color="#A49ECA"/>
<stop offset="1" stop-color="#D10016"/>
</linearGradient>
<linearGradient id="paint9_linear_59_1470" x1="-0.000511261" y1="-0.000746844" x2="-0.000511261" y2="99.9997" gradientUnits="userSpaceOnUse">
<stop stop-color="#FFCB00"/>
<stop offset="1" stop-color="#F07C00"/>
</linearGradient>
<linearGradient id="paint10_linear_59_1470" x1="-0.00108562" y1="-0.000704541" x2="-0.00108562" y2="100.001" gradientUnits="userSpaceOnUse">
<stop stop-color="#FFCB00"/>
<stop offset="1" stop-color="#F07C00"/>
</linearGradient>
<linearGradient id="paint11_linear_59_1470" x1="0.000239309" y1="0.000280714" x2="0.000239309" y2="99.9986" gradientUnits="userSpaceOnUse">
<stop stop-color="#FFCB00"/>
<stop offset="1" stop-color="#F07C00"/>
</linearGradient>
<linearGradient id="paint12_linear_59_1470" x1="-9.35502e-05" y1="-2.75304e-05" x2="-9.35502e-05" y2="100.001" gradientUnits="userSpaceOnUse">
<stop stop-color="#FFCB00"/>
<stop offset="1" stop-color="#F07C00"/>
</linearGradient>
<linearGradient id="paint13_linear_59_1470" x1="0.000308932" y1="0.000219684" x2="0.000308932" y2="100" gradientUnits="userSpaceOnUse">
<stop stop-color="#FFCB00"/>
<stop offset="1" stop-color="#EC650A"/>
</linearGradient>
<linearGradient id="paint14_linear_59_1470" x1="-1.30534e-05" y1="-8.73411e-05" x2="-1.30534e-05" y2="100" gradientUnits="userSpaceOnUse">
<stop stop-color="#F07C00"/>
<stop offset="1" stop-color="#D10016"/>
</linearGradient>
<linearGradient id="paint15_linear_59_1470" x1="0.000165344" y1="8.42615e-05" x2="0.000165344" y2="100" gradientUnits="userSpaceOnUse">
<stop stop-color="#F07C00"/>
<stop offset="1" stop-color="#FFCB00"/>
</linearGradient>
<linearGradient id="paint16_linear_59_1470" x1="0.000182748" y1="-7.53219e-05" x2="0.000182748" y2="99.9998" gradientUnits="userSpaceOnUse">
<stop stop-color="#F07C00"/>
<stop offset="0.49" stop-color="#9EDBF4"/>
<stop offset="0.74" stop-color="#A49ECA"/>
<stop offset="1" stop-color="#D10016"/>
</linearGradient>
<linearGradient id="paint17_linear_59_1470" x1="2.17557e-05" y1="0.000152634" x2="2.17557e-05" y2="100" gradientUnits="userSpaceOnUse">
<stop stop-color="#F07C00"/>
<stop offset="1" stop-color="#D10016"/>
</linearGradient>
<linearGradient id="paint18_linear_59_1470" x1="8.70229e-06" y1="-0.000366552" x2="8.70229e-06" y2="99.9998" gradientUnits="userSpaceOnUse">
<stop stop-color="#F07C00"/>
<stop offset="0.56" stop-color="#F8A600"/>
<stop offset="1" stop-color="#FFCB00"/>
</linearGradient>
<linearGradient id="paint19_linear_59_1470" x1="3.48089e-05" y1="0.000272337" x2="3.48089e-05" y2="99.9997" gradientUnits="userSpaceOnUse">
<stop stop-color="#F07C00"/>
<stop offset="1" stop-color="#FFCB00"/>
</linearGradient>
<linearGradient id="paint20_linear_59_1470" x1="-8.4847e-05" y1="0.000117475" x2="-8.4847e-05" y2="99.9999" gradientUnits="userSpaceOnUse">
<stop stop-color="#F07C00"/>
<stop offset="0.49" stop-color="#9EDBF4"/>
<stop offset="0.74" stop-color="#A49ECA"/>
<stop offset="1" stop-color="#D10016"/>
</linearGradient>
<linearGradient id="paint21_linear_59_1470" x1="3.04579e-05" y1="0.000146089" x2="3.04579e-05" y2="99.9998" gradientUnits="userSpaceOnUse">
<stop stop-color="#F8A600"/>
<stop offset="1" stop-color="#FFCB00"/>
</linearGradient>
<linearGradient id="paint22_linear_59_1470" x1="2.61069e-05" y1="-0.000282101" x2="2.61069e-05" y2="100" gradientUnits="userSpaceOnUse">
<stop stop-color="#F49100"/>
<stop offset="0.55" stop-color="#9EDBF4"/>
<stop offset="1" stop-color="#FFCB00"/>
</linearGradient>
<linearGradient id="paint23_linear_59_1470" x1="0.000108778" y1="0.000470467" x2="0.000108778" y2="100" gradientUnits="userSpaceOnUse">
<stop stop-color="#FFCB00"/>
<stop offset="0.34" stop-color="#E30016"/>
<stop offset="1" stop-color="#AE0B14"/>
</linearGradient>
<radialGradient id="paint24_radial_59_1470" cx="0" cy="0" r="1" gradientUnits="userSpaceOnUse" gradientTransform="translate(30.2951 41.4995) scale(73 100)">
<stop stop-color="white"/>
<stop offset="1" stop-color="#9EDBF4"/>
</radialGradient>
<linearGradient id="paint25_linear_59_1470" x1="0.0001871" y1="0.00103294" x2="0.0001871" y2="100.002" gradientUnits="userSpaceOnUse">
<stop stop-color="#004394"/>
<stop offset="1" stop-color="#009EE0"/>
</linearGradient>
<linearGradient id="paint26_linear_59_1470" x1="0.000100076" y1="-0.000290435" x2="0.000100076" y2="99.9997" gradientUnits="userSpaceOnUse">
<stop stop-color="#F8A600"/>
<stop offset="1" stop-color="#FFCB00"/>
</linearGradient>
<linearGradient id="paint27_linear_59_1470" x1="-0.000474271" y1="-0.000506475" x2="-0.000474271" y2="99.9989" gradientUnits="userSpaceOnUse">
<stop stop-color="#F07C00"/>
<stop offset="1" stop-color="#FFEC00"/>
</linearGradient>
<linearGradient id="paint28_linear_59_1470" x1="-0.000130533" y1="0.000133631" x2="-0.000130533" y2="99.9996" gradientUnits="userSpaceOnUse">
<stop stop-color="#F07C00"/>
<stop offset="0.27" stop-color="#E30016"/>
<stop offset="1" stop-color="#540D16"/>
</linearGradient>
<linearGradient id="paint29_linear_59_1470" x1="0.000304587" y1="-0.00200073" x2="0.000304587" y2="100" gradientUnits="userSpaceOnUse">
<stop stop-color="#C00415"/>
<stop offset="1" stop-color="#540D16"/>
</linearGradient>
<linearGradient id="paint30_linear_59_1470" x1="-0.000100076" y1="0.00217511" x2="-0.000100076" y2="100.001" gradientUnits="userSpaceOnUse">
<stop stop-color="#FCB900"/>
<stop offset="1" stop-color="#F8A600"/>
</linearGradient>
<linearGradient id="paint31_linear_59_1470" x1="1.30534e-05" y1="0.000241471" x2="1.30534e-05" y2="100" gradientUnits="userSpaceOnUse">
<stop stop-color="#F07C00"/>
<stop offset="1" stop-color="#D10016"/>
</linearGradient>
<linearGradient id="paint32_linear_59_1470" x1="0.000108778" y1="9.0693e-06" x2="0.000108778" y2="99.9999" gradientUnits="userSpaceOnUse">
<stop stop-color="#F07C00"/>
<stop offset="1" stop-color="#FFCB00"/>
</linearGradient>
<linearGradient id="paint33_linear_59_1470" x1="-6.09158e-05" y1="0.000154198" x2="-6.09158e-05" y2="99.9999" gradientUnits="userSpaceOnUse">
<stop stop-color="#F07C00"/>
<stop offset="0.49" stop-color="#9EDBF4"/>
<stop offset="0.74" stop-color="#A49ECA"/>
<stop offset="1" stop-color="#D10016"/>
</linearGradient>
<linearGradient id="paint34_linear_59_1470" x1="1.30535e-05" y1="-0.00050318" x2="1.30535e-05" y2="100" gradientUnits="userSpaceOnUse">
<stop stop-color="#FEC200"/>
<stop offset="1" stop-color="#F07C00"/>
</linearGradient>
<linearGradient id="paint35_linear_59_1470" x1="3.04581e-05" y1="-0.000510446" x2="3.04581e-05" y2="99.9999" gradientUnits="userSpaceOnUse">
<stop stop-color="#9EDBF4"/>
<stop offset="1" stop-color="#F07C00"/>
</linearGradient>
<radialGradient id="paint36_radial_59_1470" cx="0" cy="0" r="1" gradientUnits="userSpaceOnUse" gradientTransform="translate(21.1701 28.9998) scale(73 100)">
<stop stop-color="#F8A600"/>
<stop offset="1" stop-color="#F07C00"/>
</radialGradient>
<linearGradient id="paint37_linear_59_1470" x1="7.83203e-05" y1="-3.45855e-05" x2="7.83203e-05" y2="99.9997" gradientUnits="userSpaceOnUse">
<stop stop-color="#F07E3D"/>
<stop offset="1" stop-color="#540D16"/>
</linearGradient>
<linearGradient id="paint38_linear_59_1470" x1="0.000339388" y1="4.56142e-06" x2="0.000339388" y2="99.9998" gradientUnits="userSpaceOnUse">
<stop stop-color="#F8A600"/>
<stop offset="1" stop-color="#FFCB00"/>
</linearGradient>
<linearGradient id="paint39_linear_59_1470" x1="0.00061248" y1="-0.00172853" x2="73.0003" y2="-0.00172853" gradientUnits="userSpaceOnUse">
<stop stop-color="#FFEC00"/>
<stop offset="1" stop-color="#F49100"/>
</linearGradient>
<linearGradient id="paint40_linear_59_1470" x1="-0.00016752" y1="-0.000555401" x2="-0.00016752" y2="100" gradientUnits="userSpaceOnUse">
<stop stop-color="#A65B45"/>
<stop offset="1" stop-color="#540D16"/>
</linearGradient>
<linearGradient id="paint41_linear_59_1470" x1="0.000400306" y1="-8.60321e-05" x2="0.000400306" y2="100" gradientUnits="userSpaceOnUse">
<stop stop-color="#9EDBF4"/>
<stop offset="1" stop-color="#7D301E"/>
</linearGradient>
<linearGradient id="paint42_linear_59_1470" x1="-0.000881092" y1="0.000963905" x2="-0.000881092" y2="99.9994" gradientUnits="userSpaceOnUse">
<stop stop-color="#F07C00"/>
<stop offset="1" stop-color="#AE0B14"/>
</linearGradient>
<linearGradient id="paint43_linear_59_1470" x1="-6.96185e-05" y1="-0.000266786" x2="-6.96185e-05" y2="100" gradientUnits="userSpaceOnUse">
<stop stop-color="#A65B45"/>
<stop offset="1" stop-color="#540D16"/>
</linearGradient>
<linearGradient id="paint44_linear_59_1470" x1="-8.04956e-05" y1="0.000334637" x2="-8.04956e-05" y2="99.9998" gradientUnits="userSpaceOnUse">
<stop stop-color="#A65B45"/>
<stop offset="1" stop-color="#540D16"/>
</linearGradient>
<linearGradient id="paint45_linear_59_1470" x1="-6.52665e-06" y1="-0.000802616" x2="-6.52665e-06" y2="99.9983" gradientUnits="userSpaceOnUse">
<stop stop-color="#A65B45"/>
<stop offset="1" stop-color="#540D16"/>
</linearGradient>
<linearGradient id="paint46_linear_59_1470" x1="-0.000169694" y1="0.00015848" x2="-0.000169694" y2="100" gradientUnits="userSpaceOnUse">
<stop stop-color="#F07C00"/>
<stop offset="1" stop-color="#FAB000"/>
</linearGradient>
<linearGradient id="paint47_linear_59_1470" x1="-8.26717e-05" y1="6.41753e-05" x2="-8.26717e-05" y2="100" gradientUnits="userSpaceOnUse">
<stop stop-color="#F07C00"/>
<stop offset="1" stop-color="#D42F14"/>
</linearGradient>
<linearGradient id="paint48_linear_59_1470" x1="8.26716e-05" y1="0.000123531" x2="8.26716e-05" y2="100" gradientUnits="userSpaceOnUse">
<stop stop-color="#F07C00"/>
<stop offset="0.49" stop-color="#9EDBF4"/>
<stop offset="1" stop-color="#D10016"/>
</linearGradient>
<linearGradient id="paint49_linear_59_1470" x1="0" y1="5.91128e-05" x2="0" y2="99.9999" gradientUnits="userSpaceOnUse">
<stop stop-color="#FFCB00"/>
<stop offset="1" stop-color="#F07C00"/>
</linearGradient>
<linearGradient id="paint50_linear_59_1470" x1="-3.69847e-05" y1="0.00013036" x2="-3.69847e-05" y2="100" gradientUnits="userSpaceOnUse">
<stop stop-color="#FFCB00"/>
<stop offset="1" stop-color="#F07C00"/>
</linearGradient>
<linearGradient id="paint51_linear_59_1470" x1="7.39693e-05" y1="-7.60226e-05" x2="7.39693e-05" y2="99.9999" gradientUnits="userSpaceOnUse">
<stop stop-color="#F07C00"/>
<stop offset="1" stop-color="#D42F14"/>
</linearGradient>
<linearGradient id="paint52_linear_59_1470" x1="3.91603e-05" y1="-0.000394701" x2="3.91603e-05" y2="99.9996" gradientUnits="userSpaceOnUse">
<stop stop-color="#FFCB00"/>
<stop offset="1" stop-color="#F07C00"/>
</linearGradient>
<linearGradient id="paint53_linear_59_1470" x1="0.000100076" y1="9.25641e-05" x2="0.000100076" y2="100" gradientUnits="userSpaceOnUse">
<stop stop-color="#FFCB00"/>
<stop offset="1" stop-color="#F07C00"/>
</linearGradient>
<linearGradient id="paint54_linear_59_1470" x1="0.000191449" y1="0.000411883" x2="0.000191449" y2="99.9997" gradientUnits="userSpaceOnUse">
<stop stop-color="#F07C00"/>
<stop offset="0.49" stop-color="#9EDBF4"/>
<stop offset="1" stop-color="#D10016"/>
</linearGradient>
<linearGradient id="paint55_linear_59_1470" x1="2.17561e-05" y1="-0.00131154" x2="2.17561e-05" y2="100.001" gradientUnits="userSpaceOnUse">
<stop stop-color="#B1C900"/>
<stop offset="1" stop-color="#009035"/>
</linearGradient>
<linearGradient id="paint56_linear_59_1470" x1="-4.78629e-05" y1="-0.00056681" x2="-4.78629e-05" y2="100" gradientUnits="userSpaceOnUse">
<stop stop-color="#B1C900"/>
<stop offset="1" stop-color="#009035"/>
</linearGradient>
<linearGradient id="paint57_linear_59_1470" x1="-0.000113129" y1="0.00021463" x2="-0.000113129" y2="99.9999" gradientUnits="userSpaceOnUse">
<stop stop-color="#B1C900"/>
<stop offset="1" stop-color="#009035"/>
</linearGradient>
<linearGradient id="paint58_linear_59_1470" x1="0.000182748" y1="0.000200661" x2="0.000182748" y2="100" gradientUnits="userSpaceOnUse">
<stop stop-color="#B1C900"/>
<stop offset="1" stop-color="#009035"/>
</linearGradient>
<linearGradient id="paint59_linear_59_1470" x1="-2.17559e-06" y1="-0.000912626" x2="-2.17559e-06" y2="100" gradientUnits="userSpaceOnUse">
<stop stop-color="#B1C900"/>
<stop offset="1" stop-color="#009035"/>
</linearGradient>
<linearGradient id="paint60_linear_59_1470" x1="0.000113129" y1="8.40126e-05" x2="0.000113129" y2="100" gradientUnits="userSpaceOnUse">
<stop stop-color="#005D24"/>
<stop offset="1" stop-color="#007D2F"/>
</linearGradient>
<linearGradient id="paint61_linear_59_1470" x1="6.52672e-05" y1="-7.19734e-05" x2="6.52672e-05" y2="100" gradientUnits="userSpaceOnUse">
<stop stop-color="#F07C00"/>
<stop offset="1" stop-color="#D10016"/>
</linearGradient>
<linearGradient id="paint62_linear_59_1470" x1="6.52669e-05" y1="1.84512e-05" x2="6.52669e-05" y2="99.9997" gradientUnits="userSpaceOnUse">
<stop stop-color="#F8A600"/>
<stop offset="1" stop-color="#F07C00"/>
</linearGradient>
<linearGradient id="paint63_linear_59_1470" x1="-1.52289e-05" y1="0.000459326" x2="-1.52289e-05" y2="99.9998" gradientUnits="userSpaceOnUse">
<stop stop-color="#F07C00"/>
<stop offset="0.49" stop-color="#9EDBF4"/>
<stop offset="1" stop-color="#F07C00"/>
</linearGradient>
<linearGradient id="paint64_linear_59_1470" x1="4.35114e-05" y1="3.2838e-05" x2="4.35114e-05" y2="100" gradientUnits="userSpaceOnUse">
<stop stop-color="#FFCB00"/>
<stop offset="1" stop-color="#EC650A"/>
</linearGradient>
<linearGradient id="paint65_linear_59_1470" x1="0.000178396" y1="-0.000880621" x2="0.000178396" y2="99.9986" gradientUnits="userSpaceOnUse">
<stop stop-color="#FFCB00"/>
<stop offset="1" stop-color="#F07C00"/>
</linearGradient>
<linearGradient id="paint66_linear_59_1470" x1="-0.000868054" y1="-5.36521e-05" x2="-0.000868054" y2="100" gradientUnits="userSpaceOnUse">
<stop stop-color="#FFCB00"/>
<stop offset="1" stop-color="#F07C00"/>
</linearGradient>
<linearGradient id="paint67_linear_59_1470" x1="-0.000774501" y1="-0.000257607" x2="-0.000774501" y2="99.9995" gradientUnits="userSpaceOnUse">
<stop stop-color="#FFCB00"/>
<stop offset="1" stop-color="#F07C00"/>
</linearGradient>
<linearGradient id="paint68_linear_59_1470" x1="-0.000330688" y1="-0.00045067" x2="-0.000330688" y2="99.9998" gradientUnits="userSpaceOnUse">
<stop stop-color="#F07C00"/>
<stop offset="0.49" stop-color="#9EDBF4"/>
<stop offset="1" stop-color="#D10016"/>
</linearGradient>
<linearGradient id="paint69_linear_59_1470" x1="-3.91602e-05" y1="-0.000474816" x2="-3.91602e-05" y2="99.9994" gradientUnits="userSpaceOnUse">
<stop stop-color="#F07C00"/>
<stop offset="0.49" stop-color="#9EDBF4"/>
<stop offset="1" stop-color="#D10016"/>
</linearGradient>
<linearGradient id="paint70_linear_59_1470" x1="0.000108779" y1="0.000831836" x2="0.000108779" y2="100.001" gradientUnits="userSpaceOnUse">
<stop stop-color="#F07C00"/>
<stop offset="0.49" stop-color="#9EDBF4"/>
<stop offset="1" stop-color="#D10016"/>
</linearGradient>
<linearGradient id="paint71_linear_59_1470" x1="-0.000100077" y1="-0.000749674" x2="-0.000100077" y2="99.9996" gradientUnits="userSpaceOnUse">
<stop stop-color="#F07C00"/>
<stop offset="0.49" stop-color="#9EDBF4"/>
<stop offset="1" stop-color="#D10016"/>
</linearGradient>
<radialGradient id="paint72_radial_59_1470" cx="0" cy="0" r="1" gradientUnits="userSpaceOnUse" gradientTransform="translate(29.2 40) scale(20.44 28)">
<stop stop-color="#FDD5A5"/>
<stop offset="1" stop-color="#E8AE3F"/>
</radialGradient>
<linearGradient id="paint73_linear_59_1470" x1="2.61068e-05" y1="-2.90233e-05" x2="2.61068e-05" y2="100" gradientUnits="userSpaceOnUse">
<stop stop-color="#DA8C22"/>
<stop offset="1" stop-color="#E8AE3F"/>
</linearGradient>
<linearGradient id="paint74_linear_59_1470" x1="-0.000304579" y1="0.000105179" x2="-0.000304579" y2="99.9999" gradientUnits="userSpaceOnUse">
<stop stop-color="#D7B369"/>
<stop offset="0.68" stop-color="#9EDBF4"/>
<stop offset="1" stop-color="#D7B369"/>
</linearGradient>
<linearGradient id="paint75_linear_59_1470" x1="-0.00033286" y1="0.000390206" x2="-0.00033286" y2="99.9998" gradientUnits="userSpaceOnUse">
<stop stop-color="#DA8C22"/>
<stop offset="1" stop-color="#E8AE3F"/>
</linearGradient>
<linearGradient id="paint76_linear_59_1470" x1="1.30534e-05" y1="0.000524267" x2="1.30534e-05" y2="100.001" gradientUnits="userSpaceOnUse">
<stop stop-color="#3B3B3B"/>
<stop offset="1" stop-color="#6E7071"/>
</linearGradient>
<linearGradient id="paint77_linear_59_1470" x1="-0.000137063" y1="-0.000941685" x2="-0.000137063" y2="100" gradientUnits="userSpaceOnUse">
<stop stop-color="#3B3B3B"/>
<stop offset="1" stop-color="#6E7071"/>
</linearGradient>
<linearGradient id="paint78_linear_59_1470" x1="0.000313286" y1="-0.000933828" x2="0.000313286" y2="100" gradientUnits="userSpaceOnUse">
<stop stop-color="#3B3B3B"/>
<stop offset="1" stop-color="#6E7071"/>
</linearGradient>
<linearGradient id="paint79_linear_59_1470" x1="-6.52672e-06" y1="-0.000260694" x2="-6.52672e-06" y2="99.9999" gradientUnits="userSpaceOnUse">
<stop stop-color="#D7B369"/>
<stop offset="0.68" stop-color="#9EDBF4"/>
<stop offset="1" stop-color="#D7B369"/>
</linearGradient>
<linearGradient id="paint80_linear_59_1470" x1="0.000134885" y1="0.000190663" x2="0.000134885" y2="100" gradientUnits="userSpaceOnUse">
<stop stop-color="#3B3B3B"/>
<stop offset="1" stop-color="#333333"/>
</linearGradient>
<linearGradient id="paint81_linear_59_1470" x1="7.39692e-05" y1="0.000300133" x2="7.39692e-05" y2="100" gradientUnits="userSpaceOnUse">
<stop stop-color="#3B3B3B"/>
<stop offset="1" stop-color="#9C9E9F"/>
</linearGradient>
<linearGradient id="paint82_linear_59_1470" x1="39.5063" y1="59.5201" x2="39.5063" y2="76.4519" gradientUnits="userSpaceOnUse">
<stop stop-color="#D7B369"/>
<stop offset="0.68" stop-color="#9EDBF4"/>
<stop offset="1" stop-color="#D7B369"/>
</linearGradient>
</defs>
</svg>
