<svg width="173" height="52" viewBox="0 0 173 52" fill="none" xmlns="http://www.w3.org/2000/svg">
<rect width="173" height="52" rx="5" fill="black"/>
<rect x="0.5" y="0.5" width="172" height="51" rx="4.5" stroke="#70C700" stroke-opacity="0.2"/>
<path d="M21.0961 11.8196C18.5577 9.39348 14.4423 9.39348 11.9039 11.8196C11.3012 12.3917 10.8223 13.075 10.4954 13.8295C10.1684 14.584 10 15.3944 10 16.213C10 17.0317 10.1684 17.8421 10.4954 18.5966C10.8223 19.3511 11.3012 20.0344 11.9039 20.6065L16.4996 25L21.0961 20.6065C21.6988 20.0344 22.1777 19.3511 22.5046 18.5966C22.8316 17.8421 23 17.0317 23 16.213C23 15.3944 22.8316 14.584 22.5046 13.8295C22.1777 13.075 21.6988 12.3917 21.0961 11.8196ZM16.4996 18.2894C15.9568 18.2894 15.4474 18.0841 15.063 17.7115C14.6826 17.341 14.4689 16.839 14.4689 16.3157C14.4689 15.7923 14.6826 15.2903 15.063 14.9199C15.4466 14.5472 15.9568 14.342 16.4996 14.342C17.0424 14.342 17.5526 14.5472 17.9362 14.9199C18.3166 15.2903 18.5303 15.7923 18.5303 16.3157C18.5303 16.839 18.3166 17.341 17.9362 17.7115C17.5526 18.0841 17.0424 18.2894 16.4996 18.2894Z" fill="white"/>
<path d="M34.534 24V21.984H28.9V19.698L32.986 11.04H35.794L31.708 19.698H34.534V16.458H37.018V19.698H38.17V21.984H37.018V24H34.534ZM39.8027 26.43L39.9467 25.404C40.2347 25.428 40.4687 25.38 40.6487 25.26C40.8287 25.146 40.9517 24.978 41.0177 24.756C41.0897 24.54 41.1047 24.288 41.0627 24H39.8027V21.552H42.2507V24C42.2507 24.864 42.0497 25.518 41.6477 25.962C41.2457 26.406 40.6307 26.562 39.8027 26.43ZM50.016 24.27C49.14 24.27 48.36 24.093 47.676 23.739C46.998 23.379 46.464 22.887 46.074 22.263C45.69 21.633 45.498 20.916 45.498 20.112C45.498 19.428 45.651 18.783 45.957 18.177C46.269 17.571 46.716 17.076 47.298 16.692L47.244 17.448C46.806 17.022 46.461 16.572 46.209 16.098C45.963 15.624 45.84 15.09 45.84 14.496C45.84 13.746 46.017 13.092 46.371 12.534C46.731 11.976 47.223 11.544 47.847 11.238C48.477 10.926 49.2 10.77 50.016 10.77C50.832 10.77 51.552 10.926 52.176 11.238C52.806 11.544 53.298 11.976 53.652 12.534C54.012 13.092 54.192 13.746 54.192 14.496C54.192 15.09 54.075 15.624 53.841 16.098C53.607 16.566 53.25 17.022 52.77 17.466V16.71C53.34 17.07 53.778 17.556 54.084 18.168C54.396 18.78 54.552 19.428 54.552 20.112C54.552 20.916 54.357 21.633 53.967 22.263C53.577 22.887 53.04 23.379 52.356 23.739C51.672 24.093 50.892 24.27 50.016 24.27ZM50.016 21.966C50.592 21.966 51.06 21.81 51.42 21.498C51.78 21.186 51.96 20.724 51.96 20.112C51.96 19.506 51.78 19.044 51.42 18.726C51.06 18.402 50.592 18.24 50.016 18.24C49.44 18.24 48.975 18.402 48.621 18.726C48.267 19.044 48.09 19.506 48.09 20.112C48.09 20.724 48.267 21.186 48.621 21.498C48.975 21.81 49.44 21.966 50.016 21.966ZM50.016 15.918C50.484 15.918 50.865 15.804 51.159 15.576C51.453 15.342 51.6 14.982 51.6 14.496C51.6 14.01 51.453 13.65 51.159 13.416C50.865 13.176 50.484 13.056 50.016 13.056C49.548 13.056 49.167 13.176 48.873 13.416C48.579 13.65 48.432 14.01 48.432 14.496C48.432 14.982 48.579 15.342 48.873 15.576C49.167 15.804 49.548 15.918 50.016 15.918Z" fill="white"/>
<path d="M73.3648 12.556C74.315 10.852 74.7898 10 75.5 10C76.2102 10 76.685 10.852 77.6352 12.556L77.8812 12.997C78.1512 13.4815 78.2862 13.7238 78.4962 13.8835C78.7062 14.0433 78.9687 14.1025 79.4937 14.221L79.9706 14.329C81.8156 14.7468 82.7373 14.9553 82.9571 15.661C83.1761 16.366 82.5476 17.1018 81.2899 18.5726L80.9644 18.9528C80.6074 19.3706 80.4281 19.5798 80.3479 19.8378C80.2676 20.0966 80.2946 20.3756 80.3486 20.9328L80.3981 21.4406C80.5879 23.4033 80.6831 24.3843 80.1086 24.8201C79.5342 25.2558 78.6702 24.8583 76.9437 24.0633L76.496 23.8578C76.0055 23.6313 75.7602 23.5188 75.5 23.5188C75.2398 23.5188 74.9945 23.6313 74.504 23.8578L74.057 24.0633C72.3298 24.8583 71.4658 25.2558 70.8921 24.8208C70.3169 24.3843 70.4121 23.4033 70.6019 21.4406L70.6514 20.9336C70.7054 20.3756 70.7324 20.0966 70.6514 19.8386C70.5719 19.5798 70.3926 19.3706 70.0356 18.9536L69.7101 18.5726C68.4524 17.1025 67.8239 16.3668 68.0429 15.661C68.2619 14.9553 69.1851 14.746 71.0301 14.329L71.5071 14.221C72.0313 14.1025 72.2931 14.0433 72.5038 13.8835C72.7146 13.7238 72.8488 13.4815 73.1188 12.997L73.3648 12.556Z" fill="#E76D00"/>
<path d="M93.3648 12.556C94.315 10.852 94.7898 10 95.5 10C96.2102 10 96.685 10.852 97.6352 12.556L97.8812 12.997C98.1512 13.4815 98.2862 13.7238 98.4962 13.8835C98.7062 14.0433 98.9687 14.1025 99.4937 14.221L99.9706 14.329C101.816 14.7468 102.737 14.9553 102.957 15.661C103.176 16.366 102.548 17.1018 101.29 18.5726L100.964 18.9528C100.607 19.3706 100.428 19.5798 100.348 19.8378C100.268 20.0966 100.295 20.3756 100.349 20.9328L100.398 21.4406C100.588 23.4033 100.683 24.3843 100.109 24.8201C99.5342 25.2558 98.6702 24.8583 96.9437 24.0633L96.496 23.8578C96.0055 23.6313 95.7602 23.5188 95.5 23.5188C95.2398 23.5188 94.9945 23.6313 94.504 23.8578L94.057 24.0633C92.3298 24.8583 91.4658 25.2558 90.8921 24.8208C90.3169 24.3843 90.4121 23.4033 90.6019 21.4406L90.6514 20.9336C90.7054 20.3756 90.7324 20.0966 90.6514 19.8386C90.5719 19.5798 90.3926 19.3706 90.0356 18.9536L89.7101 18.5726C88.4524 17.1025 87.8239 16.3668 88.0429 15.661C88.2619 14.9553 89.1851 14.746 91.0301 14.329L91.5071 14.221C92.0313 14.1025 92.2931 14.0433 92.5038 13.8835C92.7146 13.7238 92.8488 13.4815 93.1188 12.997L93.3648 12.556Z" fill="#E76D00"/>
<path d="M113.365 12.556C114.315 10.852 114.79 10 115.5 10C116.21 10 116.685 10.852 117.635 12.556L117.881 12.997C118.151 13.4815 118.286 13.7238 118.496 13.8835C118.706 14.0433 118.969 14.1025 119.494 14.221L119.971 14.329C121.816 14.7468 122.737 14.9553 122.957 15.661C123.176 16.366 122.548 17.1018 121.29 18.5726L120.964 18.9528C120.607 19.3706 120.428 19.5798 120.348 19.8378C120.268 20.0966 120.295 20.3756 120.349 20.9328L120.398 21.4406C120.588 23.4033 120.683 24.3843 120.109 24.8201C119.534 25.2558 118.67 24.8583 116.944 24.0633L116.496 23.8578C116.005 23.6313 115.76 23.5188 115.5 23.5188C115.24 23.5188 114.995 23.6313 114.504 23.8578L114.057 24.0633C112.33 24.8583 111.466 25.2558 110.892 24.8208C110.317 24.3843 110.412 23.4033 110.602 21.4406L110.651 20.9336C110.705 20.3756 110.732 20.0966 110.651 19.8386C110.572 19.5798 110.393 19.3706 110.036 18.9536L109.71 18.5726C108.452 17.1025 107.824 16.3668 108.043 15.661C108.262 14.9553 109.185 14.746 111.03 14.329L111.507 14.221C112.031 14.1025 112.293 14.0433 112.504 13.8835C112.715 13.7238 112.849 13.4815 113.119 12.997L113.365 12.556Z" fill="#E76D00"/>
<path d="M133.365 12.556C134.315 10.852 134.79 10 135.5 10C136.21 10 136.685 10.852 137.635 12.556L137.881 12.997C138.151 13.4815 138.286 13.7238 138.496 13.8835C138.706 14.0433 138.969 14.1025 139.494 14.221L139.971 14.329C141.816 14.7468 142.737 14.9553 142.957 15.661C143.176 16.366 142.548 17.1018 141.29 18.5726L140.964 18.9528C140.607 19.3706 140.428 19.5798 140.348 19.8378C140.268 20.0966 140.295 20.3756 140.349 20.9328L140.398 21.4406C140.588 23.4033 140.683 24.3843 140.109 24.8201C139.534 25.2558 138.67 24.8583 136.944 24.0633L136.496 23.8578C136.005 23.6313 135.76 23.5188 135.5 23.5188C135.24 23.5188 134.995 23.6313 134.504 23.8578L134.057 24.0633C132.33 24.8583 131.466 25.2558 130.892 24.8208C130.317 24.3843 130.412 23.4033 130.602 21.4406L130.651 20.9336C130.705 20.3756 130.732 20.0966 130.651 19.8386C130.572 19.5798 130.393 19.3706 130.036 18.9536L129.71 18.5726C128.452 17.1025 127.824 16.3668 128.043 15.661C128.262 14.9553 129.185 14.746 131.03 14.329L131.507 14.221C132.031 14.1025 132.293 14.0433 132.504 13.8835C132.715 13.7238 132.849 13.4815 133.119 12.997L133.365 12.556Z" fill="#E76D00"/>
<path d="M153.365 12.556C154.315 10.852 154.79 10 155.5 10C156.21 10 156.685 10.852 157.635 12.556L157.881 12.997C158.151 13.4815 158.286 13.7238 158.496 13.8835C158.706 14.0433 158.969 14.1025 159.494 14.221L159.971 14.329C161.816 14.7468 162.737 14.9553 162.957 15.661C163.176 16.366 162.548 17.1018 161.29 18.5726L160.964 18.9528C160.607 19.3706 160.428 19.5798 160.348 19.8378C160.268 20.0966 160.295 20.3756 160.349 20.9328L160.398 21.4406C160.588 23.4033 160.683 24.3843 160.109 24.8201C159.534 25.2558 158.67 24.8583 156.944 24.0633L156.496 23.8578C156.005 23.6313 155.76 23.5188 155.5 23.5188C155.24 23.5188 154.995 23.6313 154.504 23.8578L154.057 24.0633C152.33 24.8583 151.466 25.2558 150.892 24.8208C150.317 24.3843 150.412 23.4033 150.602 21.4406L150.651 20.9336C150.705 20.3756 150.732 20.0966 150.651 19.8386C150.572 19.5798 150.393 19.3706 150.036 18.9536L149.71 18.5726C148.452 17.1025 147.824 16.3668 148.043 15.661C148.262 14.9553 149.185 14.746 151.03 14.329L151.507 14.221C152.031 14.1025 152.293 14.0433 152.504 13.8835C152.715 13.7238 152.849 13.4815 153.119 12.997L153.365 12.556Z" fill="#E76D00"/>
<path d="M153.365 12.556C154.315 10.852 154.79 10 155.5 10C156.21 10 156.685 10.852 157.635 12.556L157.881 12.997C158.151 13.4815 158.286 13.7238 158.496 13.8835C158.706 14.0433 158.969 14.1025 159.494 14.221L159.971 14.329C161.816 14.7468 162.737 14.9553 162.957 15.661C163.176 16.366 162.548 17.1018 161.29 18.5726L160.964 18.9528C160.607 19.3706 160.428 19.5798 160.348 19.8378C160.268 20.0966 160.295 20.3756 160.349 20.9328L160.398 21.4406C160.588 23.4033 160.683 24.3843 160.109 24.8201C159.534 25.2558 158.67 24.8583 156.944 24.0633L156.496 23.8578C156.005 23.6313 155.76 23.5188 155.5 23.5188C155.24 23.5188 154.995 23.6313 154.504 23.8578L154.057 24.0633C152.33 24.8583 151.466 25.2558 150.892 24.8208C150.317 24.3843 150.412 23.4033 150.602 21.4406L150.651 20.9336C150.705 20.3756 150.732 20.0966 150.651 19.8386C150.572 19.5798 150.393 19.3706 150.036 18.9536L149.71 18.5726C148.452 17.1025 147.824 16.3668 148.043 15.661C148.262 14.9553 149.185 14.746 151.03 14.329L151.507 14.221C152.031 14.1025 152.293 14.0433 152.504 13.8835C152.715 13.7238 152.849 13.4815 153.119 12.997L153.365 12.556Z" fill="url(#paint0_linear_64_62)" fill-opacity="0.7"/>
<path d="M155.5 10.5C155.615 10.5 155.783 10.5536 156.081 10.9434C156.38 11.3335 156.715 11.9335 157.198 12.7998L157.444 13.2402C157.693 13.6857 157.881 14.0433 158.193 14.2812C158.51 14.522 158.901 14.6003 159.383 14.709L159.86 14.8164C160.8 15.0291 161.445 15.1775 161.89 15.3525C162.27 15.5026 162.404 15.6346 162.46 15.7578L162.479 15.8096C162.524 15.9523 162.513 16.1514 162.254 16.5635C161.991 16.9808 161.549 17.4996 160.91 18.2471L160.585 18.6279H160.584C160.296 18.9653 160.056 19.2349 159.922 19.5508L159.87 19.6895C159.753 20.0668 159.801 20.4657 159.851 20.9814L159.9 21.4893C159.997 22.4864 160.062 23.1796 160.04 23.6807C160.018 24.181 159.912 24.3418 159.807 24.4219C159.709 24.4959 159.547 24.5522 159.096 24.4229C158.638 24.2917 158.032 24.0141 157.153 23.6094H157.152L156.704 23.4033C156.255 23.196 155.895 23.0186 155.5 23.0186C155.105 23.0186 154.744 23.1959 154.295 23.4033L153.849 23.6094H153.848C152.968 24.0141 152.362 24.2916 151.904 24.4229C151.565 24.5201 151.39 24.5126 151.282 24.4717L151.194 24.4229C151.088 24.3423 150.982 24.1809 150.96 23.6807C150.938 23.1796 151.003 22.4864 151.1 21.4893L151.149 20.9824V20.9814C151.199 20.4657 151.246 20.0659 151.128 19.6885C151.01 19.309 150.744 19.0118 150.415 18.6279L150.09 18.248V18.2471C149.45 17.4998 149.009 16.9808 148.746 16.5635C148.487 16.1519 148.476 15.9529 148.521 15.8096C148.563 15.6721 148.675 15.523 149.11 15.3516C149.555 15.1765 150.201 15.0287 151.141 14.8164L151.617 14.709C152.099 14.6002 152.489 14.5223 152.806 14.2822C153.12 14.044 153.308 13.6848 153.556 13.2402L153.802 12.7998C154.285 11.9335 154.62 11.3335 154.919 10.9434C155.217 10.5536 155.385 10.5 155.5 10.5Z" stroke="#E76D00" stroke-opacity="0.3"/>
<path d="M10.7 42V34.8H13.48C13.55 34.8 13.6283 34.8033 13.715 34.81C13.805 34.8133 13.895 34.8233 13.985 34.84C14.3617 34.8967 14.68 35.0283 14.94 35.235C15.2033 35.4383 15.4017 35.695 15.535 36.005C15.6717 36.315 15.74 36.6583 15.74 37.035C15.74 37.4083 15.6717 37.75 15.535 38.06C15.3983 38.37 15.1983 38.6283 14.935 38.835C14.675 39.0383 14.3583 39.1683 13.985 39.225C13.895 39.2383 13.805 39.2483 13.715 39.255C13.6283 39.2617 13.55 39.265 13.48 39.265H11.435V42H10.7ZM11.435 38.565H13.46C13.52 38.565 13.59 38.5617 13.67 38.555C13.75 38.5483 13.8283 38.5367 13.905 38.52C14.1517 38.4667 14.3533 38.365 14.51 38.215C14.67 38.065 14.7883 37.8867 14.865 37.68C14.945 37.4733 14.985 37.2583 14.985 37.035C14.985 36.8117 14.945 36.5967 14.865 36.39C14.7883 36.18 14.67 36 14.51 35.85C14.3533 35.7 14.1517 35.5983 13.905 35.545C13.8283 35.5283 13.75 35.5183 13.67 35.515C13.59 35.5083 13.52 35.505 13.46 35.505H11.435V38.565ZM19.0202 42.15C18.4935 42.15 18.0368 42.0333 17.6502 41.8C17.2668 41.5667 16.9685 41.2383 16.7552 40.815C16.5418 40.3917 16.4352 39.895 16.4352 39.325C16.4352 38.735 16.5402 38.225 16.7502 37.795C16.9602 37.365 17.2552 37.0333 17.6352 36.8C18.0185 36.5667 18.4702 36.45 18.9902 36.45C19.5235 36.45 19.9785 36.5733 20.3552 36.82C20.7318 37.0633 21.0168 37.4133 21.2102 37.87C21.4035 38.3267 21.4918 38.8717 21.4752 39.505H20.7252V39.245C20.7118 38.545 20.5602 38.0167 20.2702 37.66C19.9835 37.3033 19.5635 37.125 19.0102 37.125C18.4302 37.125 17.9852 37.3133 17.6752 37.69C17.3685 38.0667 17.2152 38.6033 17.2152 39.3C17.2152 39.98 17.3685 40.5083 17.6752 40.885C17.9852 41.2583 18.4235 41.445 18.9902 41.445C19.3768 41.445 19.7135 41.3567 20.0002 41.18C20.2902 41 20.5185 40.7417 20.6852 40.405L21.3702 40.67C21.1568 41.14 20.8418 41.505 20.4252 41.765C20.0118 42.0217 19.5435 42.15 19.0202 42.15ZM16.9552 39.505V38.89H21.0802V39.505H16.9552ZM24.8248 35.96C24.5881 35.96 24.3714 35.9017 24.1748 35.785C23.9781 35.6683 23.8214 35.5133 23.7048 35.32C23.5914 35.1233 23.5348 34.9067 23.5348 34.67H24.1448C24.1448 34.8567 24.2114 35.0167 24.3448 35.15C24.4781 35.2833 24.6381 35.35 24.8248 35.35C25.0148 35.35 25.1748 35.2833 25.3048 35.15C25.4381 35.0167 25.5048 34.8567 25.5048 34.67H26.1148C26.1148 34.9067 26.0564 35.1233 25.9398 35.32C25.8264 35.5133 25.6714 35.6683 25.4748 35.785C25.2781 35.9017 25.0614 35.96 24.8248 35.96ZM26.8748 36.6V42H26.1598V37.795L23.1998 42H22.5798V36.6H23.2948V40.77L26.2598 36.6H26.8748ZM29.7431 42V37.28H27.8281V36.6H32.3931V37.28H30.4781V42H29.7431ZM37.6365 36.6V42H36.9215V37.795L33.9615 42H33.3415V36.6H34.0565V40.77L37.0215 36.6H37.6365ZM39.0348 42V36.6H39.7698V38.945H42.8148V36.6H43.5498V42H42.8148V39.65H39.7698V42H39.0348ZM44.948 42V36.6H48.648V37.305H45.683V42H44.948ZM53.8534 42.15C53.3168 42.15 52.8584 42.0283 52.4784 41.785C52.0984 41.5417 51.8068 41.205 51.6034 40.775C51.4001 40.345 51.2984 39.8517 51.2984 39.295C51.2984 38.7283 51.4018 38.2317 51.6084 37.805C51.8151 37.3783 52.1084 37.0467 52.4884 36.81C52.8718 36.57 53.3268 36.45 53.8534 36.45C54.3934 36.45 54.8534 36.5717 55.2334 36.815C55.6168 37.055 55.9084 37.39 56.1084 37.82C56.3118 38.2467 56.4134 38.7383 56.4134 39.295C56.4134 39.8617 56.3118 40.36 56.1084 40.79C55.9051 41.2167 55.6118 41.55 55.2284 41.79C54.8451 42.03 54.3868 42.15 53.8534 42.15ZM53.8534 41.445C54.4534 41.445 54.9001 41.2467 55.1934 40.85C55.4868 40.45 55.6334 39.9317 55.6334 39.295C55.6334 38.6417 55.4851 38.1217 55.1884 37.735C54.8951 37.3483 54.4501 37.155 53.8534 37.155C53.4501 37.155 53.1168 37.2467 52.8534 37.43C52.5934 37.61 52.3984 37.8617 52.2684 38.185C52.1418 38.505 52.0784 38.875 52.0784 39.295C52.0784 39.945 52.2284 40.4667 52.5284 40.86C52.8284 41.25 53.2701 41.445 53.8534 41.445ZM59.9414 42.15C59.4447 42.15 59.0247 42.025 58.6814 41.775C58.3381 41.5217 58.0781 41.18 57.9014 40.75C57.7247 40.3167 57.6364 39.8317 57.6364 39.295C57.6364 38.7483 57.7247 38.2617 57.9014 37.835C58.0814 37.405 58.3447 37.0667 58.6914 36.82C59.0381 36.5733 59.4647 36.45 59.9714 36.45C60.4647 36.45 60.8881 36.575 61.2414 36.825C61.5947 37.075 61.8647 37.415 62.0514 37.845C62.2414 38.275 62.3364 38.7583 62.3364 39.295C62.3364 39.835 62.2414 40.32 62.0514 40.75C61.8614 41.18 61.5881 41.5217 61.2314 41.775C60.8747 42.025 60.4447 42.15 59.9414 42.15ZM57.5114 44.4V36.6H58.1714V40.665H58.2514V44.4H57.5114ZM59.8664 41.465C60.2431 41.465 60.5564 41.37 60.8064 41.18C61.0564 40.99 61.2431 40.7317 61.3664 40.405C61.4931 40.075 61.5564 39.705 61.5564 39.295C61.5564 38.8883 61.4947 38.5217 61.3714 38.195C61.2481 37.8683 61.0597 37.61 60.8064 37.42C60.5564 37.23 60.2381 37.135 59.8514 37.135C59.4747 37.135 59.1614 37.2267 58.9114 37.41C58.6647 37.5933 58.4797 37.8483 58.3564 38.175C58.2331 38.4983 58.1714 38.8717 58.1714 39.295C58.1714 39.7117 58.2331 40.085 58.3564 40.415C58.4797 40.7417 58.6664 40.9983 58.9164 41.185C59.1664 41.3717 59.4831 41.465 59.8664 41.465ZM63.4344 42V36.6H67.1344V37.305H64.1694V42H63.4344ZM69.4227 42.15C69.0161 42.15 68.6744 42.0767 68.3977 41.93C68.1244 41.7833 67.9194 41.5883 67.7827 41.345C67.6461 41.1017 67.5777 40.8367 67.5777 40.55C67.5777 40.2567 67.6361 40.0067 67.7527 39.8C67.8727 39.59 68.0344 39.4183 68.2377 39.285C68.4444 39.1517 68.6827 39.05 68.9527 38.98C69.2261 38.9133 69.5277 38.855 69.8577 38.805C70.1911 38.7517 70.5161 38.7067 70.8327 38.67C71.1527 38.63 71.4327 38.5917 71.6727 38.555L71.4127 38.715C71.4227 38.1817 71.3194 37.7867 71.1027 37.53C70.8861 37.2733 70.5094 37.145 69.9727 37.145C69.6027 37.145 69.2894 37.2283 69.0327 37.395C68.7794 37.5617 68.6011 37.825 68.4977 38.185L67.7827 37.975C67.9061 37.4917 68.1544 37.1167 68.5277 36.85C68.9011 36.5833 69.3861 36.45 69.9827 36.45C70.4761 36.45 70.8944 36.5433 71.2377 36.73C71.5844 36.9133 71.8294 37.18 71.9727 37.53C72.0394 37.6867 72.0827 37.8617 72.1027 38.055C72.1227 38.2483 72.1327 38.445 72.1327 38.645V42H71.4777V40.645L71.6677 40.725C71.4844 41.1883 71.1994 41.5417 70.8127 41.785C70.4261 42.0283 69.9627 42.15 69.4227 42.15ZM69.5077 41.515C69.8511 41.515 70.1511 41.4533 70.4077 41.33C70.6644 41.2067 70.8711 41.0383 71.0277 40.825C71.1844 40.6083 71.2861 40.365 71.3327 40.095C71.3727 39.9217 71.3944 39.7317 71.3977 39.525C71.4011 39.315 71.4027 39.1583 71.4027 39.055L71.6827 39.2C71.4327 39.2333 71.1611 39.2667 70.8677 39.3C70.5777 39.3333 70.2911 39.3717 70.0077 39.415C69.7277 39.4583 69.4744 39.51 69.2477 39.57C69.0944 39.6133 68.9461 39.675 68.8027 39.755C68.6594 39.8317 68.5411 39.935 68.4477 40.065C68.3577 40.195 68.3127 40.3567 68.3127 40.55C68.3127 40.7067 68.3511 40.8583 68.4277 41.005C68.5077 41.1517 68.6344 41.2733 68.8077 41.37C68.9844 41.4667 69.2177 41.515 69.5077 41.515ZM73.4294 42V36.6H74.1644V38.945H77.2094V36.6H77.9444V42H77.2094V39.65H74.1644V42H73.4294ZM83.6326 36.6V42H82.9176V37.795L79.9576 42H79.3376V36.6H80.0526V40.77L83.0176 36.6H83.6326ZM86.9809 42.15C86.4376 42.15 85.9626 42.0317 85.5559 41.795C85.1526 41.555 84.8343 41.2233 84.6009 40.8L85.1909 40.425C85.3876 40.7583 85.6326 41.0117 85.9259 41.185C86.2193 41.3583 86.5559 41.445 86.9359 41.445C87.3326 41.445 87.6509 41.3533 87.8909 41.17C88.1309 40.9867 88.2509 40.735 88.2509 40.415C88.2509 40.195 88.1993 40.02 88.0959 39.89C87.9959 39.76 87.8426 39.6667 87.6359 39.61C87.4326 39.5533 87.1776 39.525 86.8709 39.525H86.2309V38.895H86.8609C87.2343 38.895 87.5343 38.8283 87.7609 38.695C87.9909 38.5583 88.1059 38.345 88.1059 38.055C88.1059 37.7483 87.9909 37.5217 87.7609 37.375C87.5343 37.225 87.2626 37.15 86.9459 37.15C86.6259 37.15 86.3226 37.2167 86.0359 37.35C85.7526 37.48 85.5143 37.6483 85.3209 37.855L84.8509 37.36C85.1209 37.0633 85.4359 36.8383 85.7959 36.685C86.1593 36.5283 86.5609 36.45 87.0009 36.45C87.3476 36.45 87.6609 36.5117 87.9409 36.635C88.2243 36.755 88.4476 36.9317 88.6109 37.165C88.7776 37.3983 88.8609 37.6783 88.8609 38.005C88.8609 38.3117 88.7859 38.5767 88.6359 38.8C88.4893 39.0233 88.2809 39.2083 88.0109 39.355L87.9709 39.08C88.2043 39.1233 88.3976 39.2167 88.5509 39.36C88.7043 39.5033 88.8176 39.675 88.8909 39.875C88.9643 40.075 89.0009 40.2783 89.0009 40.485C89.0009 40.8283 88.9109 41.125 88.7309 41.375C88.5543 41.6217 88.3126 41.8133 88.0059 41.95C87.7026 42.0833 87.3609 42.15 86.9809 42.15ZM91.6493 42.15C91.2426 42.15 90.901 42.0767 90.6243 41.93C90.351 41.7833 90.146 41.5883 90.0093 41.345C89.8726 41.1017 89.8043 40.8367 89.8043 40.55C89.8043 40.2567 89.8626 40.0067 89.9793 39.8C90.0993 39.59 90.261 39.4183 90.4643 39.285C90.671 39.1517 90.9093 39.05 91.1793 38.98C91.4526 38.9133 91.7543 38.855 92.0843 38.805C92.4176 38.7517 92.7426 38.7067 93.0593 38.67C93.3793 38.63 93.6593 38.5917 93.8993 38.555L93.6393 38.715C93.6493 38.1817 93.546 37.7867 93.3293 37.53C93.1126 37.2733 92.736 37.145 92.1993 37.145C91.8293 37.145 91.516 37.2283 91.2593 37.395C91.006 37.5617 90.8276 37.825 90.7243 38.185L90.0093 37.975C90.1326 37.4917 90.381 37.1167 90.7543 36.85C91.1276 36.5833 91.6126 36.45 92.2093 36.45C92.7026 36.45 93.121 36.5433 93.4643 36.73C93.811 36.9133 94.056 37.18 94.1993 37.53C94.266 37.6867 94.3093 37.8617 94.3293 38.055C94.3493 38.2483 94.3593 38.445 94.3593 38.645V42H93.7043V40.645L93.8943 40.725C93.711 41.1883 93.426 41.5417 93.0393 41.785C92.6526 42.0283 92.1893 42.15 91.6493 42.15ZM91.7343 41.515C92.0776 41.515 92.3776 41.4533 92.6343 41.33C92.891 41.2067 93.0976 41.0383 93.2543 40.825C93.411 40.6083 93.5126 40.365 93.5593 40.095C93.5993 39.9217 93.621 39.7317 93.6243 39.525C93.6276 39.315 93.6293 39.1583 93.6293 39.055L93.9093 39.2C93.6593 39.2333 93.3876 39.2667 93.0943 39.3C92.8043 39.3333 92.5176 39.3717 92.2343 39.415C91.9543 39.4583 91.701 39.51 91.4743 39.57C91.321 39.6133 91.1726 39.675 91.0293 39.755C90.886 39.8317 90.7676 39.935 90.6743 40.065C90.5843 40.195 90.5393 40.3567 90.5393 40.55C90.5393 40.7067 90.5776 40.8583 90.6543 41.005C90.7343 41.1517 90.861 41.2733 91.0343 41.37C91.211 41.4667 91.4443 41.515 91.7343 41.515ZM100.301 42.935V42H95.6559V36.6H96.3909V41.295H99.2159V36.6H99.9509V41.32H101.036V42.935H100.301ZM106.123 36.6V42H105.408V37.795L102.448 42H101.828V36.6H102.543V40.77L105.508 36.6H106.123ZM111.816 36.6V42H111.101V37.795L108.141 42H107.521V36.6H108.236V40.77L111.201 36.6H111.816ZM115.216 42V36.6H117.441C117.555 36.6 117.691 36.6067 117.851 36.62C118.015 36.6333 118.166 36.6583 118.306 36.695C118.61 36.775 118.853 36.9383 119.036 37.185C119.223 37.4317 119.316 37.7283 119.316 38.075C119.316 38.2683 119.286 38.4417 119.226 38.595C119.17 38.745 119.088 38.875 118.981 38.985C118.931 39.0417 118.876 39.0917 118.816 39.135C118.756 39.175 118.698 39.2083 118.641 39.235C118.748 39.255 118.863 39.3017 118.986 39.375C119.18 39.4883 119.326 39.6417 119.426 39.835C119.526 40.025 119.576 40.2567 119.576 40.53C119.576 40.9 119.488 41.2017 119.311 41.435C119.135 41.6683 118.898 41.8283 118.601 41.915C118.468 41.9517 118.323 41.975 118.166 41.985C118.013 41.995 117.868 42 117.731 42H115.216ZM115.956 41.375H117.696C117.766 41.375 117.855 41.37 117.961 41.36C118.068 41.3467 118.163 41.33 118.246 41.31C118.443 41.26 118.586 41.16 118.676 41.01C118.77 40.8567 118.816 40.69 118.816 40.51C118.816 40.2733 118.746 40.08 118.606 39.93C118.47 39.7767 118.286 39.6833 118.056 39.65C117.98 39.6333 117.9 39.6233 117.816 39.62C117.733 39.6167 117.658 39.615 117.591 39.615H115.956V41.375ZM115.956 38.985H117.466C117.553 38.985 117.65 38.98 117.756 38.97C117.866 38.9567 117.961 38.935 118.041 38.905C118.215 38.845 118.341 38.7417 118.421 38.595C118.505 38.4483 118.546 38.2883 118.546 38.115C118.546 37.925 118.501 37.7583 118.411 37.615C118.325 37.4717 118.193 37.3717 118.016 37.315C117.896 37.2717 117.766 37.2467 117.626 37.24C117.49 37.2333 117.403 37.23 117.366 37.23H115.956V38.985ZM127.48 42H126.75V39.265H124.355L124.1 39.205C123.567 39.1017 123.157 38.85 122.87 38.45C122.583 38.05 122.44 37.5783 122.44 37.035C122.44 36.6583 122.508 36.315 122.645 36.005C122.782 35.695 122.98 35.4383 123.24 35.235C123.503 35.0283 123.822 34.8967 124.195 34.84C124.288 34.8233 124.378 34.8133 124.465 34.81C124.552 34.8033 124.63 34.8 124.7 34.8H127.48V42ZM123.12 42H122.275L123.835 38.8L124.54 39.07L123.12 42ZM126.75 38.565V35.505H124.72C124.663 35.505 124.593 35.5083 124.51 35.515C124.43 35.5183 124.352 35.5283 124.275 35.545C124.028 35.5983 123.825 35.7 123.665 35.85C123.508 36 123.392 36.18 123.315 36.39C123.238 36.5967 123.2 36.8117 123.2 37.035C123.2 37.2583 123.238 37.4733 123.315 37.68C123.392 37.8867 123.508 38.065 123.665 38.215C123.825 38.365 124.028 38.4667 124.275 38.52C124.352 38.5367 124.43 38.5483 124.51 38.555C124.593 38.5617 124.663 38.565 124.72 38.565H126.75ZM128.879 42V36.6H129.614V38.945H132.659V36.6H133.394V42H132.659V39.65H129.614V42H128.879ZM134.392 43.2V41.37C134.698 41.37 134.918 41.2717 135.052 41.075C135.185 40.875 135.293 40.5567 135.377 40.12C135.433 39.8367 135.48 39.5317 135.517 39.205C135.553 38.8783 135.585 38.505 135.612 38.085C135.638 37.6617 135.663 37.1667 135.687 36.6H139.257V41.37H139.777V43.2H139.067V42H135.097V43.2H134.392ZM135.637 41.37H138.527V37.23H136.367C136.357 37.4833 136.342 37.7517 136.322 38.035C136.305 38.3183 136.283 38.6017 136.257 38.885C136.233 39.1683 136.205 39.435 136.172 39.685C136.142 39.9317 136.105 40.1483 136.062 40.335C136.012 40.575 135.957 40.78 135.897 40.95C135.84 41.12 135.753 41.26 135.637 41.37ZM143.063 42.15C142.536 42.15 142.08 42.0333 141.693 41.8C141.31 41.5667 141.011 41.2383 140.798 40.815C140.585 40.3917 140.478 39.895 140.478 39.325C140.478 38.735 140.583 38.225 140.793 37.795C141.003 37.365 141.298 37.0333 141.678 36.8C142.061 36.5667 142.513 36.45 143.033 36.45C143.566 36.45 144.021 36.5733 144.398 36.82C144.775 37.0633 145.06 37.4133 145.253 37.87C145.446 38.3267 145.535 38.8717 145.518 39.505H144.768V39.245C144.755 38.545 144.603 38.0167 144.313 37.66C144.026 37.3033 143.606 37.125 143.053 37.125C142.473 37.125 142.028 37.3133 141.718 37.69C141.411 38.0667 141.258 38.6033 141.258 39.3C141.258 39.98 141.411 40.5083 141.718 40.885C142.028 41.2583 142.466 41.445 143.033 41.445C143.42 41.445 143.756 41.3567 144.043 41.18C144.333 41 144.561 40.7417 144.728 40.405L145.413 40.67C145.2 41.14 144.885 41.505 144.468 41.765C144.055 42.0217 143.586 42.15 143.063 42.15ZM140.998 39.505V38.89H145.123V39.505H140.998ZM146.623 42L146.628 36.6H147.368V39.2L149.778 36.6H150.758L148.228 39.3L151.088 42H150.018L147.368 39.4V42H146.623ZM153.731 42.15C153.188 42.15 152.728 42.0283 152.351 41.785C151.974 41.5417 151.688 41.2067 151.491 40.78C151.298 40.35 151.198 39.8567 151.191 39.3C151.198 38.7333 151.301 38.2367 151.501 37.81C151.701 37.38 151.989 37.0467 152.366 36.81C152.743 36.57 153.199 36.45 153.736 36.45C154.283 36.45 154.758 36.5833 155.161 36.85C155.568 37.1167 155.846 37.4817 155.996 37.945L155.276 38.175C155.149 37.8517 154.948 37.6017 154.671 37.425C154.398 37.245 154.084 37.155 153.731 37.155C153.334 37.155 153.006 37.2467 152.746 37.43C152.486 37.61 152.293 37.8617 152.166 38.185C152.039 38.5083 151.974 38.88 151.971 39.3C151.978 39.9467 152.128 40.4667 152.421 40.86C152.714 41.25 153.151 41.445 153.731 41.445C154.098 41.445 154.409 41.3617 154.666 41.195C154.926 41.025 155.123 40.7783 155.256 40.455L155.996 40.675C155.796 41.155 155.503 41.5217 155.116 41.775C154.729 42.025 154.268 42.15 153.731 42.15ZM159.313 42.15C158.786 42.15 158.33 42.0333 157.943 41.8C157.56 41.5667 157.261 41.2383 157.048 40.815C156.835 40.3917 156.728 39.895 156.728 39.325C156.728 38.735 156.833 38.225 157.043 37.795C157.253 37.365 157.548 37.0333 157.928 36.8C158.311 36.5667 158.763 36.45 159.283 36.45C159.816 36.45 160.271 36.5733 160.648 36.82C161.025 37.0633 161.31 37.4133 161.503 37.87C161.696 38.3267 161.785 38.8717 161.768 39.505H161.018V39.245C161.005 38.545 160.853 38.0167 160.563 37.66C160.276 37.3033 159.856 37.125 159.303 37.125C158.723 37.125 158.278 37.3133 157.968 37.69C157.661 38.0667 157.508 38.6033 157.508 39.3C157.508 39.98 157.661 40.5083 157.968 40.885C158.278 41.2583 158.716 41.445 159.283 41.445C159.67 41.445 160.006 41.3567 160.293 41.18C160.583 41 160.811 40.7417 160.978 40.405L161.663 40.67C161.45 41.14 161.135 41.505 160.718 41.765C160.305 42.0217 159.836 42.15 159.313 42.15ZM157.248 39.505V38.89H161.373V39.505H157.248Z" fill="white"/>
<defs>
<linearGradient id="paint0_linear_64_62" x1="163" y1="17.5" x2="148" y2="17.5" gradientUnits="userSpaceOnUse">
<stop offset="0.355669"/>
<stop offset="0.355769" stop-opacity="0"/>
</linearGradient>
</defs>
</svg>
