<svg width="48" height="55" viewBox="0 0 48 55" fill="none" xmlns="http://www.w3.org/2000/svg">
<path d="M4.56456 36.2191L5.25321 35.922L4.56456 36.2191ZM13.2372 3.26776C13.3659 2.87404 13.151 2.45056 12.7573 2.32189L6.34122 0.225127C5.9475 0.0964571 5.52402 0.311328 5.39535 0.705049C5.26668 1.09877 5.48155 1.52225 5.87527 1.65092L11.5785 3.51471L9.71466 9.21789C9.586 9.61162 9.80087 10.0351 10.1946 10.1638C10.5883 10.2924 11.0118 10.0776 11.1405 9.68384L13.2372 3.26776ZM46.8878 52.7153C46.7185 51.9846 46.7187 51.9846 46.7187 51.9846C46.7186 51.9846 46.7185 51.9846 46.7182 51.9847C46.7176 51.9849 46.7165 51.9851 46.7149 51.9855C46.7118 51.9862 46.7068 51.9873 46.6998 51.9889C46.6859 51.992 46.6644 51.9968 46.6356 52.0031C46.5779 52.0157 46.4906 52.0344 46.3755 52.0579C46.1453 52.105 45.8036 52.1717 45.3636 52.2484C44.4833 52.4018 43.2105 52.5954 41.6496 52.7542C38.5249 53.072 34.2601 53.2484 29.6855 52.6896C20.5309 51.5712 10.2629 47.5343 5.25321 35.922L4.56456 36.2191L3.87591 36.5162C9.18199 48.8155 20.0755 53.0267 29.5036 54.1785C34.2204 54.7547 38.6023 54.5718 41.8013 54.2465C43.4023 54.0836 44.7107 53.8848 45.6211 53.7261C46.0764 53.6467 46.4325 53.5774 46.6762 53.5275C46.798 53.5026 46.8917 53.4825 46.9558 53.4685C46.9878 53.4615 47.0124 53.4561 47.0293 53.4522C47.0378 53.4503 47.0444 53.4488 47.049 53.4478C47.0513 53.4473 47.0532 53.4468 47.0545 53.4465C47.0552 53.4464 47.0558 53.4462 47.0562 53.4461C47.0567 53.446 47.0571 53.4459 46.8878 52.7153ZM4.56456 36.2191L5.25321 35.922C0.187339 24.1795 2.16991 16.1426 5.31406 11.0544C6.89824 8.49066 8.796 6.6461 10.2988 5.4427C11.0494 4.84161 11.6989 4.40256 12.1572 4.11562C12.3862 3.97221 12.5672 3.86699 12.6888 3.79871C12.7496 3.76457 12.7955 3.73968 12.8252 3.72388C12.84 3.71598 12.8507 3.71036 12.8572 3.70699C12.8604 3.7053 12.8626 3.70418 12.8637 3.70362C12.8642 3.70334 12.8645 3.7032 12.8645 3.7032L12.8643 3.70331C12.864 3.70345 12.8637 3.70362 12.5243 3.03479C12.185 2.36595 12.1845 2.3662 12.1839 2.36649C12.1837 2.36662 12.183 2.36695 12.1825 2.36723C12.1814 2.36779 12.18 2.3685 12.1783 2.36936C12.175 2.37107 12.1706 2.37335 12.1651 2.37622C12.154 2.38194 12.1387 2.38998 12.1193 2.40036C12.0804 2.42111 12.0249 2.45121 11.9544 2.49082C11.8133 2.57004 11.6117 2.6874 11.3612 2.84424C10.8604 3.15781 10.1627 3.63 9.36116 4.27185C7.75963 5.55434 5.73325 7.52245 4.03802 10.2659C0.623346 15.7919 -1.37397 24.3472 3.87591 36.5162L4.56456 36.2191Z" fill="white"/>
</svg>
